<?xml version="1.0" encoding="UTF-8" standalone="no"?>
<!-- Generator: Adobe Illustrator 16.0.3, SVG Export Plug-In . SVG Version: 6.00 Build 0)  -->

<svg
   xmlns:dc="http://purl.org/dc/elements/1.1/"
   xmlns:cc="http://creativecommons.org/ns#"
   xmlns:rdf="http://www.w3.org/1999/02/22-rdf-syntax-ns#"
   xmlns:svg="http://www.w3.org/2000/svg"
   xmlns="http://www.w3.org/2000/svg"
   xmlns:sodipodi="http://sodipodi.sourceforge.net/DTD/sodipodi-0.dtd"
   xmlns:inkscape="http://www.inkscape.org/namespaces/inkscape"
   version="1.1"
   id="Layer_1"
   x="0px"
   y="0px"
   width="636.248px"
   height="127.175px"
   viewBox="0 0 636.248 127.175"
   enable-background="new 0 0 636.248 127.175"
   xml:space="preserve"
   sodipodi:docname="Versa64Cart-logo-vector-black.svg"
   inkscape:version="0.92.4 (5da689c313, 2019-01-14)"><metadata
   id="metadata4969"><rdf:RDF><cc:Work
       rdf:about=""><dc:format>image/svg+xml</dc:format><dc:type
         rdf:resource="http://purl.org/dc/dcmitype/StillImage" /></cc:Work></rdf:RDF></metadata><defs
   id="defs4967">
	
	

		
		
		
		
	</defs><sodipodi:namedview
   pagecolor="#ffffff"
   bordercolor="#666666"
   borderopacity="1"
   objecttolerance="10"
   gridtolerance="10"
   guidetolerance="10"
   inkscape:pageopacity="0"
   inkscape:pageshadow="2"
   inkscape:window-width="1990"
   inkscape:window-height="882"
   id="namedview4965"
   showgrid="false"
   inkscape:zoom="1.6895865"
   inkscape:cx="318.12399"
   inkscape:cy="63.587502"
   inkscape:window-x="180"
   inkscape:window-y="105"
   inkscape:window-maximized="0"
   inkscape:current-layer="Layer_1" />
<g
   display="none"
   id="g4887"
   style="display:none">
			<path
   display="inline"
   d="m 396.842,114.499 c 0,1.143 -0.168,2.172 -0.504,3.088 -0.336,0.916 -0.815,1.7 -1.441,2.353 -0.625,0.652 -1.383,1.151 -2.271,1.496 -0.889,0.344 -1.895,0.517 -3.019,0.517 -1.088,0 -2.126,-0.081 -3.114,-0.245 -0.988,-0.163 -1.809,-0.344 -2.462,-0.544 v -20.128 l 3.292,-0.544 v 7.371 c 0.381,-0.199 0.847,-0.381 1.4,-0.544 0.553,-0.163 1.164,-0.244 1.836,-0.244 0.997,0 1.891,0.177 2.68,0.53 0.788,0.354 1.445,0.856 1.971,1.51 0.526,0.652 0.93,1.437 1.211,2.353 0.281,0.916 0.421,1.926 0.421,3.031 z m -3.373,-0.054 c 0,-1.396 -0.276,-2.503 -0.83,-3.318 -0.553,-0.816 -1.428,-1.225 -2.624,-1.225 -0.544,0 -1.057,0.082 -1.537,0.245 -0.48,0.163 -0.866,0.345 -1.155,0.544 v 8.188 c 0.234,0.054 0.539,0.104 0.91,0.149 0.372,0.045 0.82,0.068 1.347,0.068 1.215,0 2.167,-0.413 2.856,-1.238 0.688,-0.824 1.033,-1.962 1.033,-3.413 z"
   id="path4859"
   inkscape:connector-curvature="0"
   style="display:inline" />
			<path
   display="inline"
   d="m 411.557,107.373 c -1.466,5.404 -3.168,10.3 -5.104,14.688 -0.363,0.816 -0.736,1.515 -1.117,2.095 -0.381,0.58 -0.808,1.061 -1.279,1.441 -0.473,0.381 -0.999,0.657 -1.58,0.83 -0.58,0.172 -1.252,0.258 -2.014,0.258 -0.509,0 -1.013,-0.054 -1.512,-0.163 -0.5,-0.108 -0.876,-0.227 -1.131,-0.354 l 0.6,-2.638 c 0.655,0.253 1.303,0.38 1.939,0.38 0.855,0 1.525,-0.203 2.008,-0.611 0.483,-0.408 0.906,-1.038 1.271,-1.891 -1.039,-1.994 -2.035,-4.171 -2.992,-6.528 -0.956,-2.356 -1.807,-4.859 -2.554,-7.507 h 3.509 c 0.182,0.762 0.404,1.587 0.669,2.476 0.265,0.889 0.551,1.791 0.86,2.706 0.31,0.916 0.637,1.827 0.982,2.733 0.346,0.907 0.691,1.75 1.038,2.529 0.577,-1.613 1.119,-3.332 1.624,-5.154 0.506,-1.822 0.967,-3.585 1.381,-5.29 z"
   id="path4861"
   inkscape:connector-curvature="0"
   style="display:inline" />
			<path
   display="inline"
   d="m 426.244,121.816 c -0.997,0 -2.004,-0.032 -3.019,-0.096 -1.017,-0.063 -1.904,-0.194 -2.665,-0.395 V 103.02 c 0.398,-0.072 0.824,-0.141 1.277,-0.204 0.453,-0.063 0.916,-0.113 1.388,-0.15 0.472,-0.036 0.938,-0.063 1.401,-0.081 0.462,-0.018 0.901,-0.027 1.318,-0.027 1.143,0 2.203,0.086 3.183,0.259 0.979,0.172 1.827,0.458 2.543,0.856 0.716,0.399 1.274,0.925 1.673,1.577 0.398,0.653 0.599,1.46 0.599,2.421 0,0.889 -0.214,1.65 -0.64,2.285 -0.426,0.635 -1.02,1.143 -1.781,1.523 1.143,0.381 1.985,0.942 2.529,1.687 0.545,0.743 0.816,1.687 0.816,2.828 0,1.94 -0.707,3.396 -2.121,4.366 -1.414,0.971 -3.581,1.456 -6.501,1.456 z m -2.311,-11.397 h 2.421 c 1.306,0 2.33,-0.186 3.074,-0.557 0.742,-0.372 1.115,-1.038 1.115,-2 0,-0.906 -0.387,-1.55 -1.156,-1.931 -0.771,-0.381 -1.773,-0.571 -3.006,-0.571 -0.526,0 -0.993,0.009 -1.4,0.027 -0.408,0.018 -0.758,0.045 -1.048,0.081 z m 0,2.693 v 5.739 c 0.381,0.036 0.789,0.063 1.224,0.081 0.436,0.019 0.834,0.027 1.197,0.027 0.707,0 1.364,-0.045 1.973,-0.136 0.606,-0.091 1.133,-0.249 1.576,-0.476 0.445,-0.227 0.799,-0.531 1.062,-0.911 0.263,-0.381 0.395,-0.871 0.395,-1.47 0,-1.069 -0.39,-1.813 -1.17,-2.229 -0.78,-0.416 -1.858,-0.626 -3.237,-0.626 h -3.02 z"
   id="path4863"
   inkscape:connector-curvature="0"
   style="display:inline" />
			<path
   display="inline"
   d="m 450.208,104.871 c 0.29,0.979 0.599,1.999 0.925,3.06 0.326,1.061 0.666,2.121 1.02,3.183 0.354,1.061 0.707,2.104 1.061,3.128 0.354,1.024 0.694,1.99 1.021,2.896 0.272,-0.979 0.534,-2.044 0.789,-3.196 0.253,-1.151 0.507,-2.348 0.761,-3.59 0.254,-1.242 0.504,-2.507 0.748,-3.795 0.246,-1.287 0.477,-2.557 0.694,-3.808 h 3.536 c -0.635,3.409 -1.34,6.687 -2.119,9.833 -0.778,3.146 -1.647,6.151 -2.607,9.017 h -3.298 c -1.405,-3.663 -2.765,-7.661 -4.079,-11.995 -0.672,2.194 -1.354,4.279 -2.043,6.256 -0.69,1.977 -1.381,3.89 -2.07,5.739 h -3.27 c -0.977,-2.865 -1.85,-5.87 -2.619,-9.017 -0.769,-3.146 -1.469,-6.424 -2.103,-9.833 h 3.672 c 0.218,1.233 0.448,2.493 0.693,3.781 0.245,1.287 0.499,2.552 0.762,3.794 0.263,1.242 0.53,2.443 0.802,3.604 0.273,1.16 0.545,2.229 0.816,3.209 0.345,-0.925 0.693,-1.899 1.047,-2.924 0.354,-1.025 0.703,-2.067 1.048,-3.128 0.345,-1.061 0.675,-2.117 0.993,-3.169 0.316,-1.052 0.611,-2.067 0.884,-3.046 h 2.936 z"
   id="path4865"
   inkscape:connector-curvature="0"
   style="display:inline" />
			<path
   display="inline"
   d="m 475.748,121.599 c -0.254,-0.743 -0.518,-1.478 -0.791,-2.203 -0.272,-0.726 -0.535,-1.469 -0.79,-2.23 h -7.962 c -0.254,0.762 -0.514,1.51 -0.777,2.244 -0.263,0.734 -0.523,1.465 -0.777,2.189 h -3.563 c 0.706,-2.013 1.377,-3.871 2.011,-5.576 0.635,-1.704 1.255,-3.318 1.861,-4.842 0.607,-1.522 1.209,-2.974 1.808,-4.352 0.598,-1.378 1.214,-2.738 1.849,-4.08 h 3.271 c 0.635,1.342 1.251,2.702 1.85,4.08 0.598,1.378 1.201,2.829 1.809,4.352 0.607,1.523 1.233,3.138 1.877,4.842 0.644,1.705 1.319,3.563 2.027,5.576 z m -5.562,-15.205 c -0.417,0.962 -0.893,2.131 -1.428,3.509 -0.535,1.379 -1.092,2.875 -1.672,4.488 h 6.201 c -0.58,-1.613 -1.143,-3.118 -1.687,-4.516 -0.543,-1.396 -1.016,-2.557 -1.414,-3.481 z"
   id="path4867"
   inkscape:connector-curvature="0"
   style="display:inline" />
			<path
   display="inline"
   d="m 489.729,122.007 c -1.414,0 -2.684,-0.218 -3.808,-0.653 -1.124,-0.435 -2.077,-1.074 -2.856,-1.917 -0.779,-0.844 -1.378,-1.872 -1.795,-3.088 -0.417,-1.214 -0.625,-2.61 -0.625,-4.188 0,-1.577 0.24,-2.974 0.721,-4.188 0.481,-1.214 1.137,-2.244 1.972,-3.088 0.834,-0.843 1.813,-1.482 2.938,-1.917 1.124,-0.436 2.33,-0.653 3.618,-0.653 0.779,0 1.486,0.06 2.121,0.177 0.635,0.118 1.188,0.25 1.659,0.395 0.472,0.146 0.861,0.3 1.17,0.463 0.308,0.163 0.525,0.281 0.652,0.354 l -1.007,2.802 c -0.435,-0.272 -1.056,-0.53 -1.862,-0.775 -0.808,-0.245 -1.683,-0.367 -2.625,-0.367 -0.815,0 -1.577,0.141 -2.284,0.422 -0.708,0.281 -1.32,0.702 -1.836,1.265 -0.518,0.563 -0.922,1.27 -1.211,2.121 -0.291,0.853 -0.436,1.841 -0.436,2.965 0,0.998 0.113,1.913 0.34,2.747 0.227,0.835 0.576,1.556 1.047,2.163 0.473,0.607 1.07,1.079 1.796,1.414 0.726,0.336 1.595,0.503 2.611,0.503 1.214,0 2.203,-0.122 2.965,-0.367 0.761,-0.244 1.351,-0.476 1.768,-0.693 l 0.925,2.802 c -0.217,0.146 -0.512,0.29 -0.884,0.436 -0.372,0.145 -0.812,0.285 -1.319,0.421 -0.507,0.136 -1.079,0.245 -1.713,0.326 -0.637,0.077 -1.317,0.118 -2.042,0.118 z"
   id="path4869"
   inkscape:connector-curvature="0"
   style="display:inline" />
			<path
   display="inline"
   d="m 509.965,121.599 c -0.471,-0.725 -1.016,-1.486 -1.632,-2.285 -0.616,-0.798 -1.265,-1.568 -1.944,-2.312 -0.679,-0.744 -1.383,-1.45 -2.108,-2.122 -0.726,-0.67 -1.441,-1.251 -2.149,-1.74 v 8.459 h -3.426 v -18.85 h 3.426 v 7.779 c 0.6,-0.599 1.225,-1.237 1.877,-1.918 0.653,-0.68 1.301,-1.368 1.945,-2.067 0.644,-0.697 1.256,-1.373 1.836,-2.026 0.58,-0.652 1.105,-1.241 1.578,-1.768 h 4.107 c -0.6,0.689 -1.234,1.405 -1.904,2.148 -0.672,0.744 -1.36,1.492 -2.067,2.244 -0.708,0.753 -1.419,1.501 -2.136,2.244 -0.717,0.744 -1.418,1.451 -2.107,2.122 0.762,0.58 1.537,1.256 2.325,2.026 0.789,0.771 1.564,1.596 2.325,2.475 0.762,0.88 1.492,1.796 2.19,2.747 0.698,0.952 1.337,1.9 1.917,2.843 h -4.053 z"
   id="path4871"
   inkscape:connector-curvature="0"
   style="display:inline" />
			<path
   display="inline"
   d="m 529.467,126.631 h -3.373 l 9.198,-26.33 h 3.314 z"
   id="path4873"
   inkscape:connector-curvature="0"
   style="display:inline" />
			<path
   display="inline"
   d="m 561.019,110.338 c -0.272,-0.091 -0.649,-0.186 -1.129,-0.286 -0.481,-0.099 -1.038,-0.149 -1.673,-0.149 -0.363,0 -0.748,0.037 -1.156,0.109 -0.408,0.072 -0.693,0.136 -0.856,0.19 v 11.396 h -3.292 v -13.546 c 0.635,-0.235 1.429,-0.457 2.381,-0.666 0.951,-0.208 2.008,-0.313 3.168,-0.313 0.219,0 0.473,0.014 0.762,0.04 0.291,0.027 0.58,0.064 0.871,0.109 0.289,0.045 0.57,0.1 0.843,0.163 0.273,0.063 0.489,0.122 0.653,0.177 z"
   id="path4875"
   inkscape:connector-curvature="0"
   style="display:inline" />
			<path
   display="inline"
   d="m 563.086,114.554 c 0,-1.251 0.186,-2.348 0.557,-3.291 0.371,-0.942 0.865,-1.728 1.482,-2.353 0.617,-0.626 1.324,-1.098 2.121,-1.415 0.799,-0.316 1.615,-0.476 2.449,-0.476 1.959,0 3.486,0.607 4.582,1.822 1.098,1.215 1.646,3.028 1.646,5.44 0,0.181 -0.004,0.385 -0.014,0.611 -0.01,0.228 -0.023,0.432 -0.041,0.612 h -9.383 c 0.09,1.143 0.492,2.026 1.209,2.652 0.717,0.625 1.754,0.938 3.115,0.938 0.797,0 1.527,-0.072 2.189,-0.218 0.662,-0.146 1.184,-0.3 1.564,-0.463 l 0.434,2.693 c -0.18,0.091 -0.43,0.186 -0.746,0.285 -0.318,0.1 -0.682,0.19 -1.09,0.272 -0.406,0.081 -0.848,0.149 -1.318,0.204 -0.473,0.054 -0.951,0.081 -1.441,0.081 -1.252,0 -2.34,-0.187 -3.264,-0.558 -0.926,-0.371 -1.688,-0.888 -2.285,-1.551 -0.598,-0.661 -1.043,-1.441 -1.332,-2.339 -0.29,-0.893 -0.434,-1.876 -0.434,-2.946 z m 9.547,-1.469 c 0,-0.453 -0.064,-0.884 -0.191,-1.292 -0.127,-0.408 -0.313,-0.762 -0.557,-1.061 -0.244,-0.3 -0.545,-0.535 -0.898,-0.707 -0.354,-0.173 -0.775,-0.259 -1.264,-0.259 -0.508,0 -0.953,0.096 -1.334,0.285 -0.381,0.19 -0.703,0.44 -0.965,0.748 -0.264,0.309 -0.467,0.662 -0.611,1.062 -0.146,0.398 -0.246,0.807 -0.301,1.224 z"
   id="path4877"
   inkscape:connector-curvature="0"
   style="display:inline" />
			<path
   display="inline"
   d="m 583.07,121.599 c -0.91,-1.867 -1.844,-4.012 -2.799,-6.433 -0.957,-2.421 -1.826,-5.019 -2.607,-7.793 h 3.51 c 0.199,0.798 0.432,1.655 0.695,2.57 0.264,0.916 0.547,1.832 0.848,2.747 0.301,0.916 0.609,1.805 0.928,2.666 0.319,0.861 0.615,1.637 0.889,2.325 0.271,-0.688 0.564,-1.464 0.873,-2.325 0.311,-0.861 0.615,-1.75 0.916,-2.666 0.299,-0.915 0.586,-1.831 0.859,-2.747 0.273,-0.915 0.51,-1.772 0.711,-2.57 h 3.4 c -0.783,2.774 -1.652,5.372 -2.609,7.793 -0.955,2.421 -1.889,4.565 -2.799,6.433 z"
   id="path4879"
   inkscape:connector-curvature="0"
   style="display:inline" />
			<path
   display="inline"
   d="m 600.402,106.666 c 1.051,-0.417 2.107,-0.952 3.17,-1.605 1.061,-0.652 1.998,-1.423 2.814,-2.312 h 2.313 v 18.85 h -3.291 v -14.443 c -0.49,0.381 -1.107,0.753 -1.85,1.115 -0.744,0.363 -1.461,0.662 -2.15,0.897 z"
   id="path4881"
   inkscape:connector-curvature="0"
   style="display:inline" />
			<path
   display="inline"
   d="m 619.197,119.804 c 0,0.635 -0.213,1.151 -0.639,1.55 -0.426,0.399 -0.939,0.599 -1.537,0.599 -0.617,0 -1.133,-0.199 -1.551,-0.599 -0.418,-0.398 -0.625,-0.915 -0.625,-1.55 0,-0.635 0.207,-1.156 0.625,-1.564 0.418,-0.408 0.934,-0.612 1.551,-0.612 0.598,0 1.111,0.204 1.537,0.612 0.426,0.408 0.639,0.929 0.639,1.564 z"
   id="path4883"
   inkscape:connector-curvature="0"
   style="display:inline" />
			<path
   display="inline"
   d="m 634.92,112.16 c 0,3.174 -0.582,5.608 -1.742,7.304 -1.16,1.696 -2.766,2.543 -4.814,2.543 -2.048,0 -3.654,-0.848 -4.814,-2.543 -1.16,-1.695 -1.74,-4.13 -1.74,-7.304 0,-1.577 0.15,-2.979 0.449,-4.202 0.299,-1.225 0.734,-2.253 1.305,-3.087 0.572,-0.834 1.262,-1.47 2.068,-1.904 0.807,-0.436 1.717,-0.653 2.732,-0.653 2.049,0 3.654,0.849 4.814,2.544 1.16,1.695 1.742,4.129 1.742,7.302 z m -3.4,0 c 0,-0.979 -0.055,-1.895 -0.164,-2.747 -0.107,-0.853 -0.285,-1.591 -0.529,-2.217 -0.246,-0.626 -0.568,-1.119 -0.967,-1.482 -0.398,-0.362 -0.896,-0.544 -1.496,-0.544 -0.598,0 -1.102,0.182 -1.51,0.544 -0.406,0.363 -0.734,0.856 -0.979,1.482 -0.245,0.626 -0.418,1.364 -0.518,2.217 -0.1,0.853 -0.148,1.768 -0.148,2.747 0,0.979 0.049,1.896 0.148,2.747 0.1,0.853 0.273,1.592 0.518,2.217 0.244,0.626 0.572,1.12 0.979,1.482 0.408,0.363 0.912,0.544 1.51,0.544 0.6,0 1.098,-0.181 1.496,-0.544 0.398,-0.362 0.721,-0.856 0.967,-1.482 0.244,-0.625 0.422,-1.364 0.529,-2.217 0.109,-0.851 0.164,-1.767 0.164,-2.747 z"
   id="path4885"
   inkscape:connector-curvature="0"
   style="display:inline" />
		</g><g
   id="Logo"
   display="none"
   style="display:none">
			<path
   display="inline"
   stroke-miterlimit="10"
   d="m 0.437,0.41 c 15.879,-0.02 31.768,-0.029 47.656,0 1.496,1.103 2.136,3.062 3.18,4.578 14.313,23.803 28.647,47.577 42.97,71.37 1.742,2.982 3.75,5.828 5.089,9.017 -15.515,0.197 -31.039,0.021 -46.554,0.09 -2.441,0.442 -3.17,-2.206 -4.204,-3.781 C 32.579,54.563 16.404,27.541 0.437,0.41 Z"
   id="path4889"
   inkscape:connector-curvature="0"
   style="display:inline;fill:#231f20;stroke:#ffffff;stroke-width:0.5;stroke-miterlimit:10" />
			<path
   display="inline"
   stroke-miterlimit="10"
   d="M 81.682,34.432 C 89.449,23.121 96.557,11.337 104.628,0.253 119.021,0.567 133.423,0.352 147.815,0.36 133.177,25.67 118.568,50.99 103.979,76.329 96.271,63.423 88.405,50.606 80.766,37.661 79.87,36.549 81.239,35.396 81.682,34.432 Z"
   id="path4891"
   inkscape:connector-curvature="0"
   style="display:inline;fill:#231f20;stroke:#ffffff;stroke-width:0.5;stroke-miterlimit:10" />
			<path
   display="inline"
   stroke-miterlimit="10"
   d="m 55.693,93.565 c 12.827,0.06 25.664,0.109 38.501,-0.028 -6.448,11.025 -12.591,22.257 -19.295,33.136 C 68.884,115.41 61.629,104.857 55.693,93.565 Z"
   id="path4893"
   inkscape:connector-curvature="0"
   style="display:inline;fill:#231f20;stroke:#ffffff;stroke-width:0.5;stroke-miterlimit:10" />
			<path
   stroke-miterlimit="10"
   d="M 58.548,0.883 C 70.154,1.06 81.76,0.951 93.367,0.941 87.717,10.313 81.308,19.232 75.431,28.476 69.721,19.331 64.533,9.841 58.548,0.883 Z"
   id="path4895"
   inkscape:connector-curvature="0"
   style="fill:#231f20;stroke:#ffffff;stroke-width:0.5;stroke-miterlimit:10" />
			<path
   stroke-miterlimit="10"
   d="m 622.467,16.119 c 0.561,-3.298 5.817,-3.278 6.713,-0.147 0.315,6.438 0.021,12.905 0.128,19.354 2.835,0.02 5.681,-0.178 8.507,0.147 2.727,0.709 3.337,5.03 0.728,6.35 -2.864,1.368 -6.202,0.403 -9.263,0.698 0.107,8.86 -0.09,17.72 0.088,26.57 -0.069,4.232 2.757,8.485 7.138,9.105 2.333,0.729 6.143,-0.256 7.019,2.776 0.936,2.421 -1.082,5.1 -3.652,4.882 -4.902,-0.156 -10.327,-1.269 -13.635,-5.217 -3.14,-3.337 -3.917,-8.122 -3.917,-12.541 -0.021,-8.496 -0.01,-16.991 0,-25.497 -2.235,-0.167 -5.129,0.434 -6.597,-1.723 -1.623,-1.684 -0.541,-4.626 1.526,-5.355 1.604,-0.295 3.259,-0.206 4.893,-0.226 0.481,-6.388 -0.159,-12.797 0.324,-19.176 z"
   id="path4897"
   inkscape:connector-curvature="0"
   style="fill:#231f20;stroke:#ffffff;stroke-width:0.5;stroke-miterlimit:10" />
			<path
   stroke-miterlimit="10"
   d="m 571.581,38.515 c -0.098,-2.815 3.85,-4.243 5.818,-2.441 1.635,1.762 1.004,4.282 1.103,6.447 3.652,-2.5 7.138,-5.453 11.588,-6.438 5.394,-1.211 11.35,-1.201 16.498,1.023 2.353,0.827 3.298,4.204 1.329,5.907 -1.073,1.299 -2.935,1.151 -4.332,0.581 -5.729,-1.989 -12.552,-1.575 -17.474,2.185 -4.242,3.141 -7.205,8.082 -7.511,13.389 -0.295,8.101 0.216,16.233 -0.227,24.325 -0.994,3.317 -6.359,2.885 -6.753,-0.611 -0.176,-14.785 -0.088,-29.581 -0.039,-44.367 z"
   id="path4899"
   inkscape:connector-curvature="0"
   style="fill:#231f20;stroke:#ffffff;stroke-width:0.5;stroke-miterlimit:10" />
			<g
   id="g4903">
				<path
   display="inline"
   stroke-miterlimit="10"
   d="m 514.722,53.931 c 3.13,-12.256 16.242,-20.801 28.755,-18.359 11.301,1.703 20.663,12.177 20.859,23.655 -0.01,7.561 0.011,15.121 0,22.682 0.473,2.785 -3.277,5.188 -5.492,3.219 -2.196,-1.477 -1.399,-4.43 -1.605,-6.635 -3.721,2.913 -7.679,5.778 -12.423,6.674 -10.248,2.619 -21.657,-2.322 -27.092,-11.32 -3.85,-5.82 -4.46,-13.232 -3.002,-19.916 z m 19.314,-10.878 c -7.748,2.205 -13.595,10.021 -13.015,18.143 0.029,7.993 6.291,15.327 14.048,16.981 6.359,1.575 13.418,-0.679 17.72,-5.611 6.517,-6.94 5.937,-19.196 -1.319,-25.397 -4.518,-4.481 -11.43,-5.652 -17.434,-4.116 z"
   id="path4901"
   inkscape:connector-curvature="0"
   style="display:inline;fill:#231f20;stroke:#ffffff;stroke-width:0.5;stroke-miterlimit:10" />
			</g>
			<path
   stroke-miterlimit="10"
   d="m 471.397,15.381 c 11.636,-3.771 25.309,-1.684 34.611,6.487 1.792,1.723 0.827,4.656 -0.994,5.965 -0.709,-0.02 -2.137,-0.068 -2.854,-0.088 -7.206,-6.507 -17.641,-8.417 -26.905,-6.064 -7.383,1.988 -13.692,7.227 -17.522,13.772 -4.164,7.067 -4.656,15.918 -2.186,23.646 3.811,11.184 14.935,19.472 26.816,19.562 6.654,0.176 13.29,-1.969 18.537,-6.075 1.987,-1.89 5.886,-0.531 5.788,2.354 0.463,2.51 -2.097,3.622 -3.761,4.843 -8.633,5.868 -19.895,7.581 -29.907,4.638 -8.269,-2.107 -15.101,-7.916 -20.003,-14.718 -5.729,-8.151 -7.099,-18.724 -5.13,-28.342 2.699,-11.903 12.022,-22.004 23.51,-25.98 z"
   id="path4905"
   inkscape:connector-curvature="0"
   style="fill:#231f20;stroke:#ffffff;stroke-width:0.5;stroke-miterlimit:10" />
			<g
   id="g4909">
				<path
   display="inline"
   stroke-miterlimit="10"
   d="m 422.332,14.918 c 1.615,-2.225 5.061,-1.388 6.321,0.787 -0.099,14.826 0.078,29.661 -0.09,44.486 2.954,0.354 6.055,-0.206 8.94,0.709 2.933,1.073 2.598,5.887 -0.444,6.614 -2.806,0.267 -5.611,0.1 -8.416,0.119 -0.069,4.754 0.048,9.509 -0.03,14.264 0.394,2.274 -2.047,4.411 -4.253,3.899 -1.545,-0.611 -2.973,-2.137 -2.795,-3.899 0.088,-4.725 0.059,-9.45 0.078,-14.176 -9.628,-0.226 -19.256,0.011 -28.884,-0.107 -2.904,0.315 -4.734,-3.278 -3.021,-5.522 10.829,-15.751 21.795,-31.413 32.594,-47.174 z M 410.51,44.5 c -3.523,5.315 -7.501,10.336 -10.681,15.869 7.216,-0.069 14.441,0.128 21.667,-0.108 0.275,-10.425 0.128,-20.851 0.059,-31.275 -4.055,4.892 -7.324,10.375 -11.045,15.514 z"
   id="path4907"
   inkscape:connector-curvature="0"
   style="display:inline;fill:#231f20;stroke:#ffffff;stroke-width:0.5;stroke-miterlimit:10" />
			</g>
			<g
   id="g4913">
				<path
   display="inline"
   stroke-miterlimit="10"
   d="m 365.561,14.199 c 2.797,-2.048 6.783,1.221 5.179,4.381 -4.559,8.141 -9.825,15.879 -14.265,24.069 6.399,-0.856 13.311,0.659 18.094,5.197 4.686,4.007 7.58,10.101 7.256,16.312 0.452,8.457 -5.188,16.45 -12.788,19.827 -5.257,2.372 -11.449,2.461 -16.784,0.275 -7.61,-3.082 -13.359,-10.761 -13.448,-19.078 -0.226,-4.331 0.699,-8.731 3.082,-12.384 6.821,-11.282 13.634,-22.554 20.417,-33.845 1.032,-1.603 1.82,-3.444 3.257,-4.754 z M 356.8,50.003 c -6.695,1.506 -11.715,8.309 -10.986,15.17 0.216,7.826 7.895,14.205 15.604,13.457 7.717,-0.394 14.303,-7.768 13.388,-15.534 -0.149,-8.742 -9.678,-15.495 -18.006,-13.093 z"
   id="path4911"
   inkscape:connector-curvature="0"
   style="display:inline;fill:#231f20;stroke:#ffffff;stroke-width:0.5;stroke-miterlimit:10" />
			</g>
			<g
   id="g4917">
				<path
   display="inline"
   stroke-miterlimit="10"
   d="m 280.999,57.229 c 1.112,-10.533 9.814,-19.659 20.181,-21.579 4.765,-0.629 9.805,-0.551 14.304,1.34 9.194,3.73 16.017,13.211 15.712,23.251 -0.069,7.226 0.01,14.462 -0.021,21.688 0.531,2.825 -3.504,5.306 -5.611,3.052 -2.097,-1.517 -1.161,-4.4 -1.467,-6.565 -6.054,5.541 -14.56,8.75 -22.76,6.959 -12.778,-2.138 -22.405,-15.29 -20.338,-28.146 z m 19.757,-14.137 c -7.718,2.245 -13.467,10.101 -12.896,18.183 0.049,6.182 3.878,11.893 9.116,14.993 6.527,3.79 15.495,3.052 21.057,-2.157 5.089,-4.271 7.294,-11.487 5.69,-17.896 -2.097,-9.924 -13.359,-16.164 -22.967,-13.123 z"
   id="path4915"
   inkscape:connector-curvature="0"
   style="display:inline;fill:#231f20;stroke:#ffffff;stroke-width:0.5;stroke-miterlimit:10" />
			</g>
			<path
   stroke-miterlimit="10"
   d="m 236.995,41.271 c 10.12,-9.588 28.568,-7.472 36.276,4.115 1.053,3.338 -3.613,6.251 -5.917,3.456 -3.623,-3.987 -8.781,-6.803 -14.294,-6.359 -5.217,-0.178 -11.646,2.165 -13.191,7.648 0.63,1.073 0.955,2.579 2.353,2.914 7.206,2.49 14.441,4.912 21.736,7.137 2.608,1.103 5.444,2.166 7.226,4.489 3.593,4.125 2.963,10.977 -1.034,14.608 -9.953,10.031 -28.677,8.221 -36.61,-3.377 -1.635,-3.77 3.938,-6.852 6.113,-3.376 6.163,7.216 18.487,8.446 25.378,1.663 2.058,-1.683 1.989,-5.749 -0.994,-6.378 -7.62,-2.629 -15.308,-5.051 -22.927,-7.649 -3.258,-1.122 -6.202,-3.495 -7.422,-6.782 -1.743,-4.204 -0.06,-9.225 3.307,-12.109 z"
   id="path4919"
   inkscape:connector-curvature="0"
   style="fill:#231f20;stroke:#ffffff;stroke-width:0.5;stroke-miterlimit:10" />
			<path
   stroke-miterlimit="10"
   d="m 189.723,39.479 c -0.532,-2.776 2.628,-5.158 5.148,-3.869 2.698,1.25 1.625,4.657 1.9,7.02 4.026,-3.288 8.525,-6.33 13.802,-7.029 4.991,-0.541 10.415,-0.551 14.934,1.93 1.958,1.072 2.195,4.193 0.492,5.602 -1.191,1.26 -3.062,0.964 -4.499,0.374 -5.021,-1.674 -10.868,-1.536 -15.505,1.181 -5.119,3.003 -8.899,8.506 -9.145,14.531 -0.443,8.102 0.227,16.251 -0.315,24.344 -1.023,3.259 -6.202,2.736 -6.733,-0.601 -0.187,-14.491 -0.03,-28.991 -0.079,-43.483 z"
   id="path4921"
   inkscape:connector-curvature="0"
   style="fill:#231f20;stroke:#ffffff;stroke-width:0.5;stroke-miterlimit:10" />
			<g
   id="g4925">
				<path
   display="inline"
   stroke-miterlimit="10"
   d="m 132.055,60.251 c -0.482,-13.447 12,-25.684 25.428,-24.945 13.309,-0.463 25.31,11.734 24.945,24.975 0.247,1.9 -1.477,3.682 -3.288,3.829 -13.319,0.246 -26.678,-0.295 -39.987,0.276 1.516,4.626 4.253,9.007 8.505,11.567 6.418,4.094 15.327,3.465 21.136,-1.458 2.786,-2.648 7.61,1.034 5.454,4.361 -5.129,5.621 -13.438,7.786 -20.821,6.674 -12.049,-1.594 -21.963,-13.052 -21.372,-25.279 z m 7.088,-3.445 c 11.99,0.374 24,0.098 36,0.138 -1.713,-8.417 -9.923,-15.278 -18.655,-14.452 -8.318,-0.197 -15.307,6.566 -17.345,14.314 z"
   id="path4923"
   inkscape:connector-curvature="0"
   style="display:inline;fill:#231f20;stroke:#ffffff;stroke-width:0.5;stroke-miterlimit:10" />
			</g>
		</g><g
   id="g4948">
			<path
   d="m 172.059,40.439 c 3.306,2.001 5.873,4.771 7.699,8.309 1.827,3.538 2.741,7.569 2.741,12.093 0,0.929 -0.291,1.668 -0.87,2.219 -0.581,0.552 -1.335,0.826 -2.262,0.826 h -35.148 c 0.463,4.757 2.319,8.613 5.568,11.571 3.248,2.958 7.308,4.438 12.18,4.438 2.088,0 4.19,-0.362 6.308,-1.088 2.117,-0.725 3.813,-1.639 5.09,-2.74 0.753,-0.58 1.536,-0.871 2.349,-0.871 0.638,0 1.275,0.232 1.914,0.697 0.753,0.695 1.131,1.479 1.131,2.348 0,0.756 -0.319,1.422 -0.957,2.002 -1.914,1.624 -4.35,2.973 -7.308,4.045 -2.958,1.074 -5.801,1.609 -8.526,1.609 -4.641,0 -8.787,-1.029 -12.441,-3.088 -3.654,-2.059 -6.511,-4.93 -8.569,-8.613 -2.06,-3.683 -3.088,-7.844 -3.088,-12.484 0,-4.698 0.971,-8.888 2.915,-12.571 1.942,-3.683 4.639,-6.554 8.091,-8.613 3.45,-2.058 7.38,-3.088 11.789,-3.088 4.288,-0.002 8.087,0.998 11.394,2.999 z M 149.7,47.53 c -2.901,2.727 -4.669,6.323 -5.307,10.788 h 31.842 c -0.465,-4.465 -2.088,-8.061 -4.872,-10.788 -2.784,-2.726 -6.351,-4.089 -10.701,-4.089 -4.409,0 -8.063,1.363 -10.962,4.089 z"
   id="path4928"
   inkscape:connector-curvature="0" />
			<path
   d="m 221.083,38.308 c 1.42,0.639 2.131,1.537 2.131,2.697 0,0.348 -0.03,0.609 -0.087,0.783 -0.232,0.813 -0.595,1.363 -1.087,1.653 -0.494,0.291 -1.174,0.435 -2.044,0.435 -0.522,0 -1.422,-0.057 -2.697,-0.174 -0.465,-0.057 -1.161,-0.087 -2.088,-0.087 -4.35,0 -7.903,1.161 -10.657,3.48 -2.756,2.321 -4.133,5.337 -4.133,9.048 v 26.013 c 0,1.043 -0.291,1.856 -0.87,2.436 -0.58,0.58 -1.392,0.87 -2.436,0.87 -1.044,0 -1.857,-0.29 -2.436,-0.87 -0.581,-0.579 -0.87,-1.393 -0.87,-2.436 V 41.179 c 0,-1.044 0.29,-1.855 0.87,-2.436 0.579,-0.579 1.392,-0.87 2.436,-0.87 1.044,0 1.855,0.291 2.436,0.87 0.579,0.581 0.87,1.392 0.87,2.436 v 3.828 c 1.682,-2.436 3.828,-4.32 6.438,-5.655 2.61,-1.333 5.423,-2.001 8.439,-2.001 2.435,0 4.363,0.319 5.785,0.957 z"
   id="path4930"
   inkscape:connector-curvature="0" />
			<path
   d="m 239.918,84.07 c -3.306,-1.219 -5.975,-2.929 -8.004,-5.133 -0.58,-0.697 -0.87,-1.363 -0.87,-2.002 0,-0.985 0.463,-1.855 1.392,-2.609 0.696,-0.522 1.421,-0.783 2.175,-0.783 0.985,0 1.827,0.406 2.523,1.218 1.392,1.624 3.232,2.871 5.524,3.741 2.291,0.87 4.829,1.305 7.612,1.305 4.059,0 7.104,-0.695 9.135,-2.088 2.029,-1.392 3.074,-3.219 3.132,-5.48 0,-2.088 -1.015,-3.828 -3.045,-5.221 -2.031,-1.392 -5.25,-2.436 -9.657,-3.132 -5.685,-0.927 -9.933,-2.537 -12.746,-4.828 -2.814,-2.291 -4.22,-5.06 -4.22,-8.309 0,-4.233 1.638,-7.511 4.916,-9.831 3.276,-2.319 7.38,-3.48 12.311,-3.48 3.828,0 7.163,0.652 10.005,1.958 2.841,1.305 5.133,3.118 6.873,5.438 0.464,0.754 0.696,1.422 0.696,2.001 0,0.987 -0.465,1.77 -1.392,2.349 -0.407,0.291 -0.957,0.435 -1.653,0.435 -1.218,0 -2.233,-0.435 -3.045,-1.305 -2.842,-3.248 -6.729,-4.872 -11.658,-4.872 -3.19,0 -5.742,0.652 -7.656,1.958 -1.914,1.306 -2.871,2.944 -2.871,4.916 0,2.088 0.899,3.756 2.697,5.002 1.797,1.248 4.987,2.249 9.57,3.001 6.206,1.044 10.643,2.741 13.311,5.089 2.667,2.349 4.002,5.264 4.002,8.743 0,2.669 -0.798,5.047 -2.393,7.135 -1.596,2.088 -3.814,3.713 -6.655,4.871 -2.842,1.162 -6.062,1.74 -9.657,1.74 -3.596,-0.001 -7.046,-0.609 -10.352,-1.827 z"
   id="path4932"
   inkscape:connector-curvature="0" />
			<path
   d="m 314.519,40.613 c 3.682,2.118 6.583,5.033 8.7,8.744 2.117,3.712 3.176,7.83 3.176,12.354 v 20.445 c 0,0.928 -0.32,1.711 -0.957,2.349 -0.639,0.64 -1.451,0.957 -2.436,0.957 -0.987,0 -1.799,-0.305 -2.437,-0.913 -0.64,-0.609 -0.957,-1.406 -0.957,-2.393 v -5.221 c -2.031,2.784 -4.611,4.975 -7.743,6.568 -3.132,1.596 -6.583,2.393 -10.353,2.393 -4.408,0 -8.396,-1.057 -11.962,-3.176 -3.567,-2.115 -6.381,-5.016 -8.439,-8.699 -2.06,-3.683 -3.088,-7.787 -3.088,-12.311 0,-4.524 1.058,-8.642 3.175,-12.354 2.117,-3.711 5.016,-6.625 8.7,-8.744 3.683,-2.116 7.787,-3.175 12.311,-3.175 4.524,0 8.626,1.06 12.31,3.176 z m -3.35,36.845 c 2.667,-1.565 4.77,-3.726 6.308,-6.481 1.536,-2.754 2.305,-5.843 2.305,-9.266 0,-3.421 -0.77,-6.51 -2.305,-9.266 -1.538,-2.754 -3.641,-4.929 -6.308,-6.525 -2.668,-1.595 -5.655,-2.393 -8.961,-2.393 -3.306,0 -6.308,0.798 -9.005,2.393 -2.697,1.596 -4.814,3.771 -6.351,6.525 -1.538,2.755 -2.306,5.844 -2.306,9.266 0,3.423 0.768,6.512 2.306,9.266 1.536,2.756 3.654,4.916 6.351,6.481 2.697,1.565 5.699,2.349 9.005,2.349 3.306,0 6.293,-0.784 8.961,-2.349 z"
   id="path4934"
   inkscape:connector-curvature="0" />
			<path
   d="m 368.371,46.791 c 3.102,1.77 5.524,4.219 7.264,7.352 1.74,3.132 2.61,6.699 2.61,10.701 0,3.944 -0.87,7.481 -2.61,10.614 -1.739,3.132 -4.162,5.583 -7.264,7.352 -3.104,1.77 -6.627,2.653 -10.57,2.653 -4.002,0 -7.556,-0.884 -10.658,-2.653 -3.104,-1.769 -5.524,-4.22 -7.264,-7.352 -1.74,-3.133 -2.611,-6.67 -2.611,-10.614 0,-4.465 1.102,-8.439 3.307,-11.919 l 19.749,-32.886 c 1.044,-1.623 2.378,-2.436 4.002,-2.436 1.333,0 2.437,0.435 3.306,1.305 0.871,0.87 1.306,1.914 1.306,3.132 0,0.87 -0.233,1.653 -0.696,2.349 l -11.919,19.749 h 1.479 c 3.942,-10e-4 7.466,0.884 10.569,2.653 z M 366.5,74.064 c 2.262,-2.377 3.393,-5.451 3.393,-9.222 0,-3.77 -1.131,-6.858 -3.393,-9.265 -2.262,-2.406 -5.191,-3.611 -8.787,-3.611 -3.538,0 -6.438,1.205 -8.699,3.611 -2.262,2.407 -3.394,5.496 -3.394,9.265 0,3.771 1.116,6.845 3.35,9.222 2.231,2.379 5.146,3.567 8.743,3.567 3.596,0.001 6.525,-1.188 8.787,-3.567 z"
   id="path4936"
   inkscape:connector-curvature="0" />
			<path
   d="m 434.272,63.016 c 0.812,0.639 1.218,1.653 1.218,3.044 0,1.104 -0.435,2.045 -1.305,2.828 -0.87,0.783 -1.914,1.174 -3.132,1.174 h -5.22 v 10.963 c 0,1.217 -0.422,2.262 -1.262,3.131 -0.842,0.871 -1.871,1.306 -3.088,1.306 -1.162,0 -2.146,-0.435 -2.959,-1.306 -0.813,-0.869 -1.218,-1.914 -1.218,-3.131 V 70.063 h -28.972 c -1.334,0 -2.406,-0.435 -3.219,-1.305 -0.813,-0.87 -1.217,-1.884 -1.217,-3.045 0,-0.985 0.289,-1.855 0.869,-2.61 l 33.321,-43.674 c 0.985,-1.275 2.204,-1.914 3.653,-1.914 1.219,0 2.204,0.435 2.959,1.305 0.752,0.87 1.131,1.944 1.131,3.219 v 40.02 h 5.22 c 1.336,0 2.409,0.319 3.221,0.957 z m -38.888,-0.957 h 21.924 V 33.262 Z"
   id="path4938"
   inkscape:connector-curvature="0" />
			<path
   d="m 461.242,81.634 c -5.162,-3.132 -9.266,-7.364 -12.311,-12.702 -3.045,-5.335 -4.566,-11.164 -4.566,-17.487 0,-6.264 1.507,-12.063 4.523,-17.4 3.016,-5.335 7.104,-9.57 12.268,-12.702 5.161,-3.132 10.845,-4.698 17.051,-4.698 4.177,0 7.975,0.609 11.397,1.827 3.422,1.218 6.728,3.162 9.918,5.829 0.638,0.465 0.957,1.131 0.957,2.001 0,0.465 -0.116,0.885 -0.348,1.262 -0.232,0.378 -0.552,0.652 -0.957,0.827 -0.117,0.406 -0.378,0.726 -0.783,0.957 -0.406,0.233 -0.841,0.348 -1.305,0.348 -0.87,0 -1.597,-0.261 -2.175,-0.783 -2.262,-2.03 -4.729,-3.509 -7.396,-4.437 -2.669,-0.927 -5.772,-1.392 -9.31,-1.392 -4.871,0 -9.396,1.292 -13.571,3.872 -4.177,2.581 -7.497,6.046 -9.962,10.396 -2.465,4.35 -3.697,9.048 -3.697,14.094 0,5.163 1.219,9.918 3.654,14.268 2.436,4.35 5.742,7.801 9.918,10.354 4.176,2.553 8.729,3.828 13.658,3.828 6.322,0 12.035,-2.03 17.14,-6.091 0.638,-0.464 1.274,-0.696 1.914,-0.696 0.87,0 1.623,0.305 2.262,0.914 0.638,0.609 0.957,1.406 0.957,2.393 0,0.928 -0.319,1.74 -0.957,2.436 -5.452,4.989 -12.558,7.482 -21.315,7.482 -6.147,-0.002 -11.802,-1.568 -16.964,-4.7 z"
   id="path4940"
   inkscape:connector-curvature="0" />
			<path
   d="m 545.415,40.613 c 3.683,2.118 6.582,5.033 8.7,8.744 2.116,3.712 3.176,7.83 3.176,12.354 v 20.445 c 0,0.928 -0.32,1.711 -0.957,2.349 -0.64,0.64 -1.451,0.957 -2.437,0.957 -0.987,0 -1.799,-0.305 -2.437,-0.913 -0.639,-0.609 -0.957,-1.406 -0.957,-2.393 v -5.221 c -2.03,2.784 -4.61,4.975 -7.742,6.568 -3.133,1.596 -6.584,2.393 -10.354,2.393 -4.408,0 -8.396,-1.057 -11.963,-3.176 -3.566,-2.115 -6.381,-5.016 -8.438,-8.699 -2.06,-3.683 -3.089,-7.787 -3.089,-12.311 0,-4.524 1.059,-8.642 3.176,-12.354 2.117,-3.711 5.016,-6.625 8.7,-8.744 3.683,-2.116 7.786,-3.175 12.311,-3.175 4.525,0 8.626,1.06 12.311,3.176 z m -3.35,36.845 c 2.667,-1.565 4.771,-3.726 6.308,-6.481 1.535,-2.754 2.305,-5.843 2.305,-9.266 0,-3.421 -0.77,-6.51 -2.305,-9.266 -1.537,-2.754 -3.641,-4.929 -6.308,-6.525 -2.669,-1.595 -5.655,-2.393 -8.961,-2.393 -3.306,0 -6.308,0.798 -9.005,2.393 -2.697,1.596 -4.814,3.771 -6.351,6.525 -1.538,2.755 -2.306,5.844 -2.306,9.266 0,3.423 0.768,6.512 2.306,9.266 1.536,2.756 3.653,4.916 6.351,6.481 2.698,1.565 5.699,2.349 9.005,2.349 3.306,0 6.292,-0.784 8.961,-2.349 z"
   id="path4942"
   inkscape:connector-curvature="0" />
			<path
   d="m 597.613,38.308 c 1.421,0.639 2.132,1.537 2.132,2.697 0,0.348 -0.03,0.609 -0.087,0.783 -0.232,0.813 -0.596,1.363 -1.088,1.653 -0.493,0.291 -1.174,0.435 -2.044,0.435 -0.522,0 -1.422,-0.057 -2.697,-0.174 -0.465,-0.057 -1.161,-0.087 -2.088,-0.087 -4.351,0 -7.903,1.161 -10.657,3.48 -2.756,2.321 -4.133,5.337 -4.133,9.048 v 26.013 c 0,1.043 -0.291,1.856 -0.87,2.436 -0.58,0.58 -1.392,0.87 -2.436,0.87 -1.044,0 -1.856,-0.29 -2.437,-0.87 -0.58,-0.579 -0.869,-1.393 -0.869,-2.436 V 41.179 c 0,-1.044 0.289,-1.855 0.869,-2.436 0.58,-0.579 1.393,-0.87 2.437,-0.87 1.044,0 1.855,0.291 2.436,0.87 0.579,0.581 0.87,1.392 0.87,2.436 v 3.828 c 1.682,-2.436 3.828,-4.32 6.438,-5.655 2.611,-1.333 5.424,-2.001 8.439,-2.001 2.436,0 4.363,0.319 5.785,0.957 z"
   id="path4944"
   inkscape:connector-curvature="0" />
			<path
   d="m 633.414,79.72 c 0.578,0.64 0.869,1.45 0.869,2.437 0,0.928 -0.348,1.711 -1.044,2.349 -0.696,0.64 -1.565,0.957 -2.61,0.957 h -1.826 c -3.075,0 -5.829,-0.739 -8.266,-2.218 -2.436,-1.479 -4.336,-3.48 -5.698,-6.004 -1.363,-2.523 -2.044,-5.379 -2.044,-8.569 v -23.23 h -5.655 c -0.929,0 -1.668,-0.274 -2.219,-0.827 -0.552,-0.55 -0.826,-1.231 -0.826,-2.044 0,-0.87 0.274,-1.58 0.826,-2.131 0.551,-0.551 1.29,-0.827 2.219,-0.827 h 5.655 V 26.128 c 0,-0.985 0.305,-1.797 0.913,-2.436 0.608,-0.638 1.405,-0.957 2.393,-0.957 0.985,0 1.797,0.319 2.437,0.957 0.637,0.639 0.957,1.451 0.957,2.436 v 13.485 h 9.83 c 0.928,0 1.667,0.276 2.219,0.827 0.551,0.552 0.826,1.261 0.826,2.131 0,0.813 -0.275,1.494 -0.826,2.044 -0.552,0.552 -1.291,0.827 -2.219,0.827 h -9.83 v 23.229 c 0,2.958 0.869,5.38 2.609,7.265 1.74,1.885 3.973,2.827 6.699,2.827 h 2.349 c 0.926,0 1.681,0.319 2.262,0.957 z"
   id="path4946"
   inkscape:connector-curvature="0" />
		</g><g
   id="g4958">
			<path
   d="m 106.043,0.213 c 14.411,0.016 28.823,0.014 43.234,0.001 -0.761,0.909 -1.198,2.042 -1.85,3.029 -13.797,23.877 -27.587,47.763 -41.34,71.666 -0.196,0.399 -0.479,0.746 -0.702,1.131 -1.113,-2.018 -2.375,-3.954 -3.521,-5.954 -0.395,-0.639 -0.825,-1.253 -1.187,-1.909 C 96.331,60.918 91.932,53.693 87.584,46.435 85.69,43.289 83.847,40.11 81.946,36.97 c -0.143,-0.673 0.406,-1.256 0.738,-1.795 0.966,-1.571 2.057,-3.057 3.065,-4.6 1.648,-2.429 3.224,-4.905 4.86,-7.342 0.728,-1.24 1.595,-2.39 2.337,-3.622 1.29,-1.896 2.485,-3.851 3.78,-5.745 0.683,-0.982 1.281,-2.017 1.963,-3 1.804,-2.617 3.541,-5.282 5.405,-7.857 0.623,-0.949 1.362,-1.82 1.949,-2.796 z"
   id="path4950"
   inkscape:connector-curvature="0" />
			<path
   d="M 1.235,0.225 C 17.124,0.213 33.014,0.23 48.902,0.218 c 0.21,0.282 0.483,0.506 0.717,0.766 0.694,0.929 1.218,1.97 1.796,2.971 2.068,3.383 4.113,6.78 6.148,10.185 3.598,6 7.229,11.981 10.809,17.991 1.356,2.155 2.644,4.357 3.957,6.542 2.007,3.347 4.035,6.681 6.038,10.029 1.926,3.261 3.93,6.475 5.867,9.73 2.951,4.923 5.92,9.836 8.876,14.759 0.863,1.519 1.846,2.968 2.688,4.501 1.605,2.565 3.244,5.125 4.504,7.885 C 84.411,85.572 68.52,85.578 52.631,85.574 51.747,85.462 51.265,84.639 50.806,83.972 49.212,81.109 47.495,78.317 45.848,75.483 35.185,57.464 24.482,39.472 13.804,21.46 12.357,19.044 10.957,16.605 9.488,14.203 8.22,11.952 6.85,9.759 5.564,7.519 4.619,5.89 3.612,4.299 2.705,2.649 2.183,1.86 1.775,1.002 1.235,0.225 Z"
   id="path4952"
   inkscape:connector-curvature="0" />
			<path
   d="M 60.062,0 C 71.44,0.003 82.819,-0.001 94.197,0.002 93.886,0.348 93.669,0.76 93.428,1.155 89.899,6.937 86.059,12.523 82.321,18.173 c -1.175,1.751 -2.343,3.509 -3.514,5.264 -0.69,1.224 -1.578,2.328 -2.248,3.566 C 73.017,21.198 69.551,15.334 66.079,9.484 65.238,8.215 64.52,6.87 63.672,5.606 62.488,3.726 61.352,1.811 60.062,0 Z"
   id="path4954"
   inkscape:connector-curvature="0" />
			<path
   d="m 57.094,94.439 c 12.625,0.011 25.251,-0.002 37.876,0.007 -6.1,10.411 -11.908,21.003 -18.193,31.31 -0.219,0.436 -0.554,0.811 -0.712,1.277 C 70.086,115.969 63.009,105.539 57.094,94.439 Z"
   id="path4956"
   inkscape:connector-curvature="0" />
		</g>

</svg>