G04 EAGLE Gerber RS-274X export*
G75*
%MOMM*%
%FSLAX34Y34*%
%LPD*%
%INSolder stop top*%
%IPPOS*%
%AMOC8*
5,1,8,0,0,1.08239X$1,22.5*%
G01*
%ADD10C,0.000000*%
%ADD11C,5.203200*%
%ADD12C,0.152400*%
%ADD13C,1.600200*%
%ADD14C,1.511200*%
%ADD15R,1.524000X1.524000*%
%ADD16C,1.524000*%
%ADD17R,58.000000X9.000000*%
%ADD18R,1.828800X1.828800*%
%ADD19C,1.828800*%
%ADD20R,0.355600X0.355600*%
%ADD21R,1.711200X1.711200*%
%ADD22C,1.711200*%
%ADD23C,0.203200*%
%ADD24C,0.177800*%
%ADD25C,0.127000*%

G36*
X231642Y411061D02*
X231642Y411061D01*
X231684Y411059D01*
X231751Y411080D01*
X231821Y411093D01*
X231857Y411115D01*
X231898Y411128D01*
X231971Y411181D01*
X232014Y411207D01*
X232027Y411223D01*
X232048Y411239D01*
X237048Y416239D01*
X237073Y416274D01*
X237104Y416303D01*
X237136Y416365D01*
X237177Y416423D01*
X237187Y416464D01*
X237207Y416502D01*
X237220Y416592D01*
X237233Y416641D01*
X237230Y416661D01*
X237234Y416688D01*
X237234Y424688D01*
X237227Y424729D01*
X237229Y424772D01*
X237207Y424839D01*
X237195Y424908D01*
X237173Y424945D01*
X237160Y424985D01*
X237106Y425058D01*
X237080Y425102D01*
X237064Y425115D01*
X237048Y425136D01*
X232048Y430136D01*
X232014Y430160D01*
X231985Y430192D01*
X231922Y430224D01*
X231864Y430264D01*
X231823Y430275D01*
X231785Y430294D01*
X231696Y430307D01*
X231647Y430320D01*
X231626Y430318D01*
X231600Y430322D01*
X225600Y430322D01*
X225558Y430314D01*
X225516Y430316D01*
X225449Y430295D01*
X225379Y430282D01*
X225343Y430261D01*
X225302Y430248D01*
X225229Y430194D01*
X225186Y430168D01*
X225173Y430152D01*
X225152Y430136D01*
X220152Y425136D01*
X220127Y425101D01*
X220096Y425072D01*
X220064Y425010D01*
X220023Y424952D01*
X220013Y424911D01*
X219993Y424873D01*
X219980Y424783D01*
X219968Y424735D01*
X219970Y424714D01*
X219966Y424688D01*
X219966Y416688D01*
X219973Y416646D01*
X219971Y416603D01*
X219993Y416536D01*
X220005Y416467D01*
X220027Y416430D01*
X220040Y416390D01*
X220094Y416317D01*
X220120Y416273D01*
X220136Y416260D01*
X220152Y416239D01*
X225152Y411239D01*
X225186Y411215D01*
X225215Y411183D01*
X225278Y411151D01*
X225336Y411111D01*
X225377Y411100D01*
X225415Y411081D01*
X225504Y411068D01*
X225553Y411055D01*
X225574Y411057D01*
X225600Y411053D01*
X231600Y411053D01*
X231642Y411061D01*
G37*
G36*
X204654Y411061D02*
X204654Y411061D01*
X204697Y411059D01*
X204764Y411080D01*
X204833Y411093D01*
X204870Y411115D01*
X204910Y411128D01*
X204983Y411181D01*
X205027Y411207D01*
X205040Y411223D01*
X205061Y411239D01*
X210061Y416239D01*
X210085Y416274D01*
X210117Y416303D01*
X210149Y416365D01*
X210189Y416423D01*
X210200Y416464D01*
X210219Y416502D01*
X210232Y416592D01*
X210245Y416641D01*
X210243Y416661D01*
X210247Y416688D01*
X210247Y424688D01*
X210239Y424729D01*
X210241Y424772D01*
X210220Y424839D01*
X210207Y424908D01*
X210186Y424945D01*
X210173Y424985D01*
X210119Y425058D01*
X210093Y425102D01*
X210077Y425115D01*
X210061Y425136D01*
X205061Y430136D01*
X205026Y430160D01*
X204997Y430192D01*
X204935Y430224D01*
X204877Y430264D01*
X204836Y430275D01*
X204798Y430294D01*
X204708Y430307D01*
X204660Y430320D01*
X204639Y430318D01*
X204613Y430322D01*
X198613Y430322D01*
X198571Y430314D01*
X198528Y430316D01*
X198461Y430295D01*
X198392Y430282D01*
X198355Y430261D01*
X198315Y430248D01*
X198242Y430194D01*
X198198Y430168D01*
X198185Y430152D01*
X198164Y430136D01*
X193164Y425136D01*
X193140Y425101D01*
X193108Y425072D01*
X193076Y425010D01*
X193036Y424952D01*
X193025Y424911D01*
X193006Y424873D01*
X192993Y424783D01*
X192980Y424735D01*
X192982Y424714D01*
X192978Y424688D01*
X192978Y416688D01*
X192986Y416646D01*
X192984Y416603D01*
X193005Y416536D01*
X193018Y416467D01*
X193040Y416430D01*
X193053Y416390D01*
X193106Y416317D01*
X193132Y416273D01*
X193148Y416260D01*
X193164Y416239D01*
X198164Y411239D01*
X198199Y411215D01*
X198228Y411183D01*
X198290Y411151D01*
X198348Y411111D01*
X198389Y411100D01*
X198427Y411081D01*
X198517Y411068D01*
X198566Y411055D01*
X198586Y411057D01*
X198613Y411053D01*
X204613Y411053D01*
X204654Y411061D01*
G37*
G36*
X177667Y411061D02*
X177667Y411061D01*
X177709Y411059D01*
X177776Y411080D01*
X177846Y411093D01*
X177882Y411115D01*
X177923Y411128D01*
X177996Y411181D01*
X178039Y411207D01*
X178052Y411223D01*
X178073Y411239D01*
X183073Y416239D01*
X183098Y416274D01*
X183129Y416303D01*
X183161Y416365D01*
X183202Y416423D01*
X183212Y416464D01*
X183232Y416502D01*
X183245Y416592D01*
X183258Y416641D01*
X183255Y416661D01*
X183259Y416688D01*
X183259Y424688D01*
X183252Y424729D01*
X183254Y424772D01*
X183232Y424839D01*
X183220Y424908D01*
X183198Y424945D01*
X183185Y424985D01*
X183131Y425058D01*
X183105Y425102D01*
X183089Y425115D01*
X183073Y425136D01*
X178073Y430136D01*
X178039Y430160D01*
X178010Y430192D01*
X177947Y430224D01*
X177889Y430264D01*
X177848Y430275D01*
X177810Y430294D01*
X177721Y430307D01*
X177672Y430320D01*
X177651Y430318D01*
X177625Y430322D01*
X171625Y430322D01*
X171583Y430314D01*
X171541Y430316D01*
X171474Y430295D01*
X171404Y430282D01*
X171368Y430261D01*
X171327Y430248D01*
X171254Y430194D01*
X171211Y430168D01*
X171198Y430152D01*
X171177Y430136D01*
X166177Y425136D01*
X166152Y425101D01*
X166121Y425072D01*
X166089Y425010D01*
X166048Y424952D01*
X166038Y424911D01*
X166018Y424873D01*
X166005Y424783D01*
X165993Y424735D01*
X165995Y424714D01*
X165991Y424688D01*
X165991Y416688D01*
X165998Y416646D01*
X165996Y416603D01*
X166018Y416536D01*
X166030Y416467D01*
X166052Y416430D01*
X166065Y416390D01*
X166119Y416317D01*
X166145Y416273D01*
X166161Y416260D01*
X166177Y416239D01*
X171177Y411239D01*
X171211Y411215D01*
X171240Y411183D01*
X171303Y411151D01*
X171361Y411111D01*
X171402Y411100D01*
X171440Y411081D01*
X171529Y411068D01*
X171578Y411055D01*
X171599Y411057D01*
X171625Y411053D01*
X177625Y411053D01*
X177667Y411061D01*
G37*
G36*
X115754Y285648D02*
X115754Y285648D01*
X115797Y285646D01*
X115864Y285668D01*
X115933Y285680D01*
X115970Y285702D01*
X116010Y285715D01*
X116083Y285769D01*
X116127Y285795D01*
X116140Y285811D01*
X116161Y285827D01*
X121161Y290827D01*
X121185Y290861D01*
X121217Y290890D01*
X121249Y290953D01*
X121289Y291011D01*
X121300Y291052D01*
X121319Y291090D01*
X121332Y291179D01*
X121345Y291228D01*
X121343Y291249D01*
X121347Y291275D01*
X121347Y299275D01*
X121339Y299317D01*
X121341Y299359D01*
X121320Y299426D01*
X121307Y299496D01*
X121286Y299532D01*
X121273Y299573D01*
X121219Y299646D01*
X121193Y299689D01*
X121177Y299702D01*
X121161Y299723D01*
X116161Y304723D01*
X116126Y304748D01*
X116097Y304779D01*
X116035Y304811D01*
X115977Y304852D01*
X115936Y304862D01*
X115898Y304882D01*
X115808Y304895D01*
X115760Y304908D01*
X115739Y304905D01*
X115713Y304909D01*
X109713Y304909D01*
X109671Y304902D01*
X109628Y304904D01*
X109561Y304882D01*
X109492Y304870D01*
X109455Y304848D01*
X109415Y304835D01*
X109342Y304781D01*
X109298Y304755D01*
X109285Y304739D01*
X109264Y304723D01*
X104264Y299723D01*
X104240Y299689D01*
X104208Y299660D01*
X104176Y299597D01*
X104136Y299539D01*
X104125Y299498D01*
X104106Y299460D01*
X104093Y299371D01*
X104080Y299322D01*
X104082Y299301D01*
X104078Y299275D01*
X104078Y291275D01*
X104086Y291233D01*
X104084Y291191D01*
X104105Y291124D01*
X104118Y291054D01*
X104140Y291018D01*
X104153Y290977D01*
X104206Y290904D01*
X104232Y290861D01*
X104248Y290848D01*
X104264Y290827D01*
X109264Y285827D01*
X109299Y285802D01*
X109328Y285771D01*
X109390Y285739D01*
X109448Y285698D01*
X109489Y285688D01*
X109527Y285668D01*
X109617Y285655D01*
X109666Y285643D01*
X109686Y285645D01*
X109713Y285641D01*
X115713Y285641D01*
X115754Y285648D01*
G37*
G36*
X64954Y285648D02*
X64954Y285648D01*
X64997Y285646D01*
X65064Y285668D01*
X65133Y285680D01*
X65170Y285702D01*
X65210Y285715D01*
X65283Y285769D01*
X65327Y285795D01*
X65340Y285811D01*
X65361Y285827D01*
X70361Y290827D01*
X70385Y290861D01*
X70417Y290890D01*
X70449Y290953D01*
X70489Y291011D01*
X70500Y291052D01*
X70519Y291090D01*
X70532Y291179D01*
X70545Y291228D01*
X70543Y291249D01*
X70547Y291275D01*
X70547Y299275D01*
X70539Y299317D01*
X70541Y299359D01*
X70520Y299426D01*
X70507Y299496D01*
X70486Y299532D01*
X70473Y299573D01*
X70419Y299646D01*
X70393Y299689D01*
X70377Y299702D01*
X70361Y299723D01*
X65361Y304723D01*
X65326Y304748D01*
X65297Y304779D01*
X65235Y304811D01*
X65177Y304852D01*
X65136Y304862D01*
X65098Y304882D01*
X65008Y304895D01*
X64960Y304908D01*
X64939Y304905D01*
X64913Y304909D01*
X58913Y304909D01*
X58871Y304902D01*
X58828Y304904D01*
X58761Y304882D01*
X58692Y304870D01*
X58655Y304848D01*
X58615Y304835D01*
X58542Y304781D01*
X58498Y304755D01*
X58485Y304739D01*
X58464Y304723D01*
X53464Y299723D01*
X53440Y299689D01*
X53408Y299660D01*
X53376Y299597D01*
X53336Y299539D01*
X53325Y299498D01*
X53306Y299460D01*
X53293Y299371D01*
X53280Y299322D01*
X53282Y299301D01*
X53278Y299275D01*
X53278Y291275D01*
X53286Y291233D01*
X53284Y291191D01*
X53305Y291124D01*
X53318Y291054D01*
X53340Y291018D01*
X53353Y290977D01*
X53406Y290904D01*
X53432Y290861D01*
X53448Y290848D01*
X53464Y290827D01*
X58464Y285827D01*
X58499Y285802D01*
X58528Y285771D01*
X58590Y285739D01*
X58648Y285698D01*
X58689Y285688D01*
X58727Y285668D01*
X58817Y285655D01*
X58866Y285643D01*
X58886Y285645D01*
X58913Y285641D01*
X64913Y285641D01*
X64954Y285648D01*
G37*
G36*
X39554Y285648D02*
X39554Y285648D01*
X39597Y285646D01*
X39664Y285668D01*
X39733Y285680D01*
X39770Y285702D01*
X39810Y285715D01*
X39883Y285769D01*
X39927Y285795D01*
X39940Y285811D01*
X39961Y285827D01*
X44961Y290827D01*
X44985Y290861D01*
X45017Y290890D01*
X45049Y290953D01*
X45089Y291011D01*
X45100Y291052D01*
X45119Y291090D01*
X45132Y291179D01*
X45145Y291228D01*
X45143Y291249D01*
X45147Y291275D01*
X45147Y299275D01*
X45139Y299317D01*
X45141Y299359D01*
X45120Y299426D01*
X45107Y299496D01*
X45086Y299532D01*
X45073Y299573D01*
X45019Y299646D01*
X44993Y299689D01*
X44977Y299702D01*
X44961Y299723D01*
X39961Y304723D01*
X39926Y304748D01*
X39897Y304779D01*
X39835Y304811D01*
X39777Y304852D01*
X39736Y304862D01*
X39698Y304882D01*
X39608Y304895D01*
X39560Y304908D01*
X39539Y304905D01*
X39513Y304909D01*
X33513Y304909D01*
X33471Y304902D01*
X33428Y304904D01*
X33361Y304882D01*
X33292Y304870D01*
X33255Y304848D01*
X33215Y304835D01*
X33142Y304781D01*
X33098Y304755D01*
X33085Y304739D01*
X33064Y304723D01*
X28064Y299723D01*
X28040Y299689D01*
X28008Y299660D01*
X27976Y299597D01*
X27936Y299539D01*
X27925Y299498D01*
X27906Y299460D01*
X27893Y299371D01*
X27880Y299322D01*
X27882Y299301D01*
X27878Y299275D01*
X27878Y291275D01*
X27886Y291233D01*
X27884Y291191D01*
X27905Y291124D01*
X27918Y291054D01*
X27940Y291018D01*
X27953Y290977D01*
X28006Y290904D01*
X28032Y290861D01*
X28048Y290848D01*
X28064Y290827D01*
X33064Y285827D01*
X33099Y285802D01*
X33128Y285771D01*
X33190Y285739D01*
X33248Y285698D01*
X33289Y285688D01*
X33327Y285668D01*
X33417Y285655D01*
X33466Y285643D01*
X33486Y285645D01*
X33513Y285641D01*
X39513Y285641D01*
X39554Y285648D01*
G37*
G36*
X141154Y285648D02*
X141154Y285648D01*
X141197Y285646D01*
X141264Y285668D01*
X141333Y285680D01*
X141370Y285702D01*
X141410Y285715D01*
X141483Y285769D01*
X141527Y285795D01*
X141540Y285811D01*
X141561Y285827D01*
X146561Y290827D01*
X146585Y290861D01*
X146617Y290890D01*
X146649Y290953D01*
X146689Y291011D01*
X146700Y291052D01*
X146719Y291090D01*
X146732Y291179D01*
X146745Y291228D01*
X146743Y291249D01*
X146747Y291275D01*
X146747Y299275D01*
X146739Y299317D01*
X146741Y299359D01*
X146720Y299426D01*
X146707Y299496D01*
X146686Y299532D01*
X146673Y299573D01*
X146619Y299646D01*
X146593Y299689D01*
X146577Y299702D01*
X146561Y299723D01*
X141561Y304723D01*
X141526Y304748D01*
X141497Y304779D01*
X141435Y304811D01*
X141377Y304852D01*
X141336Y304862D01*
X141298Y304882D01*
X141208Y304895D01*
X141160Y304908D01*
X141139Y304905D01*
X141113Y304909D01*
X135113Y304909D01*
X135071Y304902D01*
X135028Y304904D01*
X134961Y304882D01*
X134892Y304870D01*
X134855Y304848D01*
X134815Y304835D01*
X134742Y304781D01*
X134698Y304755D01*
X134685Y304739D01*
X134664Y304723D01*
X129664Y299723D01*
X129640Y299689D01*
X129608Y299660D01*
X129576Y299597D01*
X129536Y299539D01*
X129525Y299498D01*
X129506Y299460D01*
X129493Y299371D01*
X129480Y299322D01*
X129482Y299301D01*
X129478Y299275D01*
X129478Y291275D01*
X129486Y291233D01*
X129484Y291191D01*
X129505Y291124D01*
X129518Y291054D01*
X129540Y291018D01*
X129553Y290977D01*
X129606Y290904D01*
X129632Y290861D01*
X129648Y290848D01*
X129664Y290827D01*
X134664Y285827D01*
X134699Y285802D01*
X134728Y285771D01*
X134790Y285739D01*
X134848Y285698D01*
X134889Y285688D01*
X134927Y285668D01*
X135017Y285655D01*
X135066Y285643D01*
X135086Y285645D01*
X135113Y285641D01*
X141113Y285641D01*
X141154Y285648D01*
G37*
G36*
X90354Y285648D02*
X90354Y285648D01*
X90397Y285646D01*
X90464Y285668D01*
X90533Y285680D01*
X90570Y285702D01*
X90610Y285715D01*
X90683Y285769D01*
X90727Y285795D01*
X90740Y285811D01*
X90761Y285827D01*
X95761Y290827D01*
X95785Y290861D01*
X95817Y290890D01*
X95849Y290953D01*
X95889Y291011D01*
X95900Y291052D01*
X95919Y291090D01*
X95932Y291179D01*
X95945Y291228D01*
X95943Y291249D01*
X95947Y291275D01*
X95947Y299275D01*
X95939Y299317D01*
X95941Y299359D01*
X95920Y299426D01*
X95907Y299496D01*
X95886Y299532D01*
X95873Y299573D01*
X95819Y299646D01*
X95793Y299689D01*
X95777Y299702D01*
X95761Y299723D01*
X90761Y304723D01*
X90726Y304748D01*
X90697Y304779D01*
X90635Y304811D01*
X90577Y304852D01*
X90536Y304862D01*
X90498Y304882D01*
X90408Y304895D01*
X90360Y304908D01*
X90339Y304905D01*
X90313Y304909D01*
X84313Y304909D01*
X84271Y304902D01*
X84228Y304904D01*
X84161Y304882D01*
X84092Y304870D01*
X84055Y304848D01*
X84015Y304835D01*
X83942Y304781D01*
X83898Y304755D01*
X83885Y304739D01*
X83864Y304723D01*
X78864Y299723D01*
X78840Y299689D01*
X78808Y299660D01*
X78776Y299597D01*
X78736Y299539D01*
X78725Y299498D01*
X78706Y299460D01*
X78693Y299371D01*
X78680Y299322D01*
X78682Y299301D01*
X78678Y299275D01*
X78678Y291275D01*
X78686Y291233D01*
X78684Y291191D01*
X78705Y291124D01*
X78718Y291054D01*
X78740Y291018D01*
X78753Y290977D01*
X78806Y290904D01*
X78832Y290861D01*
X78848Y290848D01*
X78864Y290827D01*
X83864Y285827D01*
X83899Y285802D01*
X83928Y285771D01*
X83990Y285739D01*
X84048Y285698D01*
X84089Y285688D01*
X84127Y285668D01*
X84217Y285655D01*
X84266Y285643D01*
X84286Y285645D01*
X84313Y285641D01*
X90313Y285641D01*
X90354Y285648D01*
G37*
G36*
X398329Y436461D02*
X398329Y436461D01*
X398372Y436459D01*
X398439Y436480D01*
X398508Y436493D01*
X398545Y436515D01*
X398585Y436528D01*
X398658Y436581D01*
X398702Y436607D01*
X398715Y436623D01*
X398736Y436639D01*
X402148Y440052D01*
X402173Y440086D01*
X402204Y440115D01*
X402236Y440178D01*
X402277Y440236D01*
X402287Y440277D01*
X402307Y440315D01*
X402320Y440404D01*
X402333Y440453D01*
X402330Y440474D01*
X402334Y440500D01*
X402334Y448500D01*
X402327Y448542D01*
X402329Y448584D01*
X402317Y448620D01*
X402317Y448635D01*
X402305Y448664D01*
X402295Y448721D01*
X402273Y448757D01*
X402260Y448798D01*
X402239Y448826D01*
X402232Y448842D01*
X402205Y448872D01*
X402180Y448914D01*
X402164Y448927D01*
X402148Y448948D01*
X398736Y452361D01*
X398701Y452385D01*
X398672Y452417D01*
X398610Y452449D01*
X398552Y452489D01*
X398511Y452500D01*
X398473Y452519D01*
X398383Y452532D01*
X398335Y452545D01*
X398314Y452543D01*
X398288Y452547D01*
X389113Y452547D01*
X389071Y452539D01*
X389028Y452541D01*
X388961Y452520D01*
X388892Y452507D01*
X388855Y452486D01*
X388815Y452473D01*
X388742Y452419D01*
X388698Y452393D01*
X388685Y452377D01*
X388664Y452361D01*
X385252Y448948D01*
X385227Y448914D01*
X385196Y448885D01*
X385173Y448840D01*
X385149Y448810D01*
X385142Y448791D01*
X385123Y448764D01*
X385113Y448723D01*
X385093Y448685D01*
X385083Y448617D01*
X385077Y448598D01*
X385077Y448584D01*
X385068Y448547D01*
X385070Y448526D01*
X385066Y448500D01*
X385066Y440500D01*
X385073Y440458D01*
X385071Y440416D01*
X385093Y440349D01*
X385105Y440279D01*
X385127Y440243D01*
X385140Y440202D01*
X385194Y440129D01*
X385220Y440086D01*
X385236Y440073D01*
X385252Y440052D01*
X388664Y436639D01*
X388699Y436615D01*
X388728Y436583D01*
X388790Y436551D01*
X388848Y436511D01*
X388889Y436500D01*
X388927Y436481D01*
X389017Y436468D01*
X389066Y436455D01*
X389086Y436457D01*
X389113Y436453D01*
X398288Y436453D01*
X398329Y436461D01*
G37*
G36*
X347529Y436461D02*
X347529Y436461D01*
X347572Y436459D01*
X347639Y436480D01*
X347708Y436493D01*
X347745Y436515D01*
X347785Y436528D01*
X347858Y436581D01*
X347902Y436607D01*
X347915Y436623D01*
X347936Y436639D01*
X351348Y440052D01*
X351373Y440086D01*
X351404Y440115D01*
X351436Y440178D01*
X351477Y440236D01*
X351487Y440277D01*
X351507Y440315D01*
X351520Y440404D01*
X351533Y440453D01*
X351530Y440474D01*
X351534Y440500D01*
X351534Y448500D01*
X351527Y448542D01*
X351529Y448584D01*
X351517Y448620D01*
X351517Y448635D01*
X351505Y448664D01*
X351495Y448721D01*
X351473Y448757D01*
X351460Y448798D01*
X351439Y448826D01*
X351432Y448842D01*
X351405Y448872D01*
X351380Y448914D01*
X351364Y448927D01*
X351348Y448948D01*
X347936Y452361D01*
X347901Y452385D01*
X347872Y452417D01*
X347810Y452449D01*
X347752Y452489D01*
X347711Y452500D01*
X347673Y452519D01*
X347583Y452532D01*
X347535Y452545D01*
X347514Y452543D01*
X347488Y452547D01*
X338313Y452547D01*
X338271Y452539D01*
X338228Y452541D01*
X338161Y452520D01*
X338092Y452507D01*
X338055Y452486D01*
X338015Y452473D01*
X337942Y452419D01*
X337898Y452393D01*
X337885Y452377D01*
X337864Y452361D01*
X334452Y448948D01*
X334427Y448914D01*
X334396Y448885D01*
X334373Y448840D01*
X334349Y448810D01*
X334342Y448791D01*
X334323Y448764D01*
X334313Y448723D01*
X334293Y448685D01*
X334283Y448617D01*
X334277Y448598D01*
X334277Y448584D01*
X334268Y448547D01*
X334270Y448526D01*
X334266Y448500D01*
X334266Y440500D01*
X334273Y440458D01*
X334271Y440416D01*
X334293Y440349D01*
X334305Y440279D01*
X334327Y440243D01*
X334340Y440202D01*
X334394Y440129D01*
X334420Y440086D01*
X334436Y440073D01*
X334452Y440052D01*
X337864Y436639D01*
X337899Y436615D01*
X337928Y436583D01*
X337990Y436551D01*
X338048Y436511D01*
X338089Y436500D01*
X338127Y436481D01*
X338217Y436468D01*
X338266Y436455D01*
X338286Y436457D01*
X338313Y436453D01*
X347488Y436453D01*
X347529Y436461D01*
G37*
G36*
X372929Y436461D02*
X372929Y436461D01*
X372972Y436459D01*
X373039Y436480D01*
X373108Y436493D01*
X373145Y436515D01*
X373185Y436528D01*
X373258Y436581D01*
X373302Y436607D01*
X373315Y436623D01*
X373336Y436639D01*
X376748Y440052D01*
X376773Y440086D01*
X376804Y440115D01*
X376836Y440178D01*
X376877Y440236D01*
X376887Y440277D01*
X376907Y440315D01*
X376920Y440404D01*
X376933Y440453D01*
X376930Y440474D01*
X376934Y440500D01*
X376934Y448500D01*
X376927Y448542D01*
X376929Y448584D01*
X376917Y448620D01*
X376917Y448635D01*
X376905Y448664D01*
X376895Y448721D01*
X376873Y448757D01*
X376860Y448798D01*
X376839Y448826D01*
X376832Y448842D01*
X376805Y448872D01*
X376780Y448914D01*
X376764Y448927D01*
X376748Y448948D01*
X373336Y452361D01*
X373301Y452385D01*
X373272Y452417D01*
X373210Y452449D01*
X373152Y452489D01*
X373111Y452500D01*
X373073Y452519D01*
X372983Y452532D01*
X372935Y452545D01*
X372914Y452543D01*
X372888Y452547D01*
X363713Y452547D01*
X363671Y452539D01*
X363628Y452541D01*
X363561Y452520D01*
X363492Y452507D01*
X363455Y452486D01*
X363415Y452473D01*
X363342Y452419D01*
X363298Y452393D01*
X363285Y452377D01*
X363264Y452361D01*
X359852Y448948D01*
X359827Y448914D01*
X359796Y448885D01*
X359773Y448840D01*
X359749Y448810D01*
X359742Y448791D01*
X359723Y448764D01*
X359713Y448723D01*
X359693Y448685D01*
X359683Y448617D01*
X359677Y448598D01*
X359677Y448584D01*
X359668Y448547D01*
X359670Y448526D01*
X359666Y448500D01*
X359666Y440500D01*
X359673Y440458D01*
X359671Y440416D01*
X359693Y440349D01*
X359705Y440279D01*
X359727Y440243D01*
X359740Y440202D01*
X359794Y440129D01*
X359820Y440086D01*
X359836Y440073D01*
X359852Y440052D01*
X363264Y436639D01*
X363299Y436615D01*
X363328Y436583D01*
X363390Y436551D01*
X363448Y436511D01*
X363489Y436500D01*
X363527Y436481D01*
X363617Y436468D01*
X363666Y436455D01*
X363686Y436457D01*
X363713Y436453D01*
X372888Y436453D01*
X372929Y436461D01*
G37*
G36*
X440604Y448573D02*
X440604Y448573D01*
X440647Y448571D01*
X440714Y448593D01*
X440783Y448605D01*
X440820Y448627D01*
X440860Y448640D01*
X440933Y448694D01*
X440977Y448720D01*
X440990Y448736D01*
X441011Y448752D01*
X444423Y452164D01*
X444448Y452199D01*
X444479Y452228D01*
X444511Y452290D01*
X444552Y452348D01*
X444562Y452389D01*
X444582Y452427D01*
X444595Y452517D01*
X444608Y452566D01*
X444605Y452586D01*
X444609Y452613D01*
X444609Y461788D01*
X444602Y461829D01*
X444604Y461872D01*
X444582Y461939D01*
X444570Y462008D01*
X444548Y462045D01*
X444535Y462085D01*
X444481Y462158D01*
X444455Y462202D01*
X444439Y462215D01*
X444423Y462236D01*
X441011Y465648D01*
X440976Y465673D01*
X440947Y465704D01*
X440885Y465736D01*
X440827Y465777D01*
X440786Y465787D01*
X440748Y465807D01*
X440658Y465820D01*
X440610Y465833D01*
X440589Y465830D01*
X440563Y465834D01*
X432563Y465834D01*
X432521Y465827D01*
X432478Y465829D01*
X432411Y465807D01*
X432342Y465795D01*
X432305Y465773D01*
X432265Y465760D01*
X432192Y465706D01*
X432148Y465680D01*
X432135Y465664D01*
X432114Y465648D01*
X428702Y462236D01*
X428677Y462201D01*
X428646Y462172D01*
X428614Y462110D01*
X428573Y462052D01*
X428563Y462011D01*
X428543Y461973D01*
X428530Y461883D01*
X428518Y461835D01*
X428520Y461814D01*
X428516Y461788D01*
X428516Y452613D01*
X428523Y452571D01*
X428521Y452528D01*
X428543Y452461D01*
X428555Y452392D01*
X428577Y452355D01*
X428590Y452315D01*
X428644Y452242D01*
X428670Y452198D01*
X428686Y452185D01*
X428702Y452164D01*
X432114Y448752D01*
X432149Y448727D01*
X432178Y448696D01*
X432240Y448664D01*
X432298Y448623D01*
X432339Y448613D01*
X432377Y448593D01*
X432467Y448580D01*
X432516Y448568D01*
X432536Y448570D01*
X432563Y448566D01*
X440563Y448566D01*
X440604Y448573D01*
G37*
G36*
X466004Y448573D02*
X466004Y448573D01*
X466047Y448571D01*
X466114Y448593D01*
X466183Y448605D01*
X466220Y448627D01*
X466260Y448640D01*
X466333Y448694D01*
X466377Y448720D01*
X466390Y448736D01*
X466411Y448752D01*
X469823Y452164D01*
X469848Y452199D01*
X469879Y452228D01*
X469911Y452290D01*
X469952Y452348D01*
X469962Y452389D01*
X469982Y452427D01*
X469995Y452517D01*
X470008Y452566D01*
X470005Y452586D01*
X470009Y452613D01*
X470009Y461788D01*
X470002Y461829D01*
X470004Y461872D01*
X469982Y461939D01*
X469970Y462008D01*
X469948Y462045D01*
X469935Y462085D01*
X469881Y462158D01*
X469855Y462202D01*
X469839Y462215D01*
X469823Y462236D01*
X466411Y465648D01*
X466376Y465673D01*
X466347Y465704D01*
X466285Y465736D01*
X466227Y465777D01*
X466186Y465787D01*
X466148Y465807D01*
X466058Y465820D01*
X466010Y465833D01*
X465989Y465830D01*
X465963Y465834D01*
X457963Y465834D01*
X457921Y465827D01*
X457878Y465829D01*
X457811Y465807D01*
X457742Y465795D01*
X457705Y465773D01*
X457665Y465760D01*
X457592Y465706D01*
X457548Y465680D01*
X457535Y465664D01*
X457514Y465648D01*
X454102Y462236D01*
X454077Y462201D01*
X454046Y462172D01*
X454014Y462110D01*
X453973Y462052D01*
X453963Y462011D01*
X453943Y461973D01*
X453930Y461883D01*
X453918Y461835D01*
X453920Y461814D01*
X453916Y461788D01*
X453916Y452613D01*
X453923Y452571D01*
X453921Y452528D01*
X453943Y452461D01*
X453955Y452392D01*
X453977Y452355D01*
X453990Y452315D01*
X454044Y452242D01*
X454070Y452198D01*
X454086Y452185D01*
X454102Y452164D01*
X457514Y448752D01*
X457549Y448727D01*
X457578Y448696D01*
X457640Y448664D01*
X457698Y448623D01*
X457739Y448613D01*
X457777Y448593D01*
X457867Y448580D01*
X457916Y448568D01*
X457936Y448570D01*
X457963Y448566D01*
X465963Y448566D01*
X466004Y448573D01*
G37*
D10*
X0Y110000D02*
X0Y489000D01*
X580000Y489000D01*
X580000Y110000D01*
X265000Y439000D02*
X265008Y439614D01*
X265030Y440227D01*
X265068Y440839D01*
X265120Y441450D01*
X265188Y442060D01*
X265271Y442668D01*
X265368Y443274D01*
X265480Y443877D01*
X265607Y444478D01*
X265749Y445075D01*
X265906Y445668D01*
X266076Y446257D01*
X266262Y446842D01*
X266461Y447422D01*
X266675Y447997D01*
X266903Y448567D01*
X267145Y449131D01*
X267400Y449689D01*
X267669Y450240D01*
X267952Y450785D01*
X268248Y451322D01*
X268557Y451853D01*
X268879Y452375D01*
X269213Y452889D01*
X269560Y453395D01*
X269920Y453892D01*
X270291Y454381D01*
X270675Y454860D01*
X271070Y455329D01*
X271476Y455789D01*
X271894Y456239D01*
X272322Y456678D01*
X272761Y457106D01*
X273211Y457524D01*
X273671Y457930D01*
X274140Y458325D01*
X274619Y458709D01*
X275108Y459080D01*
X275605Y459440D01*
X276111Y459787D01*
X276625Y460121D01*
X277147Y460443D01*
X277678Y460752D01*
X278215Y461048D01*
X278760Y461331D01*
X279311Y461600D01*
X279869Y461855D01*
X280433Y462097D01*
X281003Y462325D01*
X281578Y462539D01*
X282158Y462738D01*
X282743Y462924D01*
X283332Y463094D01*
X283925Y463251D01*
X284522Y463393D01*
X285123Y463520D01*
X285726Y463632D01*
X286332Y463729D01*
X286940Y463812D01*
X287550Y463880D01*
X288161Y463932D01*
X288773Y463970D01*
X289386Y463992D01*
X290000Y464000D01*
X290614Y463992D01*
X291227Y463970D01*
X291839Y463932D01*
X292450Y463880D01*
X293060Y463812D01*
X293668Y463729D01*
X294274Y463632D01*
X294877Y463520D01*
X295478Y463393D01*
X296075Y463251D01*
X296668Y463094D01*
X297257Y462924D01*
X297842Y462738D01*
X298422Y462539D01*
X298997Y462325D01*
X299567Y462097D01*
X300131Y461855D01*
X300689Y461600D01*
X301240Y461331D01*
X301785Y461048D01*
X302322Y460752D01*
X302853Y460443D01*
X303375Y460121D01*
X303889Y459787D01*
X304395Y459440D01*
X304892Y459080D01*
X305381Y458709D01*
X305860Y458325D01*
X306329Y457930D01*
X306789Y457524D01*
X307239Y457106D01*
X307678Y456678D01*
X308106Y456239D01*
X308524Y455789D01*
X308930Y455329D01*
X309325Y454860D01*
X309709Y454381D01*
X310080Y453892D01*
X310440Y453395D01*
X310787Y452889D01*
X311121Y452375D01*
X311443Y451853D01*
X311752Y451322D01*
X312048Y450785D01*
X312331Y450240D01*
X312600Y449689D01*
X312855Y449131D01*
X313097Y448567D01*
X313325Y447997D01*
X313539Y447422D01*
X313738Y446842D01*
X313924Y446257D01*
X314094Y445668D01*
X314251Y445075D01*
X314393Y444478D01*
X314520Y443877D01*
X314632Y443274D01*
X314729Y442668D01*
X314812Y442060D01*
X314880Y441450D01*
X314932Y440839D01*
X314970Y440227D01*
X314992Y439614D01*
X315000Y439000D01*
X314992Y438386D01*
X314970Y437773D01*
X314932Y437161D01*
X314880Y436550D01*
X314812Y435940D01*
X314729Y435332D01*
X314632Y434726D01*
X314520Y434123D01*
X314393Y433522D01*
X314251Y432925D01*
X314094Y432332D01*
X313924Y431743D01*
X313738Y431158D01*
X313539Y430578D01*
X313325Y430003D01*
X313097Y429433D01*
X312855Y428869D01*
X312600Y428311D01*
X312331Y427760D01*
X312048Y427215D01*
X311752Y426678D01*
X311443Y426147D01*
X311121Y425625D01*
X310787Y425111D01*
X310440Y424605D01*
X310080Y424108D01*
X309709Y423619D01*
X309325Y423140D01*
X308930Y422671D01*
X308524Y422211D01*
X308106Y421761D01*
X307678Y421322D01*
X307239Y420894D01*
X306789Y420476D01*
X306329Y420070D01*
X305860Y419675D01*
X305381Y419291D01*
X304892Y418920D01*
X304395Y418560D01*
X303889Y418213D01*
X303375Y417879D01*
X302853Y417557D01*
X302322Y417248D01*
X301785Y416952D01*
X301240Y416669D01*
X300689Y416400D01*
X300131Y416145D01*
X299567Y415903D01*
X298997Y415675D01*
X298422Y415461D01*
X297842Y415262D01*
X297257Y415076D01*
X296668Y414906D01*
X296075Y414749D01*
X295478Y414607D01*
X294877Y414480D01*
X294274Y414368D01*
X293668Y414271D01*
X293060Y414188D01*
X292450Y414120D01*
X291839Y414068D01*
X291227Y414030D01*
X290614Y414008D01*
X290000Y414000D01*
X289386Y414008D01*
X288773Y414030D01*
X288161Y414068D01*
X287550Y414120D01*
X286940Y414188D01*
X286332Y414271D01*
X285726Y414368D01*
X285123Y414480D01*
X284522Y414607D01*
X283925Y414749D01*
X283332Y414906D01*
X282743Y415076D01*
X282158Y415262D01*
X281578Y415461D01*
X281003Y415675D01*
X280433Y415903D01*
X279869Y416145D01*
X279311Y416400D01*
X278760Y416669D01*
X278215Y416952D01*
X277678Y417248D01*
X277147Y417557D01*
X276625Y417879D01*
X276111Y418213D01*
X275605Y418560D01*
X275108Y418920D01*
X274619Y419291D01*
X274140Y419675D01*
X273671Y420070D01*
X273211Y420476D01*
X272761Y420894D01*
X272322Y421322D01*
X271894Y421761D01*
X271476Y422211D01*
X271070Y422671D01*
X270675Y423140D01*
X270291Y423619D01*
X269920Y424108D01*
X269560Y424605D01*
X269213Y425111D01*
X268879Y425625D01*
X268557Y426147D01*
X268248Y426678D01*
X267952Y427215D01*
X267669Y427760D01*
X267400Y428311D01*
X267145Y428869D01*
X266903Y429433D01*
X266675Y430003D01*
X266461Y430578D01*
X266262Y431158D01*
X266076Y431743D01*
X265906Y432332D01*
X265749Y432925D01*
X265607Y433522D01*
X265480Y434123D01*
X265368Y434726D01*
X265271Y435332D01*
X265188Y435940D01*
X265120Y436550D01*
X265068Y437161D01*
X265030Y437773D01*
X265008Y438386D01*
X265000Y439000D01*
D11*
X290000Y439000D03*
D12*
X348425Y756356D02*
X352940Y759968D01*
X352940Y743712D01*
X348425Y743712D02*
X357456Y743712D01*
X373087Y755904D02*
X373085Y756029D01*
X373079Y756154D01*
X373070Y756279D01*
X373056Y756403D01*
X373039Y756527D01*
X373018Y756651D01*
X372993Y756773D01*
X372964Y756895D01*
X372932Y757016D01*
X372896Y757136D01*
X372856Y757255D01*
X372813Y757372D01*
X372766Y757488D01*
X372715Y757603D01*
X372661Y757715D01*
X372603Y757827D01*
X372543Y757936D01*
X372478Y758043D01*
X372411Y758149D01*
X372340Y758252D01*
X372266Y758353D01*
X372189Y758452D01*
X372109Y758548D01*
X372026Y758642D01*
X371941Y758733D01*
X371852Y758822D01*
X371761Y758907D01*
X371667Y758990D01*
X371571Y759070D01*
X371472Y759147D01*
X371371Y759221D01*
X371268Y759292D01*
X371162Y759359D01*
X371055Y759424D01*
X370946Y759484D01*
X370834Y759542D01*
X370722Y759596D01*
X370607Y759647D01*
X370491Y759694D01*
X370374Y759737D01*
X370255Y759777D01*
X370135Y759813D01*
X370014Y759845D01*
X369892Y759874D01*
X369770Y759899D01*
X369646Y759920D01*
X369522Y759937D01*
X369398Y759951D01*
X369273Y759960D01*
X369148Y759966D01*
X369023Y759968D01*
X368880Y759966D01*
X368738Y759960D01*
X368595Y759950D01*
X368453Y759937D01*
X368312Y759919D01*
X368170Y759898D01*
X368030Y759873D01*
X367890Y759844D01*
X367751Y759811D01*
X367613Y759774D01*
X367476Y759734D01*
X367341Y759690D01*
X367206Y759642D01*
X367073Y759590D01*
X366941Y759535D01*
X366811Y759476D01*
X366683Y759414D01*
X366556Y759348D01*
X366431Y759279D01*
X366308Y759207D01*
X366188Y759131D01*
X366069Y759052D01*
X365952Y758969D01*
X365838Y758884D01*
X365726Y758795D01*
X365617Y758704D01*
X365510Y758609D01*
X365405Y758512D01*
X365304Y758411D01*
X365205Y758308D01*
X365109Y758203D01*
X365016Y758094D01*
X364926Y757983D01*
X364839Y757870D01*
X364755Y757755D01*
X364675Y757637D01*
X364597Y757517D01*
X364523Y757395D01*
X364453Y757271D01*
X364385Y757145D01*
X364322Y757017D01*
X364261Y756888D01*
X364204Y756757D01*
X364151Y756625D01*
X364102Y756491D01*
X364056Y756356D01*
X371732Y752743D02*
X371826Y752835D01*
X371916Y752929D01*
X372004Y753026D01*
X372089Y753126D01*
X372171Y753228D01*
X372250Y753333D01*
X372325Y753440D01*
X372397Y753549D01*
X372466Y753660D01*
X372532Y753774D01*
X372594Y753889D01*
X372653Y754006D01*
X372708Y754125D01*
X372759Y754245D01*
X372807Y754367D01*
X372852Y754490D01*
X372892Y754614D01*
X372929Y754740D01*
X372962Y754867D01*
X372991Y754994D01*
X373017Y755123D01*
X373038Y755252D01*
X373056Y755382D01*
X373069Y755512D01*
X373079Y755642D01*
X373085Y755773D01*
X373087Y755904D01*
X371732Y752743D02*
X364056Y743712D01*
X373087Y743712D01*
X379687Y756356D02*
X384202Y759968D01*
X384202Y743712D01*
X379687Y743712D02*
X388718Y743712D01*
X395457Y750034D02*
X406294Y750034D01*
X418001Y759968D02*
X418126Y759966D01*
X418251Y759960D01*
X418376Y759951D01*
X418500Y759937D01*
X418624Y759920D01*
X418748Y759899D01*
X418870Y759874D01*
X418992Y759845D01*
X419113Y759813D01*
X419233Y759777D01*
X419352Y759737D01*
X419469Y759694D01*
X419585Y759647D01*
X419700Y759596D01*
X419812Y759542D01*
X419924Y759484D01*
X420033Y759424D01*
X420140Y759359D01*
X420246Y759292D01*
X420349Y759221D01*
X420450Y759147D01*
X420549Y759070D01*
X420645Y758990D01*
X420739Y758907D01*
X420830Y758822D01*
X420919Y758733D01*
X421004Y758642D01*
X421087Y758548D01*
X421167Y758452D01*
X421244Y758353D01*
X421318Y758252D01*
X421389Y758149D01*
X421456Y758043D01*
X421521Y757936D01*
X421581Y757827D01*
X421639Y757715D01*
X421693Y757603D01*
X421744Y757488D01*
X421791Y757372D01*
X421834Y757255D01*
X421874Y757136D01*
X421910Y757016D01*
X421942Y756895D01*
X421971Y756773D01*
X421996Y756651D01*
X422017Y756527D01*
X422034Y756403D01*
X422048Y756279D01*
X422057Y756154D01*
X422063Y756029D01*
X422065Y755904D01*
X418001Y759968D02*
X417858Y759966D01*
X417716Y759960D01*
X417573Y759950D01*
X417431Y759937D01*
X417290Y759919D01*
X417148Y759898D01*
X417008Y759873D01*
X416868Y759844D01*
X416729Y759811D01*
X416591Y759774D01*
X416454Y759734D01*
X416319Y759690D01*
X416184Y759642D01*
X416051Y759590D01*
X415919Y759535D01*
X415789Y759476D01*
X415661Y759414D01*
X415534Y759348D01*
X415409Y759279D01*
X415286Y759207D01*
X415166Y759131D01*
X415047Y759052D01*
X414930Y758969D01*
X414816Y758884D01*
X414704Y758795D01*
X414595Y758704D01*
X414488Y758609D01*
X414383Y758512D01*
X414282Y758411D01*
X414183Y758308D01*
X414087Y758203D01*
X413994Y758094D01*
X413904Y757983D01*
X413817Y757870D01*
X413733Y757755D01*
X413653Y757637D01*
X413575Y757517D01*
X413501Y757395D01*
X413431Y757271D01*
X413363Y757145D01*
X413300Y757017D01*
X413239Y756888D01*
X413182Y756757D01*
X413129Y756625D01*
X413080Y756491D01*
X413034Y756356D01*
X420709Y752743D02*
X420803Y752835D01*
X420893Y752929D01*
X420981Y753026D01*
X421066Y753126D01*
X421148Y753228D01*
X421227Y753333D01*
X421302Y753440D01*
X421374Y753549D01*
X421443Y753660D01*
X421509Y753774D01*
X421571Y753889D01*
X421630Y754006D01*
X421685Y754125D01*
X421736Y754245D01*
X421784Y754367D01*
X421829Y754490D01*
X421869Y754614D01*
X421906Y754740D01*
X421939Y754867D01*
X421968Y754994D01*
X421994Y755123D01*
X422015Y755252D01*
X422033Y755382D01*
X422046Y755512D01*
X422056Y755642D01*
X422062Y755773D01*
X422064Y755904D01*
X420710Y752743D02*
X413034Y743712D01*
X422065Y743712D01*
X428804Y750034D02*
X439641Y750034D01*
X446380Y751840D02*
X446384Y752160D01*
X446395Y752479D01*
X446414Y752799D01*
X446441Y753117D01*
X446475Y753435D01*
X446517Y753752D01*
X446567Y754068D01*
X446624Y754383D01*
X446688Y754696D01*
X446760Y755008D01*
X446839Y755318D01*
X446926Y755625D01*
X447020Y755931D01*
X447121Y756234D01*
X447230Y756535D01*
X447345Y756833D01*
X447468Y757129D01*
X447598Y757421D01*
X447735Y757710D01*
X447735Y757711D02*
X447774Y757819D01*
X447817Y757926D01*
X447863Y758031D01*
X447914Y758135D01*
X447967Y758237D01*
X448024Y758337D01*
X448085Y758435D01*
X448149Y758530D01*
X448216Y758624D01*
X448287Y758715D01*
X448360Y758804D01*
X448437Y758890D01*
X448516Y758973D01*
X448598Y759054D01*
X448683Y759132D01*
X448771Y759206D01*
X448861Y759278D01*
X448953Y759346D01*
X449048Y759412D01*
X449145Y759474D01*
X449244Y759532D01*
X449346Y759588D01*
X449448Y759639D01*
X449553Y759687D01*
X449659Y759732D01*
X449767Y759773D01*
X449876Y759810D01*
X449986Y759843D01*
X450098Y759872D01*
X450210Y759898D01*
X450323Y759920D01*
X450437Y759937D01*
X450551Y759951D01*
X450666Y759961D01*
X450781Y759967D01*
X450896Y759969D01*
X450896Y759968D02*
X451011Y759966D01*
X451126Y759960D01*
X451241Y759950D01*
X451355Y759936D01*
X451469Y759919D01*
X451582Y759897D01*
X451694Y759871D01*
X451806Y759842D01*
X451916Y759809D01*
X452025Y759772D01*
X452133Y759731D01*
X452239Y759686D01*
X452344Y759638D01*
X452446Y759587D01*
X452547Y759531D01*
X452647Y759473D01*
X452744Y759411D01*
X452838Y759346D01*
X452931Y759277D01*
X453021Y759205D01*
X453109Y759131D01*
X453194Y759053D01*
X453276Y758972D01*
X453355Y758889D01*
X453432Y758803D01*
X453505Y758714D01*
X453576Y758623D01*
X453643Y758529D01*
X453707Y758434D01*
X453768Y758336D01*
X453825Y758236D01*
X453878Y758134D01*
X453929Y758030D01*
X453975Y757925D01*
X454018Y757818D01*
X454057Y757710D01*
X454056Y757710D02*
X454193Y757421D01*
X454323Y757129D01*
X454446Y756833D01*
X454561Y756535D01*
X454670Y756234D01*
X454771Y755931D01*
X454865Y755625D01*
X454952Y755318D01*
X455031Y755008D01*
X455103Y754696D01*
X455167Y754383D01*
X455224Y754068D01*
X455274Y753752D01*
X455316Y753435D01*
X455350Y753117D01*
X455377Y752799D01*
X455396Y752479D01*
X455407Y752160D01*
X455411Y751840D01*
X446380Y751840D02*
X446384Y751520D01*
X446395Y751201D01*
X446414Y750881D01*
X446441Y750563D01*
X446475Y750245D01*
X446517Y749928D01*
X446567Y749612D01*
X446624Y749297D01*
X446688Y748984D01*
X446760Y748672D01*
X446839Y748362D01*
X446926Y748055D01*
X447020Y747749D01*
X447121Y747446D01*
X447230Y747145D01*
X447345Y746847D01*
X447468Y746551D01*
X447598Y746259D01*
X447735Y745970D01*
X447774Y745862D01*
X447817Y745755D01*
X447863Y745650D01*
X447914Y745546D01*
X447967Y745444D01*
X448024Y745344D01*
X448085Y745246D01*
X448149Y745151D01*
X448216Y745057D01*
X448287Y744966D01*
X448360Y744877D01*
X448437Y744791D01*
X448516Y744708D01*
X448598Y744627D01*
X448683Y744549D01*
X448771Y744475D01*
X448861Y744403D01*
X448954Y744334D01*
X449048Y744269D01*
X449145Y744207D01*
X449245Y744149D01*
X449346Y744093D01*
X449448Y744042D01*
X449553Y743994D01*
X449659Y743949D01*
X449767Y743908D01*
X449876Y743871D01*
X449986Y743838D01*
X450098Y743809D01*
X450210Y743783D01*
X450323Y743761D01*
X450437Y743744D01*
X450551Y743730D01*
X450666Y743720D01*
X450781Y743714D01*
X450896Y743712D01*
X454056Y745970D02*
X454193Y746259D01*
X454323Y746551D01*
X454446Y746847D01*
X454561Y747145D01*
X454670Y747446D01*
X454771Y747749D01*
X454865Y748055D01*
X454952Y748362D01*
X455031Y748672D01*
X455103Y748984D01*
X455167Y749297D01*
X455224Y749612D01*
X455274Y749928D01*
X455316Y750245D01*
X455350Y750563D01*
X455377Y750881D01*
X455396Y751201D01*
X455407Y751520D01*
X455411Y751840D01*
X454057Y745970D02*
X454018Y745862D01*
X453975Y745755D01*
X453929Y745650D01*
X453878Y745546D01*
X453825Y745444D01*
X453768Y745344D01*
X453707Y745246D01*
X453643Y745151D01*
X453576Y745057D01*
X453505Y744966D01*
X453432Y744877D01*
X453355Y744791D01*
X453276Y744708D01*
X453194Y744627D01*
X453109Y744549D01*
X453021Y744475D01*
X452931Y744403D01*
X452838Y744334D01*
X452744Y744269D01*
X452647Y744207D01*
X452547Y744149D01*
X452446Y744093D01*
X452343Y744042D01*
X452239Y743994D01*
X452133Y743949D01*
X452025Y743908D01*
X451916Y743871D01*
X451806Y743838D01*
X451694Y743809D01*
X451582Y743783D01*
X451469Y743761D01*
X451355Y743744D01*
X451241Y743730D01*
X451126Y743720D01*
X451011Y743714D01*
X450896Y743712D01*
X447283Y747324D02*
X454508Y756356D01*
X462011Y756356D02*
X466527Y759968D01*
X466527Y743712D01*
X471042Y743712D02*
X462011Y743712D01*
X477782Y750034D02*
X488619Y750034D01*
X495358Y751840D02*
X495362Y752160D01*
X495373Y752479D01*
X495392Y752799D01*
X495419Y753117D01*
X495453Y753435D01*
X495495Y753752D01*
X495545Y754068D01*
X495602Y754383D01*
X495666Y754696D01*
X495738Y755008D01*
X495817Y755318D01*
X495904Y755625D01*
X495998Y755931D01*
X496099Y756234D01*
X496208Y756535D01*
X496323Y756833D01*
X496446Y757129D01*
X496576Y757421D01*
X496713Y757710D01*
X496712Y757711D02*
X496751Y757819D01*
X496794Y757926D01*
X496840Y758031D01*
X496891Y758135D01*
X496944Y758237D01*
X497001Y758337D01*
X497062Y758435D01*
X497126Y758530D01*
X497193Y758624D01*
X497264Y758715D01*
X497337Y758804D01*
X497414Y758890D01*
X497493Y758973D01*
X497575Y759054D01*
X497660Y759132D01*
X497748Y759206D01*
X497838Y759278D01*
X497930Y759346D01*
X498025Y759412D01*
X498122Y759474D01*
X498221Y759532D01*
X498323Y759588D01*
X498425Y759639D01*
X498530Y759687D01*
X498636Y759732D01*
X498744Y759773D01*
X498853Y759810D01*
X498963Y759843D01*
X499075Y759872D01*
X499187Y759898D01*
X499300Y759920D01*
X499414Y759937D01*
X499528Y759951D01*
X499643Y759961D01*
X499758Y759967D01*
X499873Y759969D01*
X499873Y759968D02*
X499988Y759966D01*
X500103Y759960D01*
X500218Y759950D01*
X500332Y759936D01*
X500446Y759919D01*
X500559Y759897D01*
X500671Y759871D01*
X500783Y759842D01*
X500893Y759809D01*
X501002Y759772D01*
X501110Y759731D01*
X501216Y759686D01*
X501321Y759638D01*
X501423Y759587D01*
X501524Y759531D01*
X501624Y759473D01*
X501721Y759411D01*
X501815Y759346D01*
X501908Y759277D01*
X501998Y759205D01*
X502086Y759131D01*
X502171Y759053D01*
X502253Y758972D01*
X502332Y758889D01*
X502409Y758803D01*
X502482Y758714D01*
X502553Y758623D01*
X502620Y758529D01*
X502684Y758434D01*
X502745Y758336D01*
X502802Y758236D01*
X502855Y758134D01*
X502906Y758030D01*
X502952Y757925D01*
X502995Y757818D01*
X503034Y757710D01*
X503171Y757421D01*
X503301Y757129D01*
X503424Y756833D01*
X503539Y756535D01*
X503648Y756234D01*
X503749Y755931D01*
X503843Y755625D01*
X503930Y755318D01*
X504009Y755008D01*
X504081Y754696D01*
X504145Y754383D01*
X504202Y754068D01*
X504252Y753752D01*
X504294Y753435D01*
X504328Y753117D01*
X504355Y752799D01*
X504374Y752479D01*
X504385Y752160D01*
X504389Y751840D01*
X495358Y751840D02*
X495362Y751520D01*
X495373Y751201D01*
X495392Y750881D01*
X495419Y750563D01*
X495453Y750245D01*
X495495Y749928D01*
X495545Y749612D01*
X495602Y749297D01*
X495666Y748984D01*
X495738Y748672D01*
X495817Y748362D01*
X495904Y748055D01*
X495998Y747749D01*
X496099Y747446D01*
X496208Y747145D01*
X496323Y746847D01*
X496446Y746551D01*
X496576Y746259D01*
X496713Y745970D01*
X496712Y745970D02*
X496751Y745862D01*
X496794Y745755D01*
X496840Y745650D01*
X496891Y745546D01*
X496944Y745444D01*
X497001Y745344D01*
X497062Y745246D01*
X497126Y745151D01*
X497193Y745057D01*
X497264Y744966D01*
X497337Y744877D01*
X497414Y744791D01*
X497493Y744708D01*
X497575Y744627D01*
X497660Y744549D01*
X497748Y744475D01*
X497838Y744403D01*
X497931Y744334D01*
X498025Y744269D01*
X498122Y744207D01*
X498222Y744149D01*
X498323Y744093D01*
X498425Y744042D01*
X498530Y743994D01*
X498636Y743949D01*
X498744Y743908D01*
X498853Y743871D01*
X498963Y743838D01*
X499075Y743809D01*
X499187Y743783D01*
X499300Y743761D01*
X499414Y743744D01*
X499528Y743730D01*
X499643Y743720D01*
X499758Y743714D01*
X499873Y743712D01*
X503034Y745970D02*
X503171Y746259D01*
X503301Y746551D01*
X503424Y746847D01*
X503539Y747145D01*
X503648Y747446D01*
X503749Y747749D01*
X503843Y748055D01*
X503930Y748362D01*
X504009Y748672D01*
X504081Y748984D01*
X504145Y749297D01*
X504202Y749612D01*
X504252Y749928D01*
X504294Y750245D01*
X504328Y750563D01*
X504355Y750881D01*
X504374Y751201D01*
X504385Y751520D01*
X504389Y751840D01*
X503034Y745970D02*
X502995Y745862D01*
X502952Y745755D01*
X502906Y745650D01*
X502855Y745546D01*
X502802Y745444D01*
X502745Y745344D01*
X502684Y745246D01*
X502620Y745151D01*
X502553Y745057D01*
X502482Y744966D01*
X502409Y744877D01*
X502332Y744791D01*
X502253Y744708D01*
X502171Y744627D01*
X502086Y744549D01*
X501998Y744475D01*
X501908Y744403D01*
X501815Y744334D01*
X501721Y744269D01*
X501624Y744207D01*
X501524Y744149D01*
X501423Y744093D01*
X501320Y744042D01*
X501216Y743994D01*
X501110Y743949D01*
X501002Y743908D01*
X500893Y743871D01*
X500783Y743838D01*
X500671Y743809D01*
X500559Y743783D01*
X500446Y743761D01*
X500332Y743744D01*
X500218Y743730D01*
X500103Y743720D01*
X499988Y743714D01*
X499873Y743712D01*
X496261Y747324D02*
X503486Y756356D01*
X510989Y756356D02*
X515505Y759968D01*
X515505Y743712D01*
X520020Y743712D02*
X510989Y743712D01*
X525995Y743712D02*
X525995Y744615D01*
X526898Y744615D01*
X526898Y743712D01*
X525995Y743712D01*
X532873Y743712D02*
X538292Y743712D01*
X538410Y743714D01*
X538528Y743720D01*
X538646Y743729D01*
X538763Y743743D01*
X538880Y743760D01*
X538997Y743781D01*
X539112Y743806D01*
X539227Y743835D01*
X539341Y743868D01*
X539453Y743904D01*
X539564Y743944D01*
X539674Y743987D01*
X539783Y744034D01*
X539890Y744084D01*
X539995Y744139D01*
X540098Y744196D01*
X540199Y744257D01*
X540299Y744321D01*
X540396Y744388D01*
X540491Y744458D01*
X540583Y744532D01*
X540674Y744608D01*
X540761Y744688D01*
X540846Y744770D01*
X540928Y744855D01*
X541008Y744942D01*
X541084Y745033D01*
X541158Y745125D01*
X541228Y745220D01*
X541295Y745317D01*
X541359Y745417D01*
X541420Y745518D01*
X541477Y745621D01*
X541532Y745726D01*
X541582Y745833D01*
X541629Y745942D01*
X541672Y746052D01*
X541712Y746163D01*
X541748Y746275D01*
X541781Y746389D01*
X541810Y746504D01*
X541835Y746619D01*
X541856Y746736D01*
X541873Y746853D01*
X541887Y746970D01*
X541896Y747088D01*
X541902Y747206D01*
X541904Y747324D01*
X541904Y749131D01*
X541902Y749249D01*
X541896Y749367D01*
X541887Y749485D01*
X541873Y749602D01*
X541856Y749719D01*
X541835Y749836D01*
X541810Y749951D01*
X541781Y750066D01*
X541748Y750180D01*
X541712Y750292D01*
X541672Y750403D01*
X541629Y750513D01*
X541582Y750622D01*
X541532Y750729D01*
X541477Y750834D01*
X541420Y750937D01*
X541359Y751038D01*
X541295Y751138D01*
X541228Y751235D01*
X541158Y751330D01*
X541084Y751422D01*
X541008Y751513D01*
X540928Y751600D01*
X540846Y751685D01*
X540761Y751767D01*
X540674Y751847D01*
X540583Y751923D01*
X540491Y751997D01*
X540396Y752067D01*
X540299Y752134D01*
X540199Y752198D01*
X540098Y752259D01*
X539995Y752316D01*
X539890Y752371D01*
X539783Y752421D01*
X539674Y752468D01*
X539564Y752511D01*
X539453Y752551D01*
X539341Y752587D01*
X539227Y752620D01*
X539112Y752649D01*
X538997Y752674D01*
X538880Y752695D01*
X538763Y752712D01*
X538646Y752726D01*
X538528Y752735D01*
X538410Y752741D01*
X538292Y752743D01*
X532873Y752743D01*
X532873Y759968D01*
X541904Y759968D01*
X297378Y711962D02*
X292862Y711962D01*
X297378Y711962D02*
X297511Y711964D01*
X297643Y711970D01*
X297775Y711980D01*
X297907Y711993D01*
X298039Y712011D01*
X298169Y712032D01*
X298300Y712057D01*
X298429Y712086D01*
X298557Y712119D01*
X298685Y712155D01*
X298811Y712195D01*
X298936Y712239D01*
X299060Y712287D01*
X299182Y712338D01*
X299303Y712393D01*
X299422Y712451D01*
X299540Y712513D01*
X299655Y712578D01*
X299769Y712647D01*
X299880Y712718D01*
X299989Y712794D01*
X300096Y712872D01*
X300201Y712953D01*
X300303Y713038D01*
X300403Y713125D01*
X300500Y713215D01*
X300595Y713308D01*
X300686Y713404D01*
X300775Y713502D01*
X300861Y713603D01*
X300944Y713707D01*
X301024Y713813D01*
X301100Y713921D01*
X301174Y714031D01*
X301244Y714144D01*
X301311Y714258D01*
X301374Y714375D01*
X301434Y714493D01*
X301491Y714613D01*
X301544Y714735D01*
X301593Y714858D01*
X301639Y714982D01*
X301681Y715108D01*
X301719Y715235D01*
X301754Y715363D01*
X301785Y715492D01*
X301812Y715621D01*
X301835Y715752D01*
X301855Y715883D01*
X301870Y716015D01*
X301882Y716147D01*
X301890Y716279D01*
X301894Y716412D01*
X301894Y716544D01*
X301890Y716677D01*
X301882Y716809D01*
X301870Y716941D01*
X301855Y717073D01*
X301835Y717204D01*
X301812Y717335D01*
X301785Y717464D01*
X301754Y717593D01*
X301719Y717721D01*
X301681Y717848D01*
X301639Y717974D01*
X301593Y718098D01*
X301544Y718221D01*
X301491Y718343D01*
X301434Y718463D01*
X301374Y718581D01*
X301311Y718698D01*
X301244Y718812D01*
X301174Y718925D01*
X301100Y719035D01*
X301024Y719143D01*
X300944Y719249D01*
X300861Y719353D01*
X300775Y719454D01*
X300686Y719552D01*
X300595Y719648D01*
X300500Y719741D01*
X300403Y719831D01*
X300303Y719918D01*
X300201Y720003D01*
X300096Y720084D01*
X299989Y720162D01*
X299880Y720238D01*
X299769Y720309D01*
X299655Y720378D01*
X299540Y720443D01*
X299422Y720505D01*
X299303Y720563D01*
X299182Y720618D01*
X299060Y720669D01*
X298936Y720717D01*
X298811Y720761D01*
X298685Y720801D01*
X298557Y720837D01*
X298429Y720870D01*
X298300Y720899D01*
X298169Y720924D01*
X298039Y720945D01*
X297907Y720963D01*
X297775Y720976D01*
X297643Y720986D01*
X297511Y720992D01*
X297378Y720994D01*
X298281Y728218D02*
X292862Y728218D01*
X298281Y728218D02*
X298400Y728216D01*
X298520Y728210D01*
X298639Y728200D01*
X298757Y728186D01*
X298876Y728169D01*
X298993Y728147D01*
X299110Y728122D01*
X299225Y728092D01*
X299340Y728059D01*
X299454Y728022D01*
X299566Y727982D01*
X299677Y727937D01*
X299786Y727889D01*
X299894Y727838D01*
X300000Y727783D01*
X300104Y727724D01*
X300206Y727662D01*
X300306Y727597D01*
X300404Y727528D01*
X300500Y727456D01*
X300593Y727381D01*
X300683Y727304D01*
X300771Y727223D01*
X300856Y727139D01*
X300938Y727052D01*
X301018Y726963D01*
X301094Y726871D01*
X301168Y726777D01*
X301238Y726680D01*
X301305Y726582D01*
X301369Y726481D01*
X301429Y726377D01*
X301486Y726272D01*
X301539Y726165D01*
X301589Y726057D01*
X301635Y725947D01*
X301677Y725835D01*
X301716Y725722D01*
X301751Y725608D01*
X301782Y725493D01*
X301810Y725376D01*
X301833Y725259D01*
X301853Y725142D01*
X301869Y725023D01*
X301881Y724904D01*
X301889Y724785D01*
X301893Y724666D01*
X301893Y724546D01*
X301889Y724427D01*
X301881Y724308D01*
X301869Y724189D01*
X301853Y724070D01*
X301833Y723953D01*
X301810Y723836D01*
X301782Y723719D01*
X301751Y723604D01*
X301716Y723490D01*
X301677Y723377D01*
X301635Y723265D01*
X301589Y723155D01*
X301539Y723047D01*
X301486Y722940D01*
X301429Y722835D01*
X301369Y722731D01*
X301305Y722630D01*
X301238Y722532D01*
X301168Y722435D01*
X301094Y722341D01*
X301018Y722249D01*
X300938Y722160D01*
X300856Y722073D01*
X300771Y721989D01*
X300683Y721908D01*
X300593Y721831D01*
X300500Y721756D01*
X300404Y721684D01*
X300306Y721615D01*
X300206Y721550D01*
X300104Y721488D01*
X300000Y721429D01*
X299894Y721374D01*
X299786Y721323D01*
X299677Y721275D01*
X299566Y721230D01*
X299454Y721190D01*
X299340Y721153D01*
X299225Y721120D01*
X299110Y721090D01*
X298993Y721065D01*
X298876Y721043D01*
X298757Y721026D01*
X298639Y721012D01*
X298520Y721002D01*
X298400Y720996D01*
X298281Y720994D01*
X298281Y720993D02*
X294668Y720993D01*
X308493Y711962D02*
X313912Y711962D01*
X314030Y711964D01*
X314148Y711970D01*
X314266Y711979D01*
X314383Y711993D01*
X314500Y712010D01*
X314617Y712031D01*
X314732Y712056D01*
X314847Y712085D01*
X314961Y712118D01*
X315073Y712154D01*
X315184Y712194D01*
X315294Y712237D01*
X315403Y712284D01*
X315510Y712334D01*
X315615Y712389D01*
X315718Y712446D01*
X315819Y712507D01*
X315919Y712571D01*
X316016Y712638D01*
X316111Y712708D01*
X316203Y712782D01*
X316294Y712858D01*
X316381Y712938D01*
X316466Y713020D01*
X316548Y713105D01*
X316628Y713192D01*
X316704Y713283D01*
X316778Y713375D01*
X316848Y713470D01*
X316915Y713567D01*
X316979Y713667D01*
X317040Y713768D01*
X317097Y713871D01*
X317152Y713976D01*
X317202Y714083D01*
X317249Y714192D01*
X317292Y714302D01*
X317332Y714413D01*
X317368Y714525D01*
X317401Y714639D01*
X317430Y714754D01*
X317455Y714869D01*
X317476Y714986D01*
X317493Y715103D01*
X317507Y715220D01*
X317516Y715338D01*
X317522Y715456D01*
X317524Y715574D01*
X317524Y717381D01*
X317522Y717499D01*
X317516Y717617D01*
X317507Y717735D01*
X317493Y717852D01*
X317476Y717969D01*
X317455Y718086D01*
X317430Y718201D01*
X317401Y718316D01*
X317368Y718430D01*
X317332Y718542D01*
X317292Y718653D01*
X317249Y718763D01*
X317202Y718872D01*
X317152Y718979D01*
X317097Y719084D01*
X317040Y719187D01*
X316979Y719288D01*
X316915Y719388D01*
X316848Y719485D01*
X316778Y719580D01*
X316704Y719672D01*
X316628Y719763D01*
X316548Y719850D01*
X316466Y719935D01*
X316381Y720017D01*
X316294Y720097D01*
X316203Y720173D01*
X316111Y720247D01*
X316016Y720317D01*
X315919Y720384D01*
X315819Y720448D01*
X315718Y720509D01*
X315615Y720566D01*
X315510Y720621D01*
X315403Y720671D01*
X315294Y720718D01*
X315184Y720761D01*
X315073Y720801D01*
X314961Y720837D01*
X314847Y720870D01*
X314732Y720899D01*
X314617Y720924D01*
X314500Y720945D01*
X314383Y720962D01*
X314266Y720976D01*
X314148Y720985D01*
X314030Y720991D01*
X313912Y720993D01*
X308493Y720993D01*
X308493Y728218D01*
X317524Y728218D01*
X325019Y722799D02*
X325019Y706543D01*
X332243Y715574D02*
X332243Y722799D01*
X332243Y715574D02*
X332241Y715455D01*
X332235Y715335D01*
X332225Y715216D01*
X332211Y715098D01*
X332194Y714979D01*
X332172Y714862D01*
X332147Y714745D01*
X332117Y714630D01*
X332084Y714515D01*
X332047Y714401D01*
X332007Y714289D01*
X331962Y714178D01*
X331914Y714069D01*
X331863Y713961D01*
X331808Y713855D01*
X331749Y713751D01*
X331687Y713649D01*
X331622Y713549D01*
X331553Y713451D01*
X331481Y713355D01*
X331406Y713262D01*
X331329Y713172D01*
X331248Y713084D01*
X331164Y712999D01*
X331077Y712917D01*
X330988Y712837D01*
X330896Y712761D01*
X330802Y712687D01*
X330705Y712617D01*
X330607Y712550D01*
X330506Y712486D01*
X330402Y712426D01*
X330297Y712369D01*
X330190Y712316D01*
X330082Y712266D01*
X329972Y712220D01*
X329860Y712178D01*
X329747Y712139D01*
X329633Y712104D01*
X329518Y712073D01*
X329401Y712045D01*
X329284Y712022D01*
X329167Y712002D01*
X329048Y711986D01*
X328929Y711974D01*
X328810Y711966D01*
X328691Y711962D01*
X328571Y711962D01*
X328452Y711966D01*
X328333Y711974D01*
X328214Y711986D01*
X328095Y712002D01*
X327978Y712022D01*
X327861Y712045D01*
X327744Y712073D01*
X327629Y712104D01*
X327515Y712139D01*
X327402Y712178D01*
X327290Y712220D01*
X327180Y712266D01*
X327072Y712316D01*
X326965Y712369D01*
X326860Y712426D01*
X326756Y712486D01*
X326655Y712550D01*
X326557Y712617D01*
X326460Y712687D01*
X326366Y712761D01*
X326274Y712837D01*
X326185Y712917D01*
X326098Y712999D01*
X326014Y713084D01*
X325933Y713172D01*
X325856Y713262D01*
X325781Y713355D01*
X325709Y713451D01*
X325640Y713549D01*
X325575Y713649D01*
X325513Y713751D01*
X325454Y713855D01*
X325399Y713961D01*
X325348Y714069D01*
X325300Y714178D01*
X325255Y714289D01*
X325215Y714401D01*
X325178Y714515D01*
X325145Y714630D01*
X325115Y714745D01*
X325090Y714862D01*
X325068Y714979D01*
X325051Y715098D01*
X325037Y715216D01*
X325027Y715335D01*
X325021Y715455D01*
X325019Y715574D01*
X332243Y715574D02*
X332243Y713768D01*
X332244Y713768D02*
X332246Y713685D01*
X332252Y713601D01*
X332261Y713518D01*
X332275Y713436D01*
X332292Y713355D01*
X332313Y713274D01*
X332338Y713194D01*
X332366Y713116D01*
X332398Y713039D01*
X332433Y712963D01*
X332472Y712889D01*
X332515Y712817D01*
X332560Y712747D01*
X332609Y712680D01*
X332661Y712614D01*
X332715Y712551D01*
X332773Y712491D01*
X332833Y712433D01*
X332896Y712379D01*
X332962Y712327D01*
X333029Y712278D01*
X333099Y712233D01*
X333171Y712190D01*
X333245Y712151D01*
X333321Y712116D01*
X333398Y712084D01*
X333476Y712056D01*
X333556Y712031D01*
X333637Y712010D01*
X333718Y711993D01*
X333800Y711979D01*
X333883Y711970D01*
X333967Y711964D01*
X334050Y711962D01*
X339895Y711962D02*
X339895Y722799D01*
X348023Y722799D01*
X348124Y722797D01*
X348225Y722791D01*
X348326Y722782D01*
X348427Y722769D01*
X348527Y722752D01*
X348626Y722731D01*
X348724Y722707D01*
X348821Y722679D01*
X348918Y722647D01*
X349013Y722612D01*
X349106Y722573D01*
X349198Y722531D01*
X349289Y722485D01*
X349378Y722436D01*
X349464Y722384D01*
X349549Y722328D01*
X349632Y722270D01*
X349712Y722208D01*
X349790Y722143D01*
X349866Y722076D01*
X349939Y722006D01*
X350009Y721933D01*
X350076Y721857D01*
X350141Y721779D01*
X350203Y721699D01*
X350261Y721616D01*
X350317Y721531D01*
X350369Y721445D01*
X350418Y721356D01*
X350464Y721265D01*
X350506Y721173D01*
X350545Y721080D01*
X350580Y720985D01*
X350612Y720888D01*
X350640Y720791D01*
X350664Y720693D01*
X350685Y720594D01*
X350702Y720494D01*
X350715Y720393D01*
X350724Y720292D01*
X350730Y720191D01*
X350732Y720090D01*
X350732Y711962D01*
X345313Y711962D02*
X345313Y722799D01*
X526429Y728218D02*
X526554Y728216D01*
X526679Y728210D01*
X526804Y728201D01*
X526928Y728187D01*
X527052Y728170D01*
X527176Y728149D01*
X527298Y728124D01*
X527420Y728095D01*
X527541Y728063D01*
X527661Y728027D01*
X527780Y727987D01*
X527897Y727944D01*
X528013Y727897D01*
X528128Y727846D01*
X528240Y727792D01*
X528352Y727734D01*
X528461Y727674D01*
X528568Y727609D01*
X528674Y727542D01*
X528777Y727471D01*
X528878Y727397D01*
X528977Y727320D01*
X529073Y727240D01*
X529167Y727157D01*
X529258Y727072D01*
X529347Y726983D01*
X529432Y726892D01*
X529515Y726798D01*
X529595Y726702D01*
X529672Y726603D01*
X529746Y726502D01*
X529817Y726399D01*
X529884Y726293D01*
X529949Y726186D01*
X530009Y726077D01*
X530067Y725965D01*
X530121Y725853D01*
X530172Y725738D01*
X530219Y725622D01*
X530262Y725505D01*
X530302Y725386D01*
X530338Y725266D01*
X530370Y725145D01*
X530399Y725023D01*
X530424Y724901D01*
X530445Y724777D01*
X530462Y724653D01*
X530476Y724529D01*
X530485Y724404D01*
X530491Y724279D01*
X530493Y724154D01*
X526429Y728218D02*
X526286Y728216D01*
X526144Y728210D01*
X526001Y728200D01*
X525859Y728187D01*
X525718Y728169D01*
X525576Y728148D01*
X525436Y728123D01*
X525296Y728094D01*
X525157Y728061D01*
X525019Y728024D01*
X524882Y727984D01*
X524747Y727940D01*
X524612Y727892D01*
X524479Y727840D01*
X524347Y727785D01*
X524217Y727726D01*
X524089Y727664D01*
X523962Y727598D01*
X523837Y727529D01*
X523714Y727457D01*
X523594Y727381D01*
X523475Y727302D01*
X523358Y727219D01*
X523244Y727134D01*
X523132Y727045D01*
X523023Y726954D01*
X522916Y726859D01*
X522811Y726762D01*
X522710Y726661D01*
X522611Y726558D01*
X522515Y726453D01*
X522422Y726344D01*
X522332Y726233D01*
X522245Y726120D01*
X522161Y726005D01*
X522081Y725887D01*
X522003Y725767D01*
X521929Y725645D01*
X521859Y725521D01*
X521791Y725395D01*
X521728Y725267D01*
X521667Y725138D01*
X521610Y725007D01*
X521557Y724875D01*
X521508Y724741D01*
X521462Y724606D01*
X529138Y720993D02*
X529232Y721085D01*
X529322Y721179D01*
X529410Y721276D01*
X529495Y721376D01*
X529577Y721478D01*
X529656Y721583D01*
X529731Y721690D01*
X529803Y721799D01*
X529872Y721910D01*
X529938Y722024D01*
X530000Y722139D01*
X530059Y722256D01*
X530114Y722375D01*
X530165Y722495D01*
X530213Y722617D01*
X530258Y722740D01*
X530298Y722864D01*
X530335Y722990D01*
X530368Y723117D01*
X530397Y723244D01*
X530423Y723373D01*
X530444Y723502D01*
X530462Y723632D01*
X530475Y723762D01*
X530485Y723892D01*
X530491Y724023D01*
X530493Y724154D01*
X529138Y720993D02*
X521462Y711962D01*
X530493Y711962D01*
X454540Y664718D02*
X450025Y661106D01*
X454540Y664718D02*
X454540Y648462D01*
X450025Y648462D02*
X459056Y648462D01*
X465030Y648462D02*
X465030Y649365D01*
X465933Y649365D01*
X465933Y648462D01*
X465030Y648462D01*
X471908Y648462D02*
X477327Y648462D01*
X477445Y648464D01*
X477563Y648470D01*
X477681Y648479D01*
X477798Y648493D01*
X477915Y648510D01*
X478032Y648531D01*
X478147Y648556D01*
X478262Y648585D01*
X478376Y648618D01*
X478488Y648654D01*
X478599Y648694D01*
X478709Y648737D01*
X478818Y648784D01*
X478925Y648834D01*
X479030Y648889D01*
X479133Y648946D01*
X479234Y649007D01*
X479334Y649071D01*
X479431Y649138D01*
X479526Y649208D01*
X479618Y649282D01*
X479709Y649358D01*
X479796Y649438D01*
X479881Y649520D01*
X479963Y649605D01*
X480043Y649692D01*
X480119Y649783D01*
X480193Y649875D01*
X480263Y649970D01*
X480330Y650067D01*
X480394Y650167D01*
X480455Y650268D01*
X480512Y650371D01*
X480567Y650476D01*
X480617Y650583D01*
X480664Y650692D01*
X480707Y650802D01*
X480747Y650913D01*
X480783Y651025D01*
X480816Y651139D01*
X480845Y651254D01*
X480870Y651369D01*
X480891Y651486D01*
X480908Y651603D01*
X480922Y651720D01*
X480931Y651838D01*
X480937Y651956D01*
X480939Y652074D01*
X480939Y653881D01*
X480937Y653999D01*
X480931Y654117D01*
X480922Y654235D01*
X480908Y654352D01*
X480891Y654469D01*
X480870Y654586D01*
X480845Y654701D01*
X480816Y654816D01*
X480783Y654930D01*
X480747Y655042D01*
X480707Y655153D01*
X480664Y655263D01*
X480617Y655372D01*
X480567Y655479D01*
X480512Y655584D01*
X480455Y655687D01*
X480394Y655788D01*
X480330Y655888D01*
X480263Y655985D01*
X480193Y656080D01*
X480119Y656172D01*
X480043Y656263D01*
X479963Y656350D01*
X479881Y656435D01*
X479796Y656517D01*
X479709Y656597D01*
X479618Y656673D01*
X479526Y656747D01*
X479431Y656817D01*
X479334Y656884D01*
X479234Y656948D01*
X479133Y657009D01*
X479030Y657066D01*
X478925Y657121D01*
X478818Y657171D01*
X478709Y657218D01*
X478599Y657261D01*
X478488Y657301D01*
X478376Y657337D01*
X478262Y657370D01*
X478147Y657399D01*
X478032Y657424D01*
X477915Y657445D01*
X477798Y657462D01*
X477681Y657476D01*
X477563Y657485D01*
X477445Y657491D01*
X477327Y657493D01*
X471908Y657493D01*
X471908Y664718D01*
X480939Y664718D01*
X76715Y736868D02*
X72200Y736868D01*
X76715Y736869D02*
X76848Y736867D01*
X76980Y736861D01*
X77112Y736851D01*
X77244Y736838D01*
X77376Y736820D01*
X77506Y736799D01*
X77637Y736774D01*
X77766Y736745D01*
X77894Y736712D01*
X78022Y736676D01*
X78148Y736636D01*
X78273Y736592D01*
X78397Y736544D01*
X78519Y736493D01*
X78640Y736438D01*
X78759Y736380D01*
X78877Y736318D01*
X78992Y736253D01*
X79106Y736184D01*
X79217Y736113D01*
X79326Y736037D01*
X79433Y735959D01*
X79538Y735878D01*
X79640Y735793D01*
X79740Y735706D01*
X79837Y735616D01*
X79932Y735523D01*
X80023Y735427D01*
X80112Y735329D01*
X80198Y735228D01*
X80281Y735124D01*
X80361Y735018D01*
X80437Y734910D01*
X80511Y734800D01*
X80581Y734687D01*
X80648Y734573D01*
X80711Y734456D01*
X80771Y734338D01*
X80828Y734218D01*
X80881Y734096D01*
X80930Y733973D01*
X80976Y733849D01*
X81018Y733723D01*
X81056Y733596D01*
X81091Y733468D01*
X81122Y733339D01*
X81149Y733210D01*
X81172Y733079D01*
X81192Y732948D01*
X81207Y732816D01*
X81219Y732684D01*
X81227Y732552D01*
X81231Y732419D01*
X81231Y732287D01*
X81227Y732154D01*
X81219Y732022D01*
X81207Y731890D01*
X81192Y731758D01*
X81172Y731627D01*
X81149Y731496D01*
X81122Y731367D01*
X81091Y731238D01*
X81056Y731110D01*
X81018Y730983D01*
X80976Y730857D01*
X80930Y730733D01*
X80881Y730610D01*
X80828Y730488D01*
X80771Y730368D01*
X80711Y730250D01*
X80648Y730133D01*
X80581Y730019D01*
X80511Y729906D01*
X80437Y729796D01*
X80361Y729688D01*
X80281Y729582D01*
X80198Y729478D01*
X80112Y729377D01*
X80023Y729279D01*
X79932Y729183D01*
X79837Y729090D01*
X79740Y729000D01*
X79640Y728913D01*
X79538Y728828D01*
X79433Y728747D01*
X79326Y728669D01*
X79217Y728593D01*
X79106Y728522D01*
X78992Y728453D01*
X78877Y728388D01*
X78759Y728326D01*
X78640Y728268D01*
X78519Y728213D01*
X78397Y728162D01*
X78273Y728114D01*
X78148Y728070D01*
X78022Y728030D01*
X77894Y727994D01*
X77766Y727961D01*
X77637Y727932D01*
X77506Y727907D01*
X77376Y727886D01*
X77244Y727868D01*
X77112Y727855D01*
X76980Y727845D01*
X76848Y727839D01*
X76715Y727837D01*
X72200Y727837D01*
X72200Y744093D01*
X76715Y744093D01*
X76834Y744091D01*
X76954Y744085D01*
X77073Y744075D01*
X77191Y744061D01*
X77310Y744044D01*
X77427Y744022D01*
X77544Y743997D01*
X77659Y743967D01*
X77774Y743934D01*
X77888Y743897D01*
X78000Y743857D01*
X78111Y743812D01*
X78220Y743764D01*
X78328Y743713D01*
X78434Y743658D01*
X78538Y743599D01*
X78640Y743537D01*
X78740Y743472D01*
X78838Y743403D01*
X78934Y743331D01*
X79027Y743256D01*
X79117Y743179D01*
X79205Y743098D01*
X79290Y743014D01*
X79372Y742927D01*
X79452Y742838D01*
X79528Y742746D01*
X79602Y742652D01*
X79672Y742555D01*
X79739Y742457D01*
X79803Y742356D01*
X79863Y742252D01*
X79920Y742147D01*
X79973Y742040D01*
X80023Y741932D01*
X80069Y741822D01*
X80111Y741710D01*
X80150Y741597D01*
X80185Y741483D01*
X80216Y741368D01*
X80244Y741251D01*
X80267Y741134D01*
X80287Y741017D01*
X80303Y740898D01*
X80315Y740779D01*
X80323Y740660D01*
X80327Y740541D01*
X80327Y740421D01*
X80323Y740302D01*
X80315Y740183D01*
X80303Y740064D01*
X80287Y739945D01*
X80267Y739828D01*
X80244Y739711D01*
X80216Y739594D01*
X80185Y739479D01*
X80150Y739365D01*
X80111Y739252D01*
X80069Y739140D01*
X80023Y739030D01*
X79973Y738922D01*
X79920Y738815D01*
X79863Y738710D01*
X79803Y738606D01*
X79739Y738505D01*
X79672Y738407D01*
X79602Y738310D01*
X79528Y738216D01*
X79452Y738124D01*
X79372Y738035D01*
X79290Y737948D01*
X79205Y737864D01*
X79117Y737783D01*
X79027Y737706D01*
X78934Y737631D01*
X78838Y737559D01*
X78740Y737490D01*
X78640Y737425D01*
X78538Y737363D01*
X78434Y737304D01*
X78328Y737249D01*
X78220Y737198D01*
X78111Y737150D01*
X78000Y737105D01*
X77888Y737065D01*
X77774Y737028D01*
X77659Y736995D01*
X77544Y736965D01*
X77427Y736940D01*
X77310Y736918D01*
X77191Y736901D01*
X77073Y736887D01*
X76954Y736877D01*
X76834Y736871D01*
X76715Y736869D01*
X86474Y744093D02*
X90086Y727837D01*
X93698Y738674D01*
X97311Y727837D01*
X100923Y744093D01*
X111414Y744093D02*
X105995Y727837D01*
X116833Y727837D02*
X111414Y744093D01*
X115478Y731901D02*
X107350Y731901D01*
X126102Y727837D02*
X129715Y727837D01*
X126102Y727837D02*
X125984Y727839D01*
X125866Y727845D01*
X125748Y727854D01*
X125631Y727868D01*
X125514Y727885D01*
X125397Y727906D01*
X125282Y727931D01*
X125167Y727960D01*
X125053Y727993D01*
X124941Y728029D01*
X124830Y728069D01*
X124720Y728112D01*
X124611Y728159D01*
X124504Y728209D01*
X124399Y728264D01*
X124296Y728321D01*
X124195Y728382D01*
X124095Y728446D01*
X123998Y728513D01*
X123903Y728583D01*
X123811Y728657D01*
X123720Y728733D01*
X123633Y728813D01*
X123548Y728895D01*
X123466Y728980D01*
X123386Y729067D01*
X123310Y729158D01*
X123236Y729250D01*
X123166Y729345D01*
X123099Y729442D01*
X123035Y729542D01*
X122974Y729643D01*
X122917Y729746D01*
X122862Y729851D01*
X122812Y729958D01*
X122765Y730067D01*
X122722Y730177D01*
X122682Y730288D01*
X122646Y730400D01*
X122613Y730514D01*
X122584Y730629D01*
X122559Y730744D01*
X122538Y730861D01*
X122521Y730978D01*
X122507Y731095D01*
X122498Y731213D01*
X122492Y731331D01*
X122490Y731449D01*
X122490Y740481D01*
X122491Y740481D02*
X122493Y740599D01*
X122499Y740717D01*
X122508Y740835D01*
X122522Y740952D01*
X122539Y741069D01*
X122560Y741186D01*
X122585Y741301D01*
X122614Y741416D01*
X122647Y741530D01*
X122683Y741642D01*
X122723Y741753D01*
X122766Y741863D01*
X122813Y741972D01*
X122863Y742079D01*
X122917Y742184D01*
X122975Y742287D01*
X123036Y742388D01*
X123100Y742488D01*
X123167Y742585D01*
X123237Y742680D01*
X123311Y742772D01*
X123387Y742863D01*
X123467Y742950D01*
X123549Y743035D01*
X123634Y743117D01*
X123721Y743197D01*
X123812Y743273D01*
X123904Y743347D01*
X123999Y743417D01*
X124096Y743484D01*
X124196Y743548D01*
X124297Y743609D01*
X124400Y743666D01*
X124505Y743720D01*
X124612Y743771D01*
X124721Y743818D01*
X124831Y743861D01*
X124942Y743901D01*
X125054Y743937D01*
X125168Y743970D01*
X125283Y743999D01*
X125398Y744024D01*
X125515Y744045D01*
X125632Y744062D01*
X125749Y744076D01*
X125867Y744085D01*
X125985Y744091D01*
X126103Y744093D01*
X126102Y744093D02*
X129715Y744093D01*
X136288Y744093D02*
X136288Y727837D01*
X136288Y734159D02*
X145319Y744093D01*
X139900Y737771D02*
X145319Y727837D01*
D13*
X182563Y280988D03*
X182563Y306388D03*
D14*
X64775Y190500D03*
X144775Y190500D03*
X64775Y171450D03*
X144775Y171450D03*
D15*
X206375Y169863D03*
D16*
X231775Y169863D03*
X257175Y169863D03*
X282575Y169863D03*
X307975Y169863D03*
X333375Y169863D03*
X358775Y169863D03*
X384175Y169863D03*
X409575Y169863D03*
X434975Y169863D03*
X460375Y169863D03*
X485775Y169863D03*
X511175Y169863D03*
X536575Y169863D03*
X536575Y322263D03*
X511175Y322263D03*
X485775Y322263D03*
X460375Y322263D03*
X434975Y322263D03*
X409575Y322263D03*
X384175Y322263D03*
X358775Y322263D03*
X333375Y322263D03*
X307975Y322263D03*
X282575Y322263D03*
X257175Y322263D03*
X231775Y322263D03*
X206375Y322263D03*
D10*
X5000Y0D02*
X575000Y0D01*
X5000Y0D02*
X0Y5000D01*
X0Y110000D01*
X575000Y0D02*
X580000Y5000D01*
X580000Y110000D01*
D17*
X290000Y45000D03*
D18*
X423863Y457200D03*
D19*
X449263Y457200D03*
X474663Y457200D03*
D18*
X393700Y457200D03*
D19*
X393700Y431800D03*
X368300Y457200D03*
X368300Y431800D03*
X342900Y457200D03*
X342900Y431800D03*
D20*
X112713Y291275D03*
X112713Y299275D03*
X201613Y416688D03*
X201613Y424688D03*
X138113Y291275D03*
X138113Y299275D03*
X228600Y416688D03*
X228600Y424688D03*
X36513Y291275D03*
X36513Y299275D03*
X61913Y291275D03*
X61913Y299275D03*
X87313Y291275D03*
X87313Y299275D03*
X174625Y416688D03*
X174625Y424688D03*
D13*
X44450Y217488D03*
X146050Y217488D03*
X174625Y342900D03*
X174625Y444500D03*
X201613Y342900D03*
X201613Y444500D03*
X228600Y342900D03*
X228600Y444500D03*
D21*
X36513Y369888D03*
D22*
X61913Y369888D03*
X112713Y446088D03*
X87313Y446088D03*
X87313Y369888D03*
X112713Y369888D03*
X138113Y446088D03*
X138113Y369888D03*
X61913Y446088D03*
X36513Y446088D03*
X36513Y420688D03*
X61913Y420688D03*
X87313Y420688D03*
X112713Y420688D03*
X138113Y420688D03*
D21*
X561500Y423500D03*
D22*
X561500Y468500D03*
X496500Y423500D03*
X496500Y468500D03*
D23*
X13046Y464566D02*
X13046Y479298D01*
X8954Y479298D02*
X17138Y479298D01*
X22828Y475206D02*
X22828Y468658D01*
X22828Y475206D02*
X22830Y475333D01*
X22836Y475460D01*
X22846Y475587D01*
X22860Y475714D01*
X22877Y475840D01*
X22899Y475965D01*
X22925Y476090D01*
X22954Y476214D01*
X22987Y476337D01*
X23024Y476458D01*
X23065Y476579D01*
X23110Y476698D01*
X23158Y476816D01*
X23210Y476932D01*
X23265Y477047D01*
X23324Y477159D01*
X23387Y477270D01*
X23453Y477379D01*
X23522Y477486D01*
X23595Y477591D01*
X23670Y477693D01*
X23749Y477793D01*
X23831Y477890D01*
X23916Y477985D01*
X24004Y478077D01*
X24095Y478166D01*
X24188Y478253D01*
X24284Y478336D01*
X24383Y478417D01*
X24484Y478494D01*
X24587Y478568D01*
X24693Y478639D01*
X24801Y478707D01*
X24911Y478771D01*
X25023Y478832D01*
X25136Y478889D01*
X25252Y478943D01*
X25369Y478993D01*
X25487Y479039D01*
X25607Y479082D01*
X25728Y479121D01*
X25851Y479156D01*
X25974Y479187D01*
X26098Y479215D01*
X26223Y479238D01*
X26349Y479258D01*
X26475Y479274D01*
X26602Y479286D01*
X26729Y479294D01*
X26856Y479298D01*
X26984Y479298D01*
X27111Y479294D01*
X27238Y479286D01*
X27365Y479274D01*
X27491Y479258D01*
X27617Y479238D01*
X27742Y479215D01*
X27866Y479187D01*
X27989Y479156D01*
X28112Y479121D01*
X28233Y479082D01*
X28353Y479039D01*
X28471Y478993D01*
X28588Y478943D01*
X28704Y478889D01*
X28817Y478832D01*
X28929Y478771D01*
X29039Y478707D01*
X29147Y478639D01*
X29253Y478568D01*
X29356Y478494D01*
X29457Y478417D01*
X29556Y478336D01*
X29652Y478253D01*
X29745Y478166D01*
X29836Y478077D01*
X29924Y477985D01*
X30009Y477890D01*
X30091Y477793D01*
X30170Y477693D01*
X30245Y477591D01*
X30318Y477486D01*
X30387Y477379D01*
X30453Y477270D01*
X30516Y477159D01*
X30575Y477047D01*
X30630Y476932D01*
X30682Y476816D01*
X30730Y476698D01*
X30775Y476579D01*
X30816Y476458D01*
X30853Y476337D01*
X30886Y476214D01*
X30915Y476090D01*
X30941Y475965D01*
X30963Y475840D01*
X30980Y475714D01*
X30994Y475587D01*
X31004Y475460D01*
X31010Y475333D01*
X31012Y475206D01*
X31013Y475206D02*
X31013Y468658D01*
X31012Y468658D02*
X31010Y468531D01*
X31004Y468404D01*
X30994Y468277D01*
X30980Y468150D01*
X30963Y468024D01*
X30941Y467899D01*
X30915Y467774D01*
X30886Y467650D01*
X30853Y467527D01*
X30816Y467406D01*
X30775Y467285D01*
X30730Y467166D01*
X30682Y467048D01*
X30630Y466932D01*
X30575Y466817D01*
X30516Y466705D01*
X30453Y466594D01*
X30387Y466485D01*
X30318Y466378D01*
X30245Y466273D01*
X30170Y466171D01*
X30091Y466071D01*
X30009Y465974D01*
X29924Y465879D01*
X29836Y465787D01*
X29745Y465698D01*
X29652Y465611D01*
X29556Y465528D01*
X29457Y465447D01*
X29356Y465370D01*
X29253Y465296D01*
X29147Y465225D01*
X29039Y465157D01*
X28929Y465093D01*
X28817Y465032D01*
X28704Y464975D01*
X28588Y464921D01*
X28471Y464871D01*
X28353Y464825D01*
X28233Y464782D01*
X28112Y464743D01*
X27989Y464708D01*
X27866Y464677D01*
X27742Y464649D01*
X27617Y464626D01*
X27491Y464606D01*
X27365Y464590D01*
X27238Y464578D01*
X27111Y464570D01*
X26984Y464566D01*
X26856Y464566D01*
X26729Y464570D01*
X26602Y464578D01*
X26475Y464590D01*
X26349Y464606D01*
X26223Y464626D01*
X26098Y464649D01*
X25974Y464677D01*
X25851Y464708D01*
X25728Y464743D01*
X25607Y464782D01*
X25487Y464825D01*
X25369Y464871D01*
X25252Y464921D01*
X25136Y464975D01*
X25023Y465032D01*
X24911Y465093D01*
X24801Y465157D01*
X24693Y465225D01*
X24587Y465296D01*
X24484Y465370D01*
X24383Y465447D01*
X24284Y465528D01*
X24188Y465611D01*
X24095Y465698D01*
X24004Y465787D01*
X23916Y465879D01*
X23831Y465974D01*
X23749Y466071D01*
X23670Y466171D01*
X23595Y466273D01*
X23522Y466378D01*
X23453Y466485D01*
X23387Y466594D01*
X23324Y466705D01*
X23265Y466817D01*
X23210Y466932D01*
X23158Y467048D01*
X23110Y467166D01*
X23065Y467285D01*
X23024Y467406D01*
X22987Y467527D01*
X22954Y467650D01*
X22925Y467774D01*
X22899Y467899D01*
X22877Y468024D01*
X22860Y468150D01*
X22846Y468277D01*
X22836Y468404D01*
X22830Y468531D01*
X22828Y468658D01*
X38450Y464566D02*
X38450Y479298D01*
X42543Y479298D01*
X42670Y479296D01*
X42797Y479290D01*
X42924Y479280D01*
X43051Y479266D01*
X43177Y479249D01*
X43302Y479227D01*
X43427Y479201D01*
X43551Y479172D01*
X43674Y479139D01*
X43795Y479102D01*
X43916Y479061D01*
X44035Y479016D01*
X44153Y478968D01*
X44269Y478916D01*
X44384Y478861D01*
X44496Y478802D01*
X44607Y478739D01*
X44716Y478673D01*
X44823Y478604D01*
X44928Y478531D01*
X45030Y478456D01*
X45130Y478377D01*
X45227Y478295D01*
X45322Y478210D01*
X45414Y478122D01*
X45503Y478031D01*
X45590Y477938D01*
X45673Y477842D01*
X45754Y477743D01*
X45831Y477642D01*
X45905Y477539D01*
X45976Y477433D01*
X46044Y477325D01*
X46108Y477215D01*
X46169Y477103D01*
X46226Y476990D01*
X46280Y476874D01*
X46330Y476757D01*
X46376Y476639D01*
X46419Y476519D01*
X46458Y476398D01*
X46493Y476275D01*
X46524Y476152D01*
X46552Y476028D01*
X46575Y475903D01*
X46595Y475777D01*
X46611Y475651D01*
X46623Y475524D01*
X46631Y475397D01*
X46635Y475270D01*
X46635Y475142D01*
X46631Y475015D01*
X46623Y474888D01*
X46611Y474761D01*
X46595Y474635D01*
X46575Y474509D01*
X46552Y474384D01*
X46524Y474260D01*
X46493Y474137D01*
X46458Y474014D01*
X46419Y473893D01*
X46376Y473773D01*
X46330Y473655D01*
X46280Y473538D01*
X46226Y473422D01*
X46169Y473309D01*
X46108Y473197D01*
X46044Y473087D01*
X45976Y472979D01*
X45905Y472873D01*
X45831Y472770D01*
X45754Y472669D01*
X45673Y472570D01*
X45590Y472474D01*
X45503Y472381D01*
X45414Y472290D01*
X45322Y472202D01*
X45227Y472117D01*
X45130Y472035D01*
X45030Y471956D01*
X44928Y471881D01*
X44823Y471808D01*
X44716Y471739D01*
X44607Y471673D01*
X44496Y471610D01*
X44384Y471551D01*
X44269Y471496D01*
X44153Y471444D01*
X44035Y471396D01*
X43916Y471351D01*
X43795Y471310D01*
X43674Y471273D01*
X43551Y471240D01*
X43427Y471211D01*
X43302Y471185D01*
X43177Y471163D01*
X43051Y471146D01*
X42924Y471132D01*
X42797Y471122D01*
X42670Y471116D01*
X42543Y471114D01*
X38450Y471114D01*
D24*
X18824Y626928D02*
X15085Y628424D01*
X15085Y628425D02*
X15005Y628459D01*
X14927Y628496D01*
X14850Y628537D01*
X14776Y628582D01*
X14703Y628629D01*
X14633Y628680D01*
X14565Y628734D01*
X14500Y628791D01*
X14437Y628851D01*
X14377Y628914D01*
X14319Y628979D01*
X14265Y629047D01*
X14214Y629117D01*
X14166Y629189D01*
X14121Y629264D01*
X14080Y629340D01*
X14042Y629418D01*
X14008Y629498D01*
X13977Y629579D01*
X13950Y629661D01*
X13926Y629745D01*
X13907Y629829D01*
X13891Y629915D01*
X13879Y630001D01*
X13871Y630087D01*
X13867Y630174D01*
X13866Y630261D01*
X13870Y630347D01*
X13877Y630434D01*
X13889Y630520D01*
X13904Y630605D01*
X13923Y630690D01*
X13945Y630774D01*
X13972Y630856D01*
X14002Y630938D01*
X14035Y631018D01*
X14073Y631096D01*
X14113Y631173D01*
X14158Y631248D01*
X14205Y631320D01*
X14256Y631391D01*
X14309Y631459D01*
X14366Y631525D01*
X14426Y631588D01*
X14488Y631648D01*
X14553Y631706D01*
X14621Y631760D01*
X14690Y631812D01*
X14763Y631860D01*
X14837Y631905D01*
X14913Y631947D01*
X14991Y631985D01*
X15070Y632019D01*
X15151Y632051D01*
X15234Y632078D01*
X15317Y632102D01*
X15402Y632122D01*
X15487Y632138D01*
X15573Y632150D01*
X15659Y632159D01*
X15746Y632163D01*
X15833Y632164D01*
X15832Y632163D02*
X16037Y632158D01*
X16240Y632147D01*
X16444Y632132D01*
X16647Y632112D01*
X16850Y632087D01*
X17052Y632057D01*
X17253Y632023D01*
X17454Y631983D01*
X17653Y631939D01*
X17851Y631890D01*
X18048Y631836D01*
X18244Y631778D01*
X18438Y631714D01*
X18631Y631646D01*
X18821Y631574D01*
X19011Y631497D01*
X19198Y631415D01*
X18824Y626928D02*
X18904Y626894D01*
X18982Y626857D01*
X19059Y626816D01*
X19133Y626771D01*
X19206Y626724D01*
X19276Y626673D01*
X19344Y626619D01*
X19409Y626562D01*
X19472Y626502D01*
X19532Y626439D01*
X19590Y626374D01*
X19644Y626306D01*
X19695Y626236D01*
X19743Y626164D01*
X19788Y626089D01*
X19829Y626013D01*
X19867Y625935D01*
X19901Y625855D01*
X19932Y625774D01*
X19959Y625692D01*
X19983Y625608D01*
X20002Y625524D01*
X20018Y625438D01*
X20030Y625352D01*
X20038Y625266D01*
X20042Y625179D01*
X20043Y625092D01*
X20039Y625006D01*
X20032Y624919D01*
X20020Y624833D01*
X20005Y624748D01*
X19986Y624663D01*
X19964Y624579D01*
X19937Y624497D01*
X19907Y624415D01*
X19874Y624335D01*
X19836Y624257D01*
X19796Y624180D01*
X19751Y624105D01*
X19704Y624033D01*
X19653Y623962D01*
X19600Y623894D01*
X19543Y623828D01*
X19483Y623765D01*
X19421Y623705D01*
X19356Y623647D01*
X19288Y623593D01*
X19219Y623541D01*
X19146Y623493D01*
X19072Y623448D01*
X18996Y623406D01*
X18918Y623368D01*
X18839Y623334D01*
X18758Y623302D01*
X18675Y623275D01*
X18592Y623251D01*
X18507Y623231D01*
X18422Y623215D01*
X18336Y623203D01*
X18250Y623194D01*
X18163Y623190D01*
X18076Y623189D01*
X18077Y623189D02*
X17777Y623197D01*
X17477Y623212D01*
X17178Y623234D01*
X16879Y623263D01*
X16582Y623299D01*
X16285Y623342D01*
X15989Y623393D01*
X15695Y623450D01*
X15402Y623514D01*
X15110Y623585D01*
X14820Y623663D01*
X14533Y623747D01*
X14247Y623839D01*
X13963Y623937D01*
X24614Y632164D02*
X29101Y632164D01*
X26110Y636651D02*
X26110Y625433D01*
X26112Y625340D01*
X26118Y625248D01*
X26127Y625155D01*
X26141Y625064D01*
X26158Y624972D01*
X26179Y624882D01*
X26203Y624793D01*
X26232Y624704D01*
X26264Y624617D01*
X26299Y624532D01*
X26338Y624447D01*
X26380Y624365D01*
X26426Y624284D01*
X26475Y624206D01*
X26528Y624129D01*
X26583Y624055D01*
X26642Y623983D01*
X26703Y623913D01*
X26767Y623846D01*
X26834Y623782D01*
X26904Y623721D01*
X26976Y623662D01*
X27050Y623607D01*
X27127Y623554D01*
X27205Y623505D01*
X27286Y623459D01*
X27368Y623417D01*
X27453Y623378D01*
X27538Y623343D01*
X27625Y623311D01*
X27714Y623282D01*
X27803Y623258D01*
X27893Y623237D01*
X27985Y623220D01*
X28076Y623206D01*
X28169Y623197D01*
X28261Y623191D01*
X28354Y623189D01*
X29101Y623189D01*
X34496Y626181D02*
X34496Y629172D01*
X34495Y629172D02*
X34497Y629280D01*
X34503Y629388D01*
X34513Y629495D01*
X34526Y629603D01*
X34544Y629709D01*
X34565Y629815D01*
X34590Y629920D01*
X34619Y630024D01*
X34652Y630127D01*
X34688Y630229D01*
X34728Y630329D01*
X34772Y630428D01*
X34819Y630526D01*
X34869Y630621D01*
X34923Y630715D01*
X34981Y630806D01*
X35041Y630896D01*
X35105Y630983D01*
X35172Y631067D01*
X35242Y631150D01*
X35315Y631230D01*
X35391Y631307D01*
X35469Y631381D01*
X35550Y631452D01*
X35634Y631521D01*
X35720Y631586D01*
X35808Y631648D01*
X35898Y631707D01*
X35991Y631763D01*
X36086Y631815D01*
X36182Y631864D01*
X36280Y631910D01*
X36380Y631951D01*
X36481Y631990D01*
X36583Y632024D01*
X36687Y632055D01*
X36791Y632082D01*
X36897Y632105D01*
X37003Y632125D01*
X37110Y632140D01*
X37217Y632152D01*
X37325Y632160D01*
X37433Y632164D01*
X37541Y632164D01*
X37649Y632160D01*
X37757Y632152D01*
X37864Y632140D01*
X37971Y632125D01*
X38077Y632105D01*
X38183Y632082D01*
X38287Y632055D01*
X38391Y632024D01*
X38493Y631990D01*
X38594Y631951D01*
X38694Y631910D01*
X38792Y631864D01*
X38888Y631815D01*
X38983Y631763D01*
X39076Y631707D01*
X39166Y631648D01*
X39254Y631586D01*
X39340Y631521D01*
X39424Y631452D01*
X39505Y631381D01*
X39583Y631307D01*
X39659Y631230D01*
X39732Y631150D01*
X39802Y631067D01*
X39869Y630983D01*
X39933Y630896D01*
X39993Y630806D01*
X40051Y630715D01*
X40105Y630621D01*
X40155Y630526D01*
X40202Y630428D01*
X40246Y630329D01*
X40286Y630229D01*
X40322Y630127D01*
X40355Y630024D01*
X40384Y629920D01*
X40409Y629815D01*
X40430Y629709D01*
X40448Y629603D01*
X40461Y629495D01*
X40471Y629388D01*
X40477Y629280D01*
X40479Y629172D01*
X40479Y626181D01*
X40477Y626073D01*
X40471Y625965D01*
X40461Y625858D01*
X40448Y625750D01*
X40430Y625644D01*
X40409Y625538D01*
X40384Y625433D01*
X40355Y625329D01*
X40322Y625226D01*
X40286Y625124D01*
X40246Y625024D01*
X40202Y624925D01*
X40155Y624827D01*
X40105Y624732D01*
X40051Y624638D01*
X39993Y624547D01*
X39933Y624457D01*
X39869Y624370D01*
X39802Y624286D01*
X39732Y624203D01*
X39659Y624123D01*
X39583Y624046D01*
X39505Y623972D01*
X39424Y623901D01*
X39340Y623832D01*
X39254Y623767D01*
X39166Y623705D01*
X39076Y623646D01*
X38983Y623590D01*
X38888Y623538D01*
X38792Y623489D01*
X38694Y623443D01*
X38594Y623402D01*
X38493Y623363D01*
X38391Y623329D01*
X38287Y623298D01*
X38183Y623271D01*
X38077Y623248D01*
X37971Y623228D01*
X37864Y623213D01*
X37757Y623201D01*
X37649Y623193D01*
X37541Y623189D01*
X37433Y623189D01*
X37325Y623193D01*
X37217Y623201D01*
X37110Y623213D01*
X37003Y623228D01*
X36897Y623248D01*
X36791Y623271D01*
X36687Y623298D01*
X36583Y623329D01*
X36481Y623363D01*
X36380Y623402D01*
X36280Y623443D01*
X36182Y623489D01*
X36086Y623538D01*
X35991Y623590D01*
X35898Y623646D01*
X35808Y623705D01*
X35720Y623767D01*
X35634Y623832D01*
X35550Y623901D01*
X35469Y623972D01*
X35391Y624046D01*
X35315Y624123D01*
X35242Y624203D01*
X35172Y624286D01*
X35105Y624370D01*
X35041Y624457D01*
X34981Y624547D01*
X34923Y624638D01*
X34869Y624732D01*
X34819Y624827D01*
X34772Y624925D01*
X34728Y625024D01*
X34688Y625124D01*
X34652Y625226D01*
X34619Y625329D01*
X34590Y625433D01*
X34565Y625538D01*
X34544Y625644D01*
X34526Y625750D01*
X34513Y625858D01*
X34503Y625965D01*
X34497Y626073D01*
X34495Y626181D01*
X46901Y632164D02*
X46901Y618702D01*
X46901Y632164D02*
X50641Y632164D01*
X50734Y632162D01*
X50826Y632156D01*
X50919Y632147D01*
X51010Y632133D01*
X51102Y632116D01*
X51192Y632095D01*
X51281Y632071D01*
X51370Y632042D01*
X51457Y632010D01*
X51542Y631975D01*
X51627Y631936D01*
X51709Y631894D01*
X51790Y631848D01*
X51868Y631799D01*
X51945Y631746D01*
X52019Y631691D01*
X52091Y631632D01*
X52161Y631571D01*
X52228Y631507D01*
X52292Y631440D01*
X52353Y631370D01*
X52412Y631298D01*
X52467Y631224D01*
X52520Y631147D01*
X52569Y631069D01*
X52615Y630988D01*
X52657Y630906D01*
X52696Y630821D01*
X52731Y630736D01*
X52763Y630649D01*
X52792Y630560D01*
X52816Y630471D01*
X52837Y630381D01*
X52854Y630289D01*
X52868Y630198D01*
X52877Y630105D01*
X52883Y630013D01*
X52885Y629920D01*
X52885Y625433D01*
X52883Y625340D01*
X52877Y625248D01*
X52868Y625155D01*
X52854Y625064D01*
X52837Y624973D01*
X52816Y624882D01*
X52792Y624793D01*
X52763Y624704D01*
X52731Y624617D01*
X52696Y624532D01*
X52657Y624447D01*
X52615Y624365D01*
X52569Y624284D01*
X52520Y624206D01*
X52467Y624129D01*
X52412Y624055D01*
X52353Y623983D01*
X52292Y623913D01*
X52228Y623846D01*
X52161Y623782D01*
X52091Y623721D01*
X52019Y623662D01*
X51945Y623607D01*
X51868Y623554D01*
X51790Y623505D01*
X51709Y623459D01*
X51627Y623417D01*
X51542Y623378D01*
X51457Y623343D01*
X51370Y623311D01*
X51281Y623282D01*
X51192Y623258D01*
X51102Y623237D01*
X51010Y623220D01*
X50919Y623206D01*
X50826Y623197D01*
X50734Y623191D01*
X50641Y623189D01*
X46901Y623189D01*
X59464Y623189D02*
X59464Y632164D01*
X66195Y632164D01*
X66288Y632162D01*
X66380Y632156D01*
X66473Y632147D01*
X66564Y632133D01*
X66656Y632116D01*
X66746Y632095D01*
X66835Y632071D01*
X66924Y632042D01*
X67011Y632010D01*
X67096Y631975D01*
X67181Y631936D01*
X67263Y631894D01*
X67344Y631848D01*
X67422Y631799D01*
X67499Y631746D01*
X67573Y631691D01*
X67645Y631632D01*
X67715Y631571D01*
X67782Y631507D01*
X67846Y631440D01*
X67907Y631370D01*
X67966Y631298D01*
X68021Y631224D01*
X68074Y631147D01*
X68123Y631069D01*
X68169Y630988D01*
X68211Y630906D01*
X68250Y630821D01*
X68285Y630736D01*
X68317Y630649D01*
X68346Y630560D01*
X68370Y630471D01*
X68391Y630381D01*
X68408Y630289D01*
X68422Y630198D01*
X68431Y630105D01*
X68437Y630013D01*
X68439Y629920D01*
X68439Y623189D01*
X63952Y623189D02*
X63952Y632164D01*
X77637Y628424D02*
X81002Y628424D01*
X77637Y628425D02*
X77535Y628423D01*
X77434Y628417D01*
X77333Y628407D01*
X77232Y628394D01*
X77132Y628376D01*
X77033Y628354D01*
X76935Y628329D01*
X76838Y628300D01*
X76742Y628267D01*
X76647Y628231D01*
X76554Y628190D01*
X76462Y628147D01*
X76372Y628099D01*
X76284Y628048D01*
X76198Y627994D01*
X76115Y627937D01*
X76033Y627876D01*
X75954Y627813D01*
X75878Y627746D01*
X75804Y627676D01*
X75733Y627604D01*
X75665Y627528D01*
X75599Y627451D01*
X75537Y627370D01*
X75478Y627288D01*
X75422Y627203D01*
X75370Y627116D01*
X75321Y627027D01*
X75275Y626936D01*
X75233Y626844D01*
X75195Y626750D01*
X75160Y626655D01*
X75129Y626558D01*
X75102Y626460D01*
X75078Y626361D01*
X75059Y626262D01*
X75043Y626161D01*
X75031Y626060D01*
X75023Y625959D01*
X75019Y625858D01*
X75019Y625756D01*
X75023Y625655D01*
X75031Y625554D01*
X75043Y625453D01*
X75059Y625352D01*
X75078Y625253D01*
X75102Y625154D01*
X75129Y625056D01*
X75160Y624959D01*
X75195Y624864D01*
X75233Y624770D01*
X75275Y624678D01*
X75321Y624587D01*
X75370Y624498D01*
X75422Y624411D01*
X75478Y624326D01*
X75537Y624244D01*
X75599Y624163D01*
X75665Y624086D01*
X75733Y624010D01*
X75804Y623938D01*
X75878Y623868D01*
X75954Y623801D01*
X76033Y623738D01*
X76115Y623677D01*
X76198Y623620D01*
X76284Y623566D01*
X76372Y623515D01*
X76462Y623467D01*
X76554Y623424D01*
X76647Y623383D01*
X76742Y623347D01*
X76838Y623314D01*
X76935Y623285D01*
X77033Y623260D01*
X77132Y623238D01*
X77232Y623220D01*
X77333Y623207D01*
X77434Y623197D01*
X77535Y623191D01*
X77637Y623189D01*
X81002Y623189D01*
X81002Y629920D01*
X81000Y630013D01*
X80994Y630105D01*
X80985Y630198D01*
X80971Y630289D01*
X80954Y630381D01*
X80933Y630471D01*
X80909Y630560D01*
X80880Y630649D01*
X80848Y630736D01*
X80813Y630821D01*
X80774Y630906D01*
X80732Y630988D01*
X80686Y631069D01*
X80637Y631147D01*
X80584Y631224D01*
X80529Y631298D01*
X80470Y631370D01*
X80409Y631440D01*
X80345Y631507D01*
X80278Y631571D01*
X80208Y631632D01*
X80136Y631691D01*
X80062Y631746D01*
X79985Y631799D01*
X79907Y631848D01*
X79826Y631894D01*
X79744Y631936D01*
X79659Y631975D01*
X79574Y632010D01*
X79487Y632042D01*
X79398Y632071D01*
X79309Y632095D01*
X79219Y632116D01*
X79127Y632133D01*
X79036Y632147D01*
X78943Y632156D01*
X78851Y632162D01*
X78758Y632164D01*
X75767Y632164D01*
X88547Y628424D02*
X92286Y626928D01*
X88547Y628425D02*
X88467Y628459D01*
X88389Y628496D01*
X88312Y628537D01*
X88238Y628582D01*
X88165Y628629D01*
X88095Y628680D01*
X88027Y628734D01*
X87962Y628791D01*
X87899Y628851D01*
X87839Y628914D01*
X87781Y628979D01*
X87727Y629047D01*
X87676Y629117D01*
X87628Y629189D01*
X87583Y629264D01*
X87542Y629340D01*
X87504Y629418D01*
X87470Y629498D01*
X87439Y629579D01*
X87412Y629661D01*
X87388Y629745D01*
X87369Y629829D01*
X87353Y629915D01*
X87341Y630001D01*
X87333Y630087D01*
X87329Y630174D01*
X87328Y630261D01*
X87332Y630347D01*
X87339Y630434D01*
X87351Y630520D01*
X87366Y630605D01*
X87385Y630690D01*
X87407Y630774D01*
X87434Y630856D01*
X87464Y630938D01*
X87497Y631018D01*
X87535Y631096D01*
X87575Y631173D01*
X87620Y631248D01*
X87667Y631320D01*
X87718Y631391D01*
X87771Y631459D01*
X87828Y631525D01*
X87888Y631588D01*
X87950Y631648D01*
X88015Y631706D01*
X88083Y631760D01*
X88152Y631812D01*
X88225Y631860D01*
X88299Y631905D01*
X88375Y631947D01*
X88453Y631985D01*
X88532Y632019D01*
X88613Y632051D01*
X88696Y632078D01*
X88779Y632102D01*
X88864Y632122D01*
X88949Y632138D01*
X89035Y632150D01*
X89121Y632159D01*
X89208Y632163D01*
X89295Y632164D01*
X89294Y632163D02*
X89499Y632158D01*
X89702Y632147D01*
X89906Y632132D01*
X90109Y632112D01*
X90312Y632087D01*
X90514Y632057D01*
X90715Y632023D01*
X90916Y631983D01*
X91115Y631939D01*
X91313Y631890D01*
X91510Y631836D01*
X91706Y631778D01*
X91900Y631714D01*
X92093Y631646D01*
X92283Y631574D01*
X92473Y631497D01*
X92660Y631415D01*
X92286Y626928D02*
X92366Y626894D01*
X92444Y626857D01*
X92521Y626816D01*
X92595Y626771D01*
X92668Y626724D01*
X92738Y626673D01*
X92806Y626619D01*
X92871Y626562D01*
X92934Y626502D01*
X92994Y626439D01*
X93052Y626374D01*
X93106Y626306D01*
X93157Y626236D01*
X93205Y626164D01*
X93250Y626089D01*
X93291Y626013D01*
X93329Y625935D01*
X93363Y625855D01*
X93394Y625774D01*
X93421Y625692D01*
X93445Y625608D01*
X93464Y625524D01*
X93480Y625438D01*
X93492Y625352D01*
X93500Y625266D01*
X93504Y625179D01*
X93505Y625092D01*
X93501Y625006D01*
X93494Y624919D01*
X93482Y624833D01*
X93467Y624748D01*
X93448Y624663D01*
X93426Y624579D01*
X93399Y624497D01*
X93369Y624415D01*
X93336Y624335D01*
X93298Y624257D01*
X93258Y624180D01*
X93213Y624105D01*
X93166Y624033D01*
X93115Y623962D01*
X93062Y623894D01*
X93005Y623828D01*
X92945Y623765D01*
X92883Y623705D01*
X92818Y623647D01*
X92750Y623593D01*
X92681Y623541D01*
X92608Y623493D01*
X92534Y623448D01*
X92458Y623406D01*
X92380Y623368D01*
X92301Y623334D01*
X92220Y623302D01*
X92137Y623275D01*
X92054Y623251D01*
X91969Y623231D01*
X91884Y623215D01*
X91798Y623203D01*
X91712Y623194D01*
X91625Y623190D01*
X91538Y623189D01*
X91238Y623197D01*
X90938Y623212D01*
X90639Y623234D01*
X90340Y623263D01*
X90043Y623299D01*
X89746Y623342D01*
X89450Y623393D01*
X89156Y623450D01*
X88863Y623514D01*
X88571Y623585D01*
X88281Y623663D01*
X87994Y623747D01*
X87708Y623839D01*
X87424Y623937D01*
X99942Y623189D02*
X99942Y636651D01*
X105925Y632164D02*
X99942Y627676D01*
X102560Y629546D02*
X105925Y623189D01*
X120715Y623189D02*
X123707Y623189D01*
X120715Y623189D02*
X120622Y623191D01*
X120530Y623197D01*
X120437Y623206D01*
X120346Y623220D01*
X120254Y623237D01*
X120164Y623258D01*
X120075Y623282D01*
X119986Y623311D01*
X119899Y623343D01*
X119814Y623378D01*
X119729Y623417D01*
X119647Y623459D01*
X119566Y623505D01*
X119488Y623554D01*
X119411Y623607D01*
X119337Y623662D01*
X119265Y623721D01*
X119195Y623782D01*
X119128Y623846D01*
X119064Y623913D01*
X119003Y623983D01*
X118944Y624055D01*
X118889Y624129D01*
X118836Y624206D01*
X118787Y624284D01*
X118741Y624365D01*
X118699Y624447D01*
X118660Y624532D01*
X118625Y624617D01*
X118593Y624704D01*
X118564Y624793D01*
X118540Y624882D01*
X118519Y624972D01*
X118502Y625064D01*
X118488Y625155D01*
X118479Y625248D01*
X118473Y625340D01*
X118471Y625433D01*
X118471Y629920D01*
X118473Y630013D01*
X118479Y630105D01*
X118488Y630198D01*
X118502Y630289D01*
X118519Y630381D01*
X118540Y630471D01*
X118564Y630560D01*
X118593Y630649D01*
X118625Y630736D01*
X118660Y630821D01*
X118699Y630906D01*
X118741Y630988D01*
X118787Y631069D01*
X118836Y631147D01*
X118889Y631224D01*
X118944Y631298D01*
X119003Y631370D01*
X119064Y631440D01*
X119128Y631507D01*
X119195Y631571D01*
X119265Y631632D01*
X119337Y631691D01*
X119411Y631746D01*
X119488Y631799D01*
X119566Y631848D01*
X119647Y631894D01*
X119729Y631936D01*
X119814Y631975D01*
X119899Y632010D01*
X119986Y632042D01*
X120075Y632071D01*
X120164Y632095D01*
X120255Y632116D01*
X120346Y632133D01*
X120437Y632147D01*
X120530Y632156D01*
X120622Y632162D01*
X120715Y632164D01*
X123707Y632164D01*
X128947Y629172D02*
X128947Y626181D01*
X128946Y629172D02*
X128948Y629280D01*
X128954Y629388D01*
X128964Y629495D01*
X128977Y629603D01*
X128995Y629709D01*
X129016Y629815D01*
X129041Y629920D01*
X129070Y630024D01*
X129103Y630127D01*
X129139Y630229D01*
X129179Y630329D01*
X129223Y630428D01*
X129270Y630526D01*
X129320Y630621D01*
X129374Y630715D01*
X129432Y630806D01*
X129492Y630896D01*
X129556Y630983D01*
X129623Y631067D01*
X129693Y631150D01*
X129766Y631230D01*
X129842Y631307D01*
X129920Y631381D01*
X130001Y631452D01*
X130085Y631521D01*
X130171Y631586D01*
X130259Y631648D01*
X130349Y631707D01*
X130442Y631763D01*
X130537Y631815D01*
X130633Y631864D01*
X130731Y631910D01*
X130831Y631951D01*
X130932Y631990D01*
X131034Y632024D01*
X131138Y632055D01*
X131242Y632082D01*
X131348Y632105D01*
X131454Y632125D01*
X131561Y632140D01*
X131668Y632152D01*
X131776Y632160D01*
X131884Y632164D01*
X131992Y632164D01*
X132100Y632160D01*
X132208Y632152D01*
X132315Y632140D01*
X132422Y632125D01*
X132528Y632105D01*
X132634Y632082D01*
X132738Y632055D01*
X132842Y632024D01*
X132944Y631990D01*
X133045Y631951D01*
X133145Y631910D01*
X133243Y631864D01*
X133339Y631815D01*
X133434Y631763D01*
X133527Y631707D01*
X133617Y631648D01*
X133705Y631586D01*
X133791Y631521D01*
X133875Y631452D01*
X133956Y631381D01*
X134034Y631307D01*
X134110Y631230D01*
X134183Y631150D01*
X134253Y631067D01*
X134320Y630983D01*
X134384Y630896D01*
X134444Y630806D01*
X134502Y630715D01*
X134556Y630621D01*
X134606Y630526D01*
X134653Y630428D01*
X134697Y630329D01*
X134737Y630229D01*
X134773Y630127D01*
X134806Y630024D01*
X134835Y629920D01*
X134860Y629815D01*
X134881Y629709D01*
X134899Y629603D01*
X134912Y629495D01*
X134922Y629388D01*
X134928Y629280D01*
X134930Y629172D01*
X134930Y626181D01*
X134928Y626073D01*
X134922Y625965D01*
X134912Y625858D01*
X134899Y625750D01*
X134881Y625644D01*
X134860Y625538D01*
X134835Y625433D01*
X134806Y625329D01*
X134773Y625226D01*
X134737Y625124D01*
X134697Y625024D01*
X134653Y624925D01*
X134606Y624827D01*
X134556Y624732D01*
X134502Y624638D01*
X134444Y624547D01*
X134384Y624457D01*
X134320Y624370D01*
X134253Y624286D01*
X134183Y624203D01*
X134110Y624123D01*
X134034Y624046D01*
X133956Y623972D01*
X133875Y623901D01*
X133791Y623832D01*
X133705Y623767D01*
X133617Y623705D01*
X133527Y623646D01*
X133434Y623590D01*
X133339Y623538D01*
X133243Y623489D01*
X133145Y623443D01*
X133045Y623402D01*
X132944Y623363D01*
X132842Y623329D01*
X132738Y623298D01*
X132634Y623271D01*
X132528Y623248D01*
X132422Y623228D01*
X132315Y623213D01*
X132208Y623201D01*
X132100Y623193D01*
X131992Y623189D01*
X131884Y623189D01*
X131776Y623193D01*
X131668Y623201D01*
X131561Y623213D01*
X131454Y623228D01*
X131348Y623248D01*
X131242Y623271D01*
X131138Y623298D01*
X131034Y623329D01*
X130932Y623363D01*
X130831Y623402D01*
X130731Y623443D01*
X130633Y623489D01*
X130537Y623538D01*
X130442Y623590D01*
X130349Y623646D01*
X130259Y623705D01*
X130171Y623767D01*
X130085Y623832D01*
X130001Y623901D01*
X129920Y623972D01*
X129842Y624046D01*
X129766Y624123D01*
X129693Y624203D01*
X129623Y624286D01*
X129556Y624370D01*
X129492Y624457D01*
X129432Y624547D01*
X129374Y624638D01*
X129320Y624732D01*
X129270Y624827D01*
X129223Y624925D01*
X129179Y625024D01*
X129139Y625124D01*
X129103Y625226D01*
X129070Y625329D01*
X129041Y625433D01*
X129016Y625538D01*
X128995Y625644D01*
X128977Y625750D01*
X128964Y625858D01*
X128954Y625965D01*
X128948Y626073D01*
X128946Y626181D01*
X141596Y623189D02*
X141596Y632164D01*
X148327Y632164D01*
X148420Y632162D01*
X148512Y632156D01*
X148605Y632147D01*
X148696Y632133D01*
X148788Y632116D01*
X148878Y632095D01*
X148967Y632071D01*
X149056Y632042D01*
X149143Y632010D01*
X149228Y631975D01*
X149313Y631936D01*
X149395Y631894D01*
X149476Y631848D01*
X149554Y631799D01*
X149631Y631746D01*
X149705Y631691D01*
X149777Y631632D01*
X149847Y631571D01*
X149914Y631507D01*
X149978Y631440D01*
X150039Y631370D01*
X150098Y631298D01*
X150153Y631224D01*
X150206Y631147D01*
X150255Y631069D01*
X150301Y630988D01*
X150343Y630906D01*
X150382Y630821D01*
X150417Y630736D01*
X150449Y630649D01*
X150478Y630560D01*
X150502Y630471D01*
X150523Y630381D01*
X150540Y630289D01*
X150554Y630198D01*
X150563Y630105D01*
X150569Y630013D01*
X150571Y629920D01*
X150570Y629920D02*
X150570Y623189D01*
X146083Y623189D02*
X146083Y632164D01*
X157778Y632164D02*
X157778Y618702D01*
X157778Y632164D02*
X161518Y632164D01*
X161611Y632162D01*
X161703Y632156D01*
X161796Y632147D01*
X161887Y632133D01*
X161979Y632116D01*
X162069Y632095D01*
X162158Y632071D01*
X162247Y632042D01*
X162334Y632010D01*
X162419Y631975D01*
X162504Y631936D01*
X162586Y631894D01*
X162667Y631848D01*
X162745Y631799D01*
X162822Y631746D01*
X162896Y631691D01*
X162968Y631632D01*
X163038Y631571D01*
X163105Y631507D01*
X163169Y631440D01*
X163230Y631370D01*
X163289Y631298D01*
X163344Y631224D01*
X163397Y631147D01*
X163446Y631069D01*
X163492Y630988D01*
X163534Y630906D01*
X163573Y630821D01*
X163608Y630736D01*
X163640Y630649D01*
X163669Y630560D01*
X163693Y630471D01*
X163714Y630381D01*
X163731Y630289D01*
X163745Y630198D01*
X163754Y630105D01*
X163760Y630013D01*
X163762Y629920D01*
X163762Y625433D01*
X163760Y625340D01*
X163754Y625248D01*
X163745Y625155D01*
X163731Y625064D01*
X163714Y624973D01*
X163693Y624882D01*
X163669Y624793D01*
X163640Y624704D01*
X163608Y624617D01*
X163573Y624532D01*
X163534Y624447D01*
X163492Y624365D01*
X163446Y624284D01*
X163397Y624206D01*
X163344Y624129D01*
X163289Y624055D01*
X163230Y623983D01*
X163169Y623913D01*
X163105Y623846D01*
X163038Y623782D01*
X162968Y623721D01*
X162896Y623662D01*
X162822Y623607D01*
X162745Y623554D01*
X162667Y623505D01*
X162586Y623459D01*
X162504Y623417D01*
X162419Y623378D01*
X162334Y623343D01*
X162247Y623311D01*
X162158Y623282D01*
X162069Y623258D01*
X161979Y623237D01*
X161887Y623220D01*
X161796Y623206D01*
X161703Y623197D01*
X161611Y623191D01*
X161518Y623189D01*
X157778Y623189D01*
X169556Y626181D02*
X169556Y629172D01*
X169555Y629172D02*
X169557Y629280D01*
X169563Y629388D01*
X169573Y629495D01*
X169586Y629603D01*
X169604Y629709D01*
X169625Y629815D01*
X169650Y629920D01*
X169679Y630024D01*
X169712Y630127D01*
X169748Y630229D01*
X169788Y630329D01*
X169832Y630428D01*
X169879Y630526D01*
X169929Y630621D01*
X169983Y630715D01*
X170041Y630806D01*
X170101Y630896D01*
X170165Y630983D01*
X170232Y631067D01*
X170302Y631150D01*
X170375Y631230D01*
X170451Y631307D01*
X170529Y631381D01*
X170610Y631452D01*
X170694Y631521D01*
X170780Y631586D01*
X170868Y631648D01*
X170958Y631707D01*
X171051Y631763D01*
X171146Y631815D01*
X171242Y631864D01*
X171340Y631910D01*
X171440Y631951D01*
X171541Y631990D01*
X171643Y632024D01*
X171747Y632055D01*
X171851Y632082D01*
X171957Y632105D01*
X172063Y632125D01*
X172170Y632140D01*
X172277Y632152D01*
X172385Y632160D01*
X172493Y632164D01*
X172601Y632164D01*
X172709Y632160D01*
X172817Y632152D01*
X172924Y632140D01*
X173031Y632125D01*
X173137Y632105D01*
X173243Y632082D01*
X173347Y632055D01*
X173451Y632024D01*
X173553Y631990D01*
X173654Y631951D01*
X173754Y631910D01*
X173852Y631864D01*
X173948Y631815D01*
X174043Y631763D01*
X174136Y631707D01*
X174226Y631648D01*
X174314Y631586D01*
X174400Y631521D01*
X174484Y631452D01*
X174565Y631381D01*
X174643Y631307D01*
X174719Y631230D01*
X174792Y631150D01*
X174862Y631067D01*
X174929Y630983D01*
X174993Y630896D01*
X175053Y630806D01*
X175111Y630715D01*
X175165Y630621D01*
X175215Y630526D01*
X175262Y630428D01*
X175306Y630329D01*
X175346Y630229D01*
X175382Y630127D01*
X175415Y630024D01*
X175444Y629920D01*
X175469Y629815D01*
X175490Y629709D01*
X175508Y629603D01*
X175521Y629495D01*
X175531Y629388D01*
X175537Y629280D01*
X175539Y629172D01*
X175539Y626181D01*
X175537Y626073D01*
X175531Y625965D01*
X175521Y625858D01*
X175508Y625750D01*
X175490Y625644D01*
X175469Y625538D01*
X175444Y625433D01*
X175415Y625329D01*
X175382Y625226D01*
X175346Y625124D01*
X175306Y625024D01*
X175262Y624925D01*
X175215Y624827D01*
X175165Y624732D01*
X175111Y624638D01*
X175053Y624547D01*
X174993Y624457D01*
X174929Y624370D01*
X174862Y624286D01*
X174792Y624203D01*
X174719Y624123D01*
X174643Y624046D01*
X174565Y623972D01*
X174484Y623901D01*
X174400Y623832D01*
X174314Y623767D01*
X174226Y623705D01*
X174136Y623646D01*
X174043Y623590D01*
X173948Y623538D01*
X173852Y623489D01*
X173754Y623443D01*
X173654Y623402D01*
X173553Y623363D01*
X173451Y623329D01*
X173347Y623298D01*
X173243Y623271D01*
X173137Y623248D01*
X173031Y623228D01*
X172924Y623213D01*
X172817Y623201D01*
X172709Y623193D01*
X172601Y623189D01*
X172493Y623189D01*
X172385Y623193D01*
X172277Y623201D01*
X172170Y623213D01*
X172063Y623228D01*
X171957Y623248D01*
X171851Y623271D01*
X171747Y623298D01*
X171643Y623329D01*
X171541Y623363D01*
X171440Y623402D01*
X171340Y623443D01*
X171242Y623489D01*
X171146Y623538D01*
X171051Y623590D01*
X170958Y623646D01*
X170868Y623705D01*
X170780Y623767D01*
X170694Y623832D01*
X170610Y623901D01*
X170529Y623972D01*
X170451Y624046D01*
X170375Y624123D01*
X170302Y624203D01*
X170232Y624286D01*
X170165Y624370D01*
X170101Y624457D01*
X170041Y624547D01*
X169983Y624638D01*
X169929Y624732D01*
X169879Y624827D01*
X169832Y624925D01*
X169788Y625024D01*
X169748Y625124D01*
X169712Y625226D01*
X169679Y625329D01*
X169650Y625433D01*
X169625Y625538D01*
X169604Y625644D01*
X169586Y625750D01*
X169573Y625858D01*
X169563Y625965D01*
X169557Y626073D01*
X169555Y626181D01*
X181876Y623189D02*
X181876Y632164D01*
X185615Y632164D01*
X185708Y632162D01*
X185800Y632156D01*
X185893Y632147D01*
X185984Y632133D01*
X186076Y632116D01*
X186166Y632095D01*
X186255Y632071D01*
X186344Y632042D01*
X186431Y632010D01*
X186516Y631975D01*
X186601Y631936D01*
X186683Y631894D01*
X186764Y631848D01*
X186842Y631799D01*
X186919Y631746D01*
X186993Y631691D01*
X187065Y631632D01*
X187135Y631571D01*
X187202Y631507D01*
X187266Y631440D01*
X187327Y631370D01*
X187386Y631298D01*
X187441Y631224D01*
X187494Y631147D01*
X187543Y631069D01*
X187589Y630988D01*
X187631Y630906D01*
X187670Y630821D01*
X187705Y630736D01*
X187737Y630649D01*
X187766Y630560D01*
X187790Y630471D01*
X187811Y630381D01*
X187828Y630289D01*
X187842Y630198D01*
X187851Y630105D01*
X187857Y630013D01*
X187859Y629920D01*
X187859Y623189D01*
X196439Y623189D02*
X200178Y623189D01*
X196439Y623189D02*
X196346Y623191D01*
X196254Y623197D01*
X196161Y623206D01*
X196070Y623220D01*
X195978Y623237D01*
X195888Y623258D01*
X195799Y623282D01*
X195710Y623311D01*
X195623Y623343D01*
X195538Y623378D01*
X195453Y623417D01*
X195371Y623459D01*
X195290Y623505D01*
X195212Y623554D01*
X195135Y623607D01*
X195061Y623662D01*
X194989Y623721D01*
X194919Y623782D01*
X194852Y623846D01*
X194788Y623913D01*
X194727Y623983D01*
X194668Y624055D01*
X194613Y624129D01*
X194560Y624206D01*
X194511Y624284D01*
X194465Y624365D01*
X194423Y624447D01*
X194384Y624532D01*
X194349Y624617D01*
X194317Y624704D01*
X194288Y624793D01*
X194264Y624882D01*
X194243Y624972D01*
X194226Y625064D01*
X194212Y625155D01*
X194203Y625248D01*
X194197Y625340D01*
X194195Y625433D01*
X194195Y629172D01*
X194197Y629280D01*
X194203Y629388D01*
X194213Y629495D01*
X194226Y629603D01*
X194244Y629709D01*
X194265Y629815D01*
X194290Y629920D01*
X194319Y630024D01*
X194352Y630127D01*
X194388Y630229D01*
X194428Y630329D01*
X194472Y630428D01*
X194519Y630526D01*
X194569Y630621D01*
X194623Y630715D01*
X194681Y630806D01*
X194741Y630896D01*
X194805Y630983D01*
X194872Y631067D01*
X194942Y631150D01*
X195015Y631230D01*
X195091Y631307D01*
X195169Y631381D01*
X195250Y631452D01*
X195334Y631521D01*
X195420Y631586D01*
X195508Y631648D01*
X195598Y631707D01*
X195691Y631763D01*
X195786Y631815D01*
X195882Y631864D01*
X195980Y631910D01*
X196080Y631951D01*
X196181Y631990D01*
X196283Y632024D01*
X196387Y632055D01*
X196491Y632082D01*
X196597Y632105D01*
X196703Y632125D01*
X196810Y632140D01*
X196917Y632152D01*
X197025Y632160D01*
X197133Y632164D01*
X197241Y632164D01*
X197349Y632160D01*
X197457Y632152D01*
X197564Y632140D01*
X197671Y632125D01*
X197777Y632105D01*
X197883Y632082D01*
X197987Y632055D01*
X198091Y632024D01*
X198193Y631990D01*
X198294Y631951D01*
X198394Y631910D01*
X198492Y631864D01*
X198588Y631815D01*
X198683Y631763D01*
X198776Y631707D01*
X198866Y631648D01*
X198954Y631586D01*
X199040Y631521D01*
X199124Y631452D01*
X199205Y631381D01*
X199283Y631307D01*
X199359Y631230D01*
X199432Y631150D01*
X199502Y631067D01*
X199569Y630983D01*
X199633Y630896D01*
X199693Y630806D01*
X199751Y630715D01*
X199805Y630621D01*
X199855Y630526D01*
X199902Y630428D01*
X199946Y630329D01*
X199986Y630229D01*
X200022Y630127D01*
X200055Y630024D01*
X200084Y629920D01*
X200109Y629815D01*
X200130Y629709D01*
X200148Y629603D01*
X200161Y629495D01*
X200171Y629388D01*
X200177Y629280D01*
X200179Y629172D01*
X200178Y629172D02*
X200178Y627676D01*
X194195Y627676D01*
X206515Y623189D02*
X206515Y632164D01*
X210254Y632164D01*
X210347Y632162D01*
X210439Y632156D01*
X210532Y632147D01*
X210623Y632133D01*
X210715Y632116D01*
X210805Y632095D01*
X210894Y632071D01*
X210983Y632042D01*
X211070Y632010D01*
X211155Y631975D01*
X211240Y631936D01*
X211322Y631894D01*
X211403Y631848D01*
X211481Y631799D01*
X211558Y631746D01*
X211632Y631691D01*
X211704Y631632D01*
X211774Y631571D01*
X211841Y631507D01*
X211905Y631440D01*
X211966Y631370D01*
X212025Y631298D01*
X212080Y631224D01*
X212133Y631147D01*
X212182Y631069D01*
X212228Y630988D01*
X212270Y630906D01*
X212309Y630821D01*
X212344Y630736D01*
X212376Y630649D01*
X212405Y630560D01*
X212429Y630471D01*
X212450Y630381D01*
X212467Y630289D01*
X212481Y630198D01*
X212490Y630105D01*
X212496Y630013D01*
X212498Y629920D01*
X212498Y623189D01*
X217622Y632164D02*
X222110Y632164D01*
X219118Y636651D02*
X219118Y625433D01*
X219120Y625340D01*
X219126Y625248D01*
X219135Y625155D01*
X219149Y625064D01*
X219166Y624972D01*
X219187Y624882D01*
X219211Y624793D01*
X219240Y624704D01*
X219272Y624617D01*
X219307Y624532D01*
X219346Y624447D01*
X219388Y624365D01*
X219434Y624284D01*
X219483Y624206D01*
X219536Y624129D01*
X219591Y624055D01*
X219650Y623983D01*
X219711Y623913D01*
X219775Y623846D01*
X219842Y623782D01*
X219912Y623721D01*
X219984Y623662D01*
X220058Y623607D01*
X220135Y623554D01*
X220213Y623505D01*
X220294Y623459D01*
X220376Y623417D01*
X220461Y623378D01*
X220546Y623343D01*
X220633Y623311D01*
X220722Y623282D01*
X220811Y623258D01*
X220901Y623237D01*
X220993Y623220D01*
X221084Y623206D01*
X221177Y623197D01*
X221269Y623191D01*
X221362Y623189D01*
X222110Y623189D01*
X235926Y628424D02*
X239666Y626928D01*
X235926Y628425D02*
X235846Y628459D01*
X235768Y628496D01*
X235691Y628537D01*
X235617Y628582D01*
X235544Y628629D01*
X235474Y628680D01*
X235406Y628734D01*
X235341Y628791D01*
X235278Y628851D01*
X235218Y628914D01*
X235160Y628979D01*
X235106Y629047D01*
X235055Y629117D01*
X235007Y629189D01*
X234962Y629264D01*
X234921Y629340D01*
X234883Y629418D01*
X234849Y629498D01*
X234818Y629579D01*
X234791Y629661D01*
X234767Y629745D01*
X234748Y629829D01*
X234732Y629915D01*
X234720Y630001D01*
X234712Y630087D01*
X234708Y630174D01*
X234707Y630261D01*
X234711Y630347D01*
X234718Y630434D01*
X234730Y630520D01*
X234745Y630605D01*
X234764Y630690D01*
X234786Y630774D01*
X234813Y630856D01*
X234843Y630938D01*
X234876Y631018D01*
X234914Y631096D01*
X234954Y631173D01*
X234999Y631248D01*
X235046Y631320D01*
X235097Y631391D01*
X235150Y631459D01*
X235207Y631525D01*
X235267Y631588D01*
X235329Y631648D01*
X235394Y631706D01*
X235462Y631760D01*
X235531Y631812D01*
X235604Y631860D01*
X235678Y631905D01*
X235754Y631947D01*
X235832Y631985D01*
X235911Y632019D01*
X235992Y632051D01*
X236075Y632078D01*
X236158Y632102D01*
X236243Y632122D01*
X236328Y632138D01*
X236414Y632150D01*
X236500Y632159D01*
X236587Y632163D01*
X236674Y632164D01*
X236674Y632163D02*
X236879Y632158D01*
X237082Y632147D01*
X237286Y632132D01*
X237489Y632112D01*
X237692Y632087D01*
X237894Y632057D01*
X238095Y632023D01*
X238296Y631983D01*
X238495Y631939D01*
X238693Y631890D01*
X238890Y631836D01*
X239086Y631778D01*
X239280Y631714D01*
X239473Y631646D01*
X239663Y631574D01*
X239853Y631497D01*
X240040Y631415D01*
X239666Y626928D02*
X239746Y626894D01*
X239824Y626857D01*
X239901Y626816D01*
X239975Y626771D01*
X240048Y626724D01*
X240118Y626673D01*
X240186Y626619D01*
X240251Y626562D01*
X240314Y626502D01*
X240374Y626439D01*
X240432Y626374D01*
X240486Y626306D01*
X240537Y626236D01*
X240585Y626164D01*
X240630Y626089D01*
X240671Y626013D01*
X240709Y625935D01*
X240743Y625855D01*
X240774Y625774D01*
X240801Y625692D01*
X240825Y625608D01*
X240844Y625524D01*
X240860Y625438D01*
X240872Y625352D01*
X240880Y625266D01*
X240884Y625179D01*
X240885Y625092D01*
X240881Y625006D01*
X240874Y624919D01*
X240862Y624833D01*
X240847Y624748D01*
X240828Y624663D01*
X240806Y624579D01*
X240779Y624497D01*
X240749Y624415D01*
X240716Y624335D01*
X240678Y624257D01*
X240638Y624180D01*
X240593Y624105D01*
X240546Y624033D01*
X240495Y623962D01*
X240442Y623894D01*
X240385Y623828D01*
X240325Y623765D01*
X240263Y623705D01*
X240198Y623647D01*
X240130Y623593D01*
X240061Y623541D01*
X239988Y623493D01*
X239914Y623448D01*
X239838Y623406D01*
X239760Y623368D01*
X239681Y623334D01*
X239600Y623302D01*
X239517Y623275D01*
X239434Y623251D01*
X239349Y623231D01*
X239264Y623215D01*
X239178Y623203D01*
X239092Y623194D01*
X239005Y623190D01*
X238918Y623189D01*
X238618Y623197D01*
X238318Y623212D01*
X238019Y623234D01*
X237720Y623263D01*
X237423Y623299D01*
X237126Y623342D01*
X236830Y623393D01*
X236536Y623450D01*
X236243Y623514D01*
X235951Y623585D01*
X235661Y623663D01*
X235374Y623747D01*
X235088Y623839D01*
X234804Y623937D01*
X246465Y623189D02*
X246465Y632164D01*
X246091Y635903D02*
X246091Y636651D01*
X246839Y636651D01*
X246839Y635903D01*
X246091Y635903D01*
X258040Y636651D02*
X258040Y623189D01*
X254301Y623189D01*
X254208Y623191D01*
X254116Y623197D01*
X254023Y623206D01*
X253932Y623220D01*
X253840Y623237D01*
X253750Y623258D01*
X253661Y623282D01*
X253572Y623311D01*
X253485Y623343D01*
X253400Y623378D01*
X253315Y623417D01*
X253233Y623459D01*
X253152Y623505D01*
X253074Y623554D01*
X252997Y623607D01*
X252923Y623662D01*
X252851Y623721D01*
X252781Y623782D01*
X252714Y623846D01*
X252650Y623913D01*
X252589Y623983D01*
X252530Y624055D01*
X252475Y624129D01*
X252422Y624206D01*
X252373Y624284D01*
X252327Y624365D01*
X252285Y624447D01*
X252246Y624532D01*
X252211Y624617D01*
X252179Y624704D01*
X252150Y624793D01*
X252126Y624882D01*
X252105Y624972D01*
X252088Y625064D01*
X252074Y625155D01*
X252065Y625248D01*
X252059Y625340D01*
X252057Y625433D01*
X252057Y629920D01*
X252059Y630013D01*
X252065Y630105D01*
X252074Y630198D01*
X252088Y630289D01*
X252105Y630381D01*
X252126Y630471D01*
X252150Y630560D01*
X252179Y630649D01*
X252211Y630736D01*
X252246Y630821D01*
X252285Y630906D01*
X252327Y630988D01*
X252373Y631069D01*
X252422Y631147D01*
X252475Y631224D01*
X252530Y631298D01*
X252589Y631370D01*
X252650Y631440D01*
X252714Y631507D01*
X252781Y631571D01*
X252851Y631632D01*
X252923Y631691D01*
X252997Y631746D01*
X253074Y631799D01*
X253152Y631848D01*
X253233Y631894D01*
X253315Y631936D01*
X253400Y631975D01*
X253485Y632010D01*
X253572Y632042D01*
X253661Y632071D01*
X253750Y632095D01*
X253841Y632116D01*
X253932Y632133D01*
X254023Y632147D01*
X254116Y632156D01*
X254208Y632162D01*
X254301Y632164D01*
X258040Y632164D01*
X266707Y623189D02*
X270446Y623189D01*
X266707Y623189D02*
X266614Y623191D01*
X266522Y623197D01*
X266429Y623206D01*
X266338Y623220D01*
X266246Y623237D01*
X266156Y623258D01*
X266067Y623282D01*
X265978Y623311D01*
X265891Y623343D01*
X265806Y623378D01*
X265721Y623417D01*
X265639Y623459D01*
X265558Y623505D01*
X265480Y623554D01*
X265403Y623607D01*
X265329Y623662D01*
X265257Y623721D01*
X265187Y623782D01*
X265120Y623846D01*
X265056Y623913D01*
X264995Y623983D01*
X264936Y624055D01*
X264881Y624129D01*
X264828Y624206D01*
X264779Y624284D01*
X264733Y624365D01*
X264691Y624447D01*
X264652Y624532D01*
X264617Y624617D01*
X264585Y624704D01*
X264556Y624793D01*
X264532Y624882D01*
X264511Y624972D01*
X264494Y625064D01*
X264480Y625155D01*
X264471Y625248D01*
X264465Y625340D01*
X264463Y625433D01*
X264463Y629172D01*
X264462Y629172D02*
X264464Y629280D01*
X264470Y629388D01*
X264480Y629495D01*
X264493Y629603D01*
X264511Y629709D01*
X264532Y629815D01*
X264557Y629920D01*
X264586Y630024D01*
X264619Y630127D01*
X264655Y630229D01*
X264695Y630329D01*
X264739Y630428D01*
X264786Y630526D01*
X264836Y630621D01*
X264890Y630715D01*
X264948Y630806D01*
X265008Y630896D01*
X265072Y630983D01*
X265139Y631067D01*
X265209Y631150D01*
X265282Y631230D01*
X265358Y631307D01*
X265436Y631381D01*
X265517Y631452D01*
X265601Y631521D01*
X265687Y631586D01*
X265775Y631648D01*
X265865Y631707D01*
X265958Y631763D01*
X266053Y631815D01*
X266149Y631864D01*
X266247Y631910D01*
X266347Y631951D01*
X266448Y631990D01*
X266550Y632024D01*
X266654Y632055D01*
X266758Y632082D01*
X266864Y632105D01*
X266970Y632125D01*
X267077Y632140D01*
X267184Y632152D01*
X267292Y632160D01*
X267400Y632164D01*
X267508Y632164D01*
X267616Y632160D01*
X267724Y632152D01*
X267831Y632140D01*
X267938Y632125D01*
X268044Y632105D01*
X268150Y632082D01*
X268254Y632055D01*
X268358Y632024D01*
X268460Y631990D01*
X268561Y631951D01*
X268661Y631910D01*
X268759Y631864D01*
X268855Y631815D01*
X268950Y631763D01*
X269043Y631707D01*
X269133Y631648D01*
X269221Y631586D01*
X269307Y631521D01*
X269391Y631452D01*
X269472Y631381D01*
X269550Y631307D01*
X269626Y631230D01*
X269699Y631150D01*
X269769Y631067D01*
X269836Y630983D01*
X269900Y630896D01*
X269960Y630806D01*
X270018Y630715D01*
X270072Y630621D01*
X270122Y630526D01*
X270169Y630428D01*
X270213Y630329D01*
X270253Y630229D01*
X270289Y630127D01*
X270322Y630024D01*
X270351Y629920D01*
X270376Y629815D01*
X270397Y629709D01*
X270415Y629603D01*
X270428Y629495D01*
X270438Y629388D01*
X270444Y629280D01*
X270446Y629172D01*
X270446Y627676D01*
X264463Y627676D01*
D12*
X546100Y641350D02*
X546100Y609600D01*
X546100Y641350D02*
X546100Y673100D01*
X546100Y704850D01*
X546100Y736600D01*
X546100Y768350D01*
X228600Y768350D01*
X0Y768350D01*
X0Y704850D01*
D23*
X242316Y743966D02*
X242316Y758698D01*
X246408Y758698D01*
X246534Y758696D01*
X246660Y758690D01*
X246786Y758681D01*
X246911Y758667D01*
X247036Y758650D01*
X247160Y758628D01*
X247283Y758603D01*
X247406Y758574D01*
X247528Y758542D01*
X247649Y758505D01*
X247768Y758465D01*
X247886Y758422D01*
X248003Y758374D01*
X248118Y758323D01*
X248232Y758269D01*
X248344Y758211D01*
X248454Y758150D01*
X248562Y758085D01*
X248668Y758017D01*
X248772Y757946D01*
X248874Y757871D01*
X248973Y757794D01*
X249070Y757713D01*
X249165Y757630D01*
X249257Y757544D01*
X249346Y757455D01*
X249432Y757363D01*
X249515Y757268D01*
X249596Y757171D01*
X249673Y757072D01*
X249748Y756970D01*
X249819Y756866D01*
X249887Y756760D01*
X249952Y756652D01*
X250013Y756542D01*
X250071Y756430D01*
X250125Y756316D01*
X250176Y756201D01*
X250224Y756084D01*
X250267Y755966D01*
X250307Y755846D01*
X250344Y755726D01*
X250376Y755604D01*
X250405Y755481D01*
X250430Y755358D01*
X250452Y755234D01*
X250469Y755109D01*
X250483Y754984D01*
X250492Y754858D01*
X250498Y754732D01*
X250500Y754606D01*
X250500Y748058D01*
X250498Y747932D01*
X250492Y747806D01*
X250483Y747680D01*
X250469Y747555D01*
X250452Y747430D01*
X250430Y747306D01*
X250405Y747183D01*
X250376Y747060D01*
X250344Y746938D01*
X250307Y746818D01*
X250267Y746698D01*
X250224Y746580D01*
X250176Y746463D01*
X250125Y746348D01*
X250071Y746234D01*
X250013Y746122D01*
X249952Y746012D01*
X249887Y745904D01*
X249819Y745798D01*
X249748Y745694D01*
X249673Y745592D01*
X249596Y745493D01*
X249515Y745396D01*
X249432Y745301D01*
X249346Y745209D01*
X249257Y745120D01*
X249165Y745034D01*
X249070Y744951D01*
X248973Y744870D01*
X248874Y744793D01*
X248772Y744718D01*
X248668Y744647D01*
X248562Y744579D01*
X248454Y744514D01*
X248344Y744453D01*
X248232Y744395D01*
X248118Y744341D01*
X248003Y744290D01*
X247886Y744242D01*
X247768Y744199D01*
X247649Y744159D01*
X247528Y744122D01*
X247406Y744090D01*
X247283Y744061D01*
X247160Y744036D01*
X247036Y744014D01*
X246911Y743997D01*
X246786Y743983D01*
X246660Y743974D01*
X246534Y743968D01*
X246408Y743966D01*
X242316Y743966D01*
X257505Y747240D02*
X257505Y750514D01*
X257504Y750514D02*
X257506Y750627D01*
X257512Y750740D01*
X257522Y750852D01*
X257535Y750965D01*
X257553Y751076D01*
X257574Y751187D01*
X257599Y751298D01*
X257628Y751407D01*
X257661Y751515D01*
X257697Y751622D01*
X257737Y751728D01*
X257781Y751832D01*
X257828Y751935D01*
X257879Y752036D01*
X257933Y752135D01*
X257991Y752232D01*
X258052Y752327D01*
X258116Y752420D01*
X258183Y752511D01*
X258254Y752599D01*
X258327Y752685D01*
X258404Y752768D01*
X258483Y752849D01*
X258565Y752927D01*
X258650Y753002D01*
X258737Y753074D01*
X258826Y753143D01*
X258918Y753208D01*
X259012Y753271D01*
X259108Y753330D01*
X259207Y753386D01*
X259307Y753439D01*
X259409Y753488D01*
X259512Y753533D01*
X259617Y753575D01*
X259723Y753613D01*
X259831Y753648D01*
X259940Y753679D01*
X260049Y753706D01*
X260160Y753729D01*
X260271Y753749D01*
X260383Y753764D01*
X260496Y753776D01*
X260609Y753784D01*
X260721Y753788D01*
X260835Y753788D01*
X260947Y753784D01*
X261060Y753776D01*
X261173Y753764D01*
X261285Y753749D01*
X261396Y753729D01*
X261507Y753706D01*
X261616Y753679D01*
X261725Y753648D01*
X261833Y753613D01*
X261939Y753575D01*
X262044Y753533D01*
X262147Y753488D01*
X262249Y753439D01*
X262349Y753386D01*
X262448Y753330D01*
X262544Y753271D01*
X262638Y753208D01*
X262730Y753143D01*
X262819Y753074D01*
X262906Y753002D01*
X262991Y752927D01*
X263073Y752849D01*
X263152Y752768D01*
X263229Y752685D01*
X263302Y752599D01*
X263373Y752511D01*
X263440Y752420D01*
X263504Y752327D01*
X263565Y752232D01*
X263623Y752135D01*
X263677Y752036D01*
X263728Y751935D01*
X263775Y751832D01*
X263819Y751728D01*
X263859Y751622D01*
X263895Y751515D01*
X263928Y751407D01*
X263957Y751298D01*
X263982Y751187D01*
X264003Y751076D01*
X264021Y750965D01*
X264034Y750852D01*
X264044Y750740D01*
X264050Y750627D01*
X264052Y750514D01*
X264052Y747240D01*
X264050Y747127D01*
X264044Y747014D01*
X264034Y746902D01*
X264021Y746789D01*
X264003Y746678D01*
X263982Y746567D01*
X263957Y746456D01*
X263928Y746347D01*
X263895Y746239D01*
X263859Y746132D01*
X263819Y746026D01*
X263775Y745922D01*
X263728Y745819D01*
X263677Y745718D01*
X263623Y745619D01*
X263565Y745522D01*
X263504Y745427D01*
X263440Y745334D01*
X263373Y745243D01*
X263302Y745155D01*
X263229Y745069D01*
X263152Y744986D01*
X263073Y744905D01*
X262991Y744827D01*
X262906Y744752D01*
X262819Y744680D01*
X262730Y744611D01*
X262638Y744546D01*
X262544Y744483D01*
X262448Y744424D01*
X262349Y744368D01*
X262249Y744315D01*
X262147Y744266D01*
X262044Y744221D01*
X261939Y744179D01*
X261833Y744141D01*
X261725Y744106D01*
X261616Y744075D01*
X261507Y744048D01*
X261396Y744025D01*
X261285Y744005D01*
X261173Y743990D01*
X261060Y743978D01*
X260947Y743970D01*
X260835Y743966D01*
X260721Y743966D01*
X260609Y743970D01*
X260496Y743978D01*
X260383Y743990D01*
X260271Y744005D01*
X260160Y744025D01*
X260049Y744048D01*
X259940Y744075D01*
X259831Y744106D01*
X259723Y744141D01*
X259617Y744179D01*
X259512Y744221D01*
X259409Y744266D01*
X259307Y744315D01*
X259207Y744368D01*
X259108Y744424D01*
X259012Y744483D01*
X258918Y744546D01*
X258826Y744611D01*
X258737Y744680D01*
X258650Y744752D01*
X258565Y744827D01*
X258483Y744905D01*
X258404Y744986D01*
X258327Y745069D01*
X258254Y745155D01*
X258183Y745243D01*
X258116Y745334D01*
X258052Y745427D01*
X257991Y745522D01*
X257933Y745619D01*
X257879Y745718D01*
X257828Y745819D01*
X257781Y745922D01*
X257737Y746026D01*
X257697Y746132D01*
X257661Y746239D01*
X257628Y746347D01*
X257599Y746456D01*
X257574Y746567D01*
X257553Y746678D01*
X257535Y746789D01*
X257522Y746902D01*
X257512Y747014D01*
X257506Y747127D01*
X257504Y747240D01*
X272865Y743966D02*
X276139Y743966D01*
X272865Y743966D02*
X272769Y743968D01*
X272672Y743974D01*
X272576Y743983D01*
X272481Y743996D01*
X272386Y744013D01*
X272292Y744034D01*
X272199Y744058D01*
X272106Y744086D01*
X272015Y744118D01*
X271926Y744153D01*
X271837Y744192D01*
X271750Y744234D01*
X271665Y744279D01*
X271582Y744328D01*
X271501Y744380D01*
X271422Y744435D01*
X271345Y744493D01*
X271271Y744554D01*
X271199Y744618D01*
X271129Y744685D01*
X271062Y744755D01*
X270998Y744827D01*
X270937Y744901D01*
X270879Y744978D01*
X270824Y745057D01*
X270772Y745138D01*
X270723Y745221D01*
X270678Y745306D01*
X270636Y745393D01*
X270597Y745482D01*
X270562Y745571D01*
X270530Y745662D01*
X270502Y745755D01*
X270478Y745848D01*
X270457Y745942D01*
X270440Y746037D01*
X270427Y746132D01*
X270418Y746228D01*
X270412Y746325D01*
X270410Y746421D01*
X270410Y751332D01*
X270412Y751428D01*
X270418Y751525D01*
X270427Y751621D01*
X270440Y751716D01*
X270457Y751811D01*
X270478Y751905D01*
X270502Y751998D01*
X270530Y752091D01*
X270562Y752182D01*
X270597Y752271D01*
X270636Y752360D01*
X270678Y752447D01*
X270723Y752532D01*
X270772Y752615D01*
X270824Y752696D01*
X270879Y752775D01*
X270937Y752852D01*
X270998Y752926D01*
X271062Y752998D01*
X271129Y753068D01*
X271199Y753135D01*
X271271Y753199D01*
X271345Y753260D01*
X271422Y753318D01*
X271501Y753373D01*
X271582Y753425D01*
X271665Y753474D01*
X271750Y753519D01*
X271837Y753561D01*
X271926Y753600D01*
X272015Y753635D01*
X272106Y753667D01*
X272199Y753695D01*
X272292Y753719D01*
X272386Y753740D01*
X272481Y753757D01*
X272576Y753770D01*
X272672Y753779D01*
X272769Y753785D01*
X272865Y753787D01*
X276139Y753787D01*
X281181Y744784D02*
X281181Y743966D01*
X281181Y744784D02*
X282000Y744784D01*
X282000Y743966D01*
X281181Y743966D01*
X288077Y749695D02*
X297898Y749695D01*
X305248Y743966D02*
X305248Y758698D01*
X313432Y743966D01*
X313432Y758698D01*
X320436Y750514D02*
X320436Y747240D01*
X320436Y750514D02*
X320438Y750627D01*
X320444Y750740D01*
X320454Y750852D01*
X320467Y750965D01*
X320485Y751076D01*
X320506Y751187D01*
X320531Y751298D01*
X320560Y751407D01*
X320593Y751515D01*
X320629Y751622D01*
X320669Y751728D01*
X320713Y751832D01*
X320760Y751935D01*
X320811Y752036D01*
X320865Y752135D01*
X320923Y752232D01*
X320984Y752327D01*
X321048Y752420D01*
X321115Y752511D01*
X321186Y752599D01*
X321259Y752685D01*
X321336Y752768D01*
X321415Y752849D01*
X321497Y752927D01*
X321582Y753002D01*
X321669Y753074D01*
X321758Y753143D01*
X321850Y753208D01*
X321944Y753271D01*
X322040Y753330D01*
X322139Y753386D01*
X322239Y753439D01*
X322341Y753488D01*
X322444Y753533D01*
X322549Y753575D01*
X322655Y753613D01*
X322763Y753648D01*
X322872Y753679D01*
X322981Y753706D01*
X323092Y753729D01*
X323203Y753749D01*
X323315Y753764D01*
X323428Y753776D01*
X323541Y753784D01*
X323653Y753788D01*
X323767Y753788D01*
X323879Y753784D01*
X323992Y753776D01*
X324105Y753764D01*
X324217Y753749D01*
X324328Y753729D01*
X324439Y753706D01*
X324548Y753679D01*
X324657Y753648D01*
X324765Y753613D01*
X324871Y753575D01*
X324976Y753533D01*
X325079Y753488D01*
X325181Y753439D01*
X325281Y753386D01*
X325380Y753330D01*
X325476Y753271D01*
X325570Y753208D01*
X325662Y753143D01*
X325751Y753074D01*
X325838Y753002D01*
X325923Y752927D01*
X326005Y752849D01*
X326084Y752768D01*
X326161Y752685D01*
X326234Y752599D01*
X326305Y752511D01*
X326372Y752420D01*
X326436Y752327D01*
X326497Y752232D01*
X326555Y752135D01*
X326609Y752036D01*
X326660Y751935D01*
X326707Y751832D01*
X326751Y751728D01*
X326791Y751622D01*
X326827Y751515D01*
X326860Y751407D01*
X326889Y751298D01*
X326914Y751187D01*
X326935Y751076D01*
X326953Y750965D01*
X326966Y750852D01*
X326976Y750740D01*
X326982Y750627D01*
X326984Y750514D01*
X326984Y747240D01*
X326982Y747127D01*
X326976Y747014D01*
X326966Y746902D01*
X326953Y746789D01*
X326935Y746678D01*
X326914Y746567D01*
X326889Y746456D01*
X326860Y746347D01*
X326827Y746239D01*
X326791Y746132D01*
X326751Y746026D01*
X326707Y745922D01*
X326660Y745819D01*
X326609Y745718D01*
X326555Y745619D01*
X326497Y745522D01*
X326436Y745427D01*
X326372Y745334D01*
X326305Y745243D01*
X326234Y745155D01*
X326161Y745069D01*
X326084Y744986D01*
X326005Y744905D01*
X325923Y744827D01*
X325838Y744752D01*
X325751Y744680D01*
X325662Y744611D01*
X325570Y744546D01*
X325476Y744483D01*
X325380Y744424D01*
X325281Y744368D01*
X325181Y744315D01*
X325079Y744266D01*
X324976Y744221D01*
X324871Y744179D01*
X324765Y744141D01*
X324657Y744106D01*
X324548Y744075D01*
X324439Y744048D01*
X324328Y744025D01*
X324217Y744005D01*
X324105Y743990D01*
X323992Y743978D01*
X323879Y743970D01*
X323767Y743966D01*
X323653Y743966D01*
X323541Y743970D01*
X323428Y743978D01*
X323315Y743990D01*
X323203Y744005D01*
X323092Y744025D01*
X322981Y744048D01*
X322872Y744075D01*
X322763Y744106D01*
X322655Y744141D01*
X322549Y744179D01*
X322444Y744221D01*
X322341Y744266D01*
X322239Y744315D01*
X322139Y744368D01*
X322040Y744424D01*
X321944Y744483D01*
X321850Y744546D01*
X321758Y744611D01*
X321669Y744680D01*
X321582Y744752D01*
X321497Y744827D01*
X321415Y744905D01*
X321336Y744986D01*
X321259Y745069D01*
X321186Y745155D01*
X321115Y745243D01*
X321048Y745334D01*
X320984Y745427D01*
X320923Y745522D01*
X320865Y745619D01*
X320811Y745718D01*
X320760Y745819D01*
X320713Y745922D01*
X320669Y746026D01*
X320629Y746132D01*
X320593Y746239D01*
X320560Y746347D01*
X320531Y746456D01*
X320506Y746567D01*
X320485Y746678D01*
X320467Y746789D01*
X320454Y746902D01*
X320444Y747014D01*
X320438Y747127D01*
X320436Y747240D01*
X332716Y744784D02*
X332716Y743966D01*
X332716Y744784D02*
X333534Y744784D01*
X333534Y743966D01*
X332716Y743966D01*
X339158Y745194D02*
X339158Y746012D01*
X339976Y746012D01*
X339976Y745194D01*
X339158Y745194D01*
X339158Y751741D02*
X339158Y752560D01*
X339976Y752560D01*
X339976Y751741D01*
X339158Y751741D01*
D12*
X0Y704850D02*
X0Y673100D01*
X0Y641350D01*
X0Y609600D01*
X546100Y609600D01*
D23*
X382016Y648716D02*
X382016Y663448D01*
X386108Y663448D01*
X386235Y663446D01*
X386362Y663440D01*
X386489Y663430D01*
X386616Y663416D01*
X386742Y663399D01*
X386867Y663377D01*
X386992Y663351D01*
X387116Y663322D01*
X387239Y663289D01*
X387360Y663252D01*
X387481Y663211D01*
X387600Y663166D01*
X387718Y663118D01*
X387834Y663066D01*
X387949Y663011D01*
X388061Y662952D01*
X388172Y662889D01*
X388281Y662823D01*
X388388Y662754D01*
X388493Y662681D01*
X388595Y662606D01*
X388695Y662527D01*
X388792Y662445D01*
X388887Y662360D01*
X388979Y662272D01*
X389068Y662181D01*
X389155Y662088D01*
X389238Y661992D01*
X389319Y661893D01*
X389396Y661792D01*
X389470Y661689D01*
X389541Y661583D01*
X389609Y661475D01*
X389673Y661365D01*
X389734Y661253D01*
X389791Y661140D01*
X389845Y661024D01*
X389895Y660907D01*
X389941Y660789D01*
X389984Y660669D01*
X390023Y660548D01*
X390058Y660425D01*
X390089Y660302D01*
X390117Y660178D01*
X390140Y660053D01*
X390160Y659927D01*
X390176Y659801D01*
X390188Y659674D01*
X390196Y659547D01*
X390200Y659420D01*
X390200Y659292D01*
X390196Y659165D01*
X390188Y659038D01*
X390176Y658911D01*
X390160Y658785D01*
X390140Y658659D01*
X390117Y658534D01*
X390089Y658410D01*
X390058Y658287D01*
X390023Y658164D01*
X389984Y658043D01*
X389941Y657923D01*
X389895Y657805D01*
X389845Y657688D01*
X389791Y657572D01*
X389734Y657459D01*
X389673Y657347D01*
X389609Y657237D01*
X389541Y657129D01*
X389470Y657023D01*
X389396Y656920D01*
X389319Y656819D01*
X389238Y656720D01*
X389155Y656624D01*
X389068Y656531D01*
X388979Y656440D01*
X388887Y656352D01*
X388792Y656267D01*
X388695Y656185D01*
X388595Y656106D01*
X388493Y656031D01*
X388388Y655958D01*
X388281Y655889D01*
X388172Y655823D01*
X388061Y655760D01*
X387949Y655701D01*
X387834Y655646D01*
X387718Y655594D01*
X387600Y655546D01*
X387481Y655501D01*
X387360Y655460D01*
X387239Y655423D01*
X387116Y655390D01*
X386992Y655361D01*
X386867Y655335D01*
X386742Y655313D01*
X386616Y655296D01*
X386489Y655282D01*
X386362Y655272D01*
X386235Y655266D01*
X386108Y655264D01*
X382016Y655264D01*
X386927Y655264D02*
X390200Y648716D01*
X399051Y648716D02*
X403143Y648716D01*
X399051Y648716D02*
X398955Y648718D01*
X398858Y648724D01*
X398762Y648733D01*
X398667Y648746D01*
X398572Y648763D01*
X398478Y648784D01*
X398385Y648808D01*
X398292Y648836D01*
X398201Y648868D01*
X398112Y648903D01*
X398023Y648942D01*
X397936Y648984D01*
X397851Y649029D01*
X397768Y649078D01*
X397687Y649130D01*
X397608Y649185D01*
X397531Y649243D01*
X397457Y649304D01*
X397385Y649368D01*
X397315Y649435D01*
X397248Y649505D01*
X397184Y649577D01*
X397123Y649651D01*
X397065Y649728D01*
X397010Y649807D01*
X396958Y649888D01*
X396909Y649971D01*
X396864Y650056D01*
X396822Y650143D01*
X396783Y650232D01*
X396748Y650321D01*
X396716Y650412D01*
X396688Y650505D01*
X396664Y650598D01*
X396643Y650692D01*
X396626Y650787D01*
X396613Y650882D01*
X396604Y650978D01*
X396598Y651075D01*
X396596Y651171D01*
X396596Y655264D01*
X396598Y655377D01*
X396604Y655490D01*
X396614Y655602D01*
X396627Y655715D01*
X396645Y655826D01*
X396666Y655937D01*
X396691Y656048D01*
X396720Y656157D01*
X396753Y656265D01*
X396789Y656372D01*
X396829Y656478D01*
X396873Y656582D01*
X396920Y656685D01*
X396971Y656786D01*
X397025Y656885D01*
X397083Y656982D01*
X397144Y657077D01*
X397208Y657170D01*
X397275Y657261D01*
X397346Y657349D01*
X397419Y657435D01*
X397496Y657518D01*
X397575Y657599D01*
X397657Y657677D01*
X397742Y657752D01*
X397829Y657824D01*
X397918Y657893D01*
X398010Y657958D01*
X398104Y658021D01*
X398200Y658080D01*
X398299Y658136D01*
X398399Y658189D01*
X398501Y658238D01*
X398604Y658283D01*
X398709Y658325D01*
X398815Y658363D01*
X398923Y658398D01*
X399032Y658429D01*
X399141Y658456D01*
X399252Y658479D01*
X399363Y658499D01*
X399475Y658514D01*
X399588Y658526D01*
X399701Y658534D01*
X399813Y658538D01*
X399927Y658538D01*
X400039Y658534D01*
X400152Y658526D01*
X400265Y658514D01*
X400377Y658499D01*
X400488Y658479D01*
X400599Y658456D01*
X400708Y658429D01*
X400817Y658398D01*
X400925Y658363D01*
X401031Y658325D01*
X401136Y658283D01*
X401239Y658238D01*
X401341Y658189D01*
X401441Y658136D01*
X401540Y658080D01*
X401636Y658021D01*
X401730Y657958D01*
X401822Y657893D01*
X401911Y657824D01*
X401998Y657752D01*
X402083Y657677D01*
X402165Y657599D01*
X402244Y657518D01*
X402321Y657435D01*
X402394Y657349D01*
X402465Y657261D01*
X402532Y657170D01*
X402596Y657077D01*
X402657Y656982D01*
X402715Y656885D01*
X402769Y656786D01*
X402820Y656685D01*
X402867Y656582D01*
X402911Y656478D01*
X402951Y656372D01*
X402987Y656265D01*
X403020Y656157D01*
X403049Y656048D01*
X403074Y655937D01*
X403095Y655826D01*
X403113Y655715D01*
X403126Y655602D01*
X403136Y655490D01*
X403142Y655377D01*
X403144Y655264D01*
X403143Y655264D02*
X403143Y653627D01*
X396596Y653627D01*
X408984Y658537D02*
X412258Y648716D01*
X415532Y658537D01*
X420768Y649534D02*
X420768Y648716D01*
X420768Y649534D02*
X421586Y649534D01*
X421586Y648716D01*
X420768Y648716D01*
X427210Y649944D02*
X427210Y650762D01*
X428028Y650762D01*
X428028Y649944D01*
X427210Y649944D01*
X427210Y656491D02*
X427210Y657310D01*
X428028Y657310D01*
X428028Y656491D01*
X427210Y656491D01*
D12*
X368300Y641350D02*
X0Y641350D01*
X368300Y641350D02*
X546100Y641350D01*
X368300Y673100D02*
X0Y673100D01*
X368300Y673100D02*
X546100Y673100D01*
X228600Y704850D02*
X0Y704850D01*
X228600Y704850D02*
X368300Y704850D01*
X546100Y704850D01*
X228600Y736600D02*
X228600Y768350D01*
X228600Y736600D02*
X228600Y704850D01*
X228600Y736600D02*
X368300Y736600D01*
X546100Y736600D01*
D25*
X368300Y736600D02*
X368300Y704850D01*
D23*
X385290Y712216D02*
X388564Y712216D01*
X385290Y712216D02*
X385178Y712218D01*
X385067Y712224D01*
X384955Y712233D01*
X384844Y712246D01*
X384734Y712264D01*
X384624Y712284D01*
X384515Y712309D01*
X384407Y712337D01*
X384300Y712369D01*
X384194Y712405D01*
X384089Y712444D01*
X383986Y712487D01*
X383884Y712533D01*
X383784Y712583D01*
X383685Y712636D01*
X383589Y712693D01*
X383494Y712752D01*
X383402Y712815D01*
X383312Y712881D01*
X383224Y712950D01*
X383138Y713022D01*
X383055Y713097D01*
X382975Y713175D01*
X382897Y713255D01*
X382822Y713338D01*
X382750Y713424D01*
X382681Y713512D01*
X382615Y713602D01*
X382552Y713694D01*
X382493Y713789D01*
X382436Y713885D01*
X382383Y713984D01*
X382333Y714084D01*
X382287Y714186D01*
X382244Y714289D01*
X382205Y714394D01*
X382169Y714500D01*
X382137Y714607D01*
X382109Y714715D01*
X382084Y714824D01*
X382064Y714934D01*
X382046Y715044D01*
X382033Y715155D01*
X382024Y715267D01*
X382018Y715378D01*
X382016Y715490D01*
X382016Y723674D01*
X382018Y723788D01*
X382024Y723902D01*
X382034Y724016D01*
X382048Y724130D01*
X382066Y724243D01*
X382088Y724355D01*
X382113Y724466D01*
X382143Y724576D01*
X382176Y724686D01*
X382213Y724794D01*
X382254Y724900D01*
X382299Y725006D01*
X382347Y725109D01*
X382399Y725211D01*
X382455Y725311D01*
X382513Y725409D01*
X382576Y725505D01*
X382641Y725598D01*
X382710Y725690D01*
X382782Y725778D01*
X382857Y725865D01*
X382935Y725948D01*
X383016Y726029D01*
X383099Y726107D01*
X383186Y726182D01*
X383274Y726254D01*
X383366Y726323D01*
X383459Y726388D01*
X383555Y726450D01*
X383653Y726509D01*
X383753Y726565D01*
X383855Y726617D01*
X383958Y726665D01*
X384064Y726710D01*
X384170Y726751D01*
X384278Y726788D01*
X384388Y726821D01*
X384498Y726851D01*
X384609Y726876D01*
X384721Y726898D01*
X384834Y726916D01*
X384948Y726930D01*
X385062Y726940D01*
X385176Y726946D01*
X385290Y726948D01*
X388564Y726948D01*
X394777Y722037D02*
X394777Y714671D01*
X394779Y714575D01*
X394785Y714478D01*
X394794Y714382D01*
X394807Y714287D01*
X394824Y714192D01*
X394845Y714098D01*
X394869Y714005D01*
X394897Y713912D01*
X394929Y713821D01*
X394964Y713732D01*
X395003Y713643D01*
X395045Y713556D01*
X395090Y713471D01*
X395139Y713388D01*
X395191Y713307D01*
X395246Y713228D01*
X395304Y713151D01*
X395365Y713077D01*
X395429Y713005D01*
X395496Y712935D01*
X395566Y712868D01*
X395638Y712804D01*
X395712Y712743D01*
X395789Y712685D01*
X395868Y712630D01*
X395949Y712578D01*
X396032Y712529D01*
X396117Y712484D01*
X396204Y712442D01*
X396293Y712403D01*
X396382Y712368D01*
X396473Y712336D01*
X396566Y712308D01*
X396659Y712284D01*
X396753Y712263D01*
X396848Y712246D01*
X396943Y712233D01*
X397039Y712224D01*
X397136Y712218D01*
X397232Y712216D01*
X401324Y712216D01*
X401324Y722037D01*
X408501Y717945D02*
X418322Y717945D01*
X425708Y712216D02*
X425708Y726948D01*
X425708Y712216D02*
X432256Y712216D01*
X440661Y717945D02*
X444344Y717945D01*
X440661Y717946D02*
X440555Y717944D01*
X440449Y717938D01*
X440344Y717928D01*
X440239Y717915D01*
X440135Y717897D01*
X440031Y717876D01*
X439928Y717851D01*
X439826Y717822D01*
X439725Y717789D01*
X439626Y717753D01*
X439528Y717712D01*
X439432Y717669D01*
X439337Y717622D01*
X439244Y717571D01*
X439153Y717517D01*
X439064Y717459D01*
X438977Y717399D01*
X438892Y717335D01*
X438810Y717268D01*
X438731Y717198D01*
X438654Y717125D01*
X438580Y717050D01*
X438508Y716972D01*
X438440Y716891D01*
X438375Y716808D01*
X438312Y716722D01*
X438253Y716634D01*
X438198Y716544D01*
X438145Y716452D01*
X438096Y716358D01*
X438051Y716262D01*
X438009Y716165D01*
X437971Y716066D01*
X437936Y715966D01*
X437905Y715865D01*
X437878Y715763D01*
X437855Y715659D01*
X437836Y715555D01*
X437820Y715451D01*
X437808Y715345D01*
X437800Y715240D01*
X437796Y715134D01*
X437796Y715028D01*
X437800Y714922D01*
X437808Y714817D01*
X437820Y714711D01*
X437836Y714607D01*
X437855Y714503D01*
X437878Y714399D01*
X437905Y714297D01*
X437936Y714196D01*
X437971Y714096D01*
X438009Y713997D01*
X438051Y713900D01*
X438096Y713804D01*
X438145Y713710D01*
X438198Y713618D01*
X438253Y713528D01*
X438312Y713440D01*
X438375Y713354D01*
X438440Y713271D01*
X438508Y713190D01*
X438580Y713112D01*
X438654Y713037D01*
X438731Y712964D01*
X438810Y712894D01*
X438892Y712827D01*
X438977Y712763D01*
X439064Y712703D01*
X439153Y712645D01*
X439244Y712591D01*
X439337Y712540D01*
X439432Y712493D01*
X439528Y712450D01*
X439626Y712409D01*
X439725Y712373D01*
X439826Y712340D01*
X439928Y712311D01*
X440031Y712286D01*
X440135Y712265D01*
X440239Y712247D01*
X440344Y712234D01*
X440449Y712224D01*
X440555Y712218D01*
X440661Y712216D01*
X444344Y712216D01*
X444344Y719582D01*
X444342Y719678D01*
X444336Y719775D01*
X444327Y719871D01*
X444314Y719966D01*
X444297Y720061D01*
X444276Y720155D01*
X444252Y720248D01*
X444224Y720341D01*
X444192Y720432D01*
X444157Y720521D01*
X444118Y720610D01*
X444076Y720697D01*
X444031Y720782D01*
X443982Y720865D01*
X443930Y720946D01*
X443875Y721025D01*
X443817Y721102D01*
X443756Y721176D01*
X443692Y721248D01*
X443625Y721318D01*
X443555Y721385D01*
X443483Y721449D01*
X443409Y721510D01*
X443332Y721568D01*
X443253Y721623D01*
X443172Y721675D01*
X443089Y721724D01*
X443004Y721769D01*
X442917Y721811D01*
X442828Y721850D01*
X442739Y721885D01*
X442648Y721917D01*
X442555Y721945D01*
X442462Y721969D01*
X442368Y721990D01*
X442273Y722007D01*
X442178Y722020D01*
X442082Y722029D01*
X441985Y722035D01*
X441889Y722037D01*
X438615Y722037D01*
X450771Y707305D02*
X452408Y707305D01*
X457319Y722037D01*
X450771Y722037D02*
X454045Y712216D01*
X465615Y712216D02*
X469707Y712216D01*
X465615Y712216D02*
X465519Y712218D01*
X465422Y712224D01*
X465326Y712233D01*
X465231Y712246D01*
X465136Y712263D01*
X465042Y712284D01*
X464949Y712308D01*
X464856Y712336D01*
X464765Y712368D01*
X464676Y712403D01*
X464587Y712442D01*
X464500Y712484D01*
X464415Y712529D01*
X464332Y712578D01*
X464251Y712630D01*
X464172Y712685D01*
X464095Y712743D01*
X464021Y712804D01*
X463949Y712868D01*
X463879Y712935D01*
X463812Y713005D01*
X463748Y713077D01*
X463687Y713151D01*
X463629Y713228D01*
X463574Y713307D01*
X463522Y713388D01*
X463473Y713471D01*
X463428Y713556D01*
X463386Y713643D01*
X463347Y713732D01*
X463312Y713821D01*
X463280Y713912D01*
X463252Y714005D01*
X463228Y714098D01*
X463207Y714192D01*
X463190Y714287D01*
X463177Y714382D01*
X463168Y714478D01*
X463162Y714575D01*
X463160Y714671D01*
X463159Y714671D02*
X463159Y718764D01*
X463161Y718877D01*
X463167Y718990D01*
X463177Y719102D01*
X463190Y719215D01*
X463208Y719326D01*
X463229Y719437D01*
X463254Y719548D01*
X463283Y719657D01*
X463316Y719765D01*
X463352Y719872D01*
X463392Y719978D01*
X463436Y720082D01*
X463483Y720185D01*
X463534Y720286D01*
X463588Y720385D01*
X463646Y720482D01*
X463707Y720577D01*
X463771Y720670D01*
X463838Y720761D01*
X463909Y720849D01*
X463982Y720935D01*
X464059Y721018D01*
X464138Y721099D01*
X464220Y721177D01*
X464305Y721252D01*
X464392Y721324D01*
X464481Y721393D01*
X464573Y721458D01*
X464667Y721521D01*
X464763Y721580D01*
X464862Y721636D01*
X464962Y721689D01*
X465064Y721738D01*
X465167Y721783D01*
X465272Y721825D01*
X465378Y721863D01*
X465486Y721898D01*
X465595Y721929D01*
X465704Y721956D01*
X465815Y721979D01*
X465926Y721999D01*
X466038Y722014D01*
X466151Y722026D01*
X466264Y722034D01*
X466376Y722038D01*
X466490Y722038D01*
X466602Y722034D01*
X466715Y722026D01*
X466828Y722014D01*
X466940Y721999D01*
X467051Y721979D01*
X467162Y721956D01*
X467271Y721929D01*
X467380Y721898D01*
X467488Y721863D01*
X467594Y721825D01*
X467699Y721783D01*
X467802Y721738D01*
X467904Y721689D01*
X468004Y721636D01*
X468103Y721580D01*
X468199Y721521D01*
X468293Y721458D01*
X468385Y721393D01*
X468474Y721324D01*
X468561Y721252D01*
X468646Y721177D01*
X468728Y721099D01*
X468807Y721018D01*
X468884Y720935D01*
X468957Y720849D01*
X469028Y720761D01*
X469095Y720670D01*
X469159Y720577D01*
X469220Y720482D01*
X469278Y720385D01*
X469332Y720286D01*
X469383Y720185D01*
X469430Y720082D01*
X469474Y719978D01*
X469514Y719872D01*
X469550Y719765D01*
X469583Y719657D01*
X469612Y719548D01*
X469637Y719437D01*
X469658Y719326D01*
X469676Y719215D01*
X469689Y719102D01*
X469699Y718990D01*
X469705Y718877D01*
X469707Y718764D01*
X469707Y717127D01*
X463159Y717127D01*
X476643Y712216D02*
X476643Y722037D01*
X481553Y722037D01*
X481553Y720400D01*
X487677Y717945D02*
X491769Y716308D01*
X487677Y717945D02*
X487594Y717980D01*
X487512Y718019D01*
X487432Y718062D01*
X487354Y718107D01*
X487277Y718156D01*
X487203Y718209D01*
X487132Y718264D01*
X487062Y718323D01*
X486996Y718384D01*
X486932Y718448D01*
X486871Y718515D01*
X486812Y718584D01*
X486757Y718656D01*
X486705Y718730D01*
X486656Y718806D01*
X486610Y718884D01*
X486568Y718965D01*
X486529Y719046D01*
X486494Y719130D01*
X486462Y719215D01*
X486434Y719301D01*
X486409Y719388D01*
X486389Y719476D01*
X486372Y719565D01*
X486359Y719655D01*
X486350Y719745D01*
X486344Y719836D01*
X486343Y719926D01*
X486345Y720017D01*
X486352Y720107D01*
X486362Y720197D01*
X486376Y720287D01*
X486394Y720375D01*
X486415Y720463D01*
X486440Y720550D01*
X486469Y720636D01*
X486502Y720721D01*
X486538Y720804D01*
X486578Y720885D01*
X486621Y720965D01*
X486667Y721043D01*
X486717Y721118D01*
X486770Y721192D01*
X486826Y721263D01*
X486885Y721332D01*
X486947Y721398D01*
X487012Y721461D01*
X487079Y721522D01*
X487149Y721580D01*
X487221Y721634D01*
X487296Y721686D01*
X487373Y721734D01*
X487451Y721779D01*
X487532Y721821D01*
X487614Y721859D01*
X487698Y721893D01*
X487783Y721924D01*
X487869Y721952D01*
X487957Y721975D01*
X488045Y721995D01*
X488134Y722011D01*
X488224Y722023D01*
X488314Y722032D01*
X488405Y722036D01*
X488495Y722037D01*
X488718Y722031D01*
X488941Y722020D01*
X489164Y722003D01*
X489387Y721981D01*
X489608Y721954D01*
X489829Y721921D01*
X490050Y721883D01*
X490269Y721840D01*
X490487Y721792D01*
X490704Y721738D01*
X490920Y721679D01*
X491134Y721615D01*
X491346Y721546D01*
X491557Y721472D01*
X491766Y721392D01*
X491973Y721308D01*
X492178Y721219D01*
X491769Y716308D02*
X491852Y716273D01*
X491934Y716234D01*
X492014Y716191D01*
X492092Y716146D01*
X492169Y716097D01*
X492243Y716044D01*
X492314Y715989D01*
X492384Y715930D01*
X492450Y715869D01*
X492514Y715805D01*
X492575Y715738D01*
X492634Y715669D01*
X492689Y715597D01*
X492741Y715523D01*
X492790Y715447D01*
X492836Y715369D01*
X492878Y715288D01*
X492917Y715207D01*
X492952Y715123D01*
X492984Y715038D01*
X493012Y714952D01*
X493037Y714865D01*
X493057Y714777D01*
X493074Y714688D01*
X493087Y714598D01*
X493096Y714508D01*
X493102Y714417D01*
X493103Y714327D01*
X493101Y714236D01*
X493094Y714146D01*
X493084Y714056D01*
X493070Y713966D01*
X493052Y713878D01*
X493031Y713790D01*
X493006Y713703D01*
X492977Y713617D01*
X492944Y713532D01*
X492908Y713449D01*
X492868Y713368D01*
X492825Y713288D01*
X492779Y713210D01*
X492729Y713135D01*
X492676Y713061D01*
X492620Y712990D01*
X492561Y712921D01*
X492499Y712855D01*
X492434Y712792D01*
X492367Y712731D01*
X492297Y712673D01*
X492225Y712619D01*
X492150Y712567D01*
X492073Y712519D01*
X491995Y712474D01*
X491914Y712432D01*
X491832Y712394D01*
X491748Y712360D01*
X491663Y712329D01*
X491577Y712301D01*
X491489Y712278D01*
X491401Y712258D01*
X491312Y712242D01*
X491222Y712230D01*
X491132Y712221D01*
X491041Y712217D01*
X490951Y712216D01*
X490623Y712225D01*
X490295Y712241D01*
X489967Y712265D01*
X489641Y712297D01*
X489315Y712337D01*
X488990Y712384D01*
X488666Y712439D01*
X488344Y712501D01*
X488023Y712572D01*
X487704Y712649D01*
X487387Y712735D01*
X487072Y712827D01*
X486760Y712927D01*
X486449Y713035D01*
X499224Y713444D02*
X499224Y714262D01*
X500043Y714262D01*
X500043Y713444D01*
X499224Y713444D01*
X499224Y719991D02*
X499224Y720810D01*
X500043Y720810D01*
X500043Y719991D01*
X499224Y719991D01*
D25*
X368300Y673100D02*
X368300Y641350D01*
D23*
X248864Y712216D02*
X245590Y712216D01*
X245478Y712218D01*
X245367Y712224D01*
X245255Y712233D01*
X245144Y712246D01*
X245034Y712264D01*
X244924Y712284D01*
X244815Y712309D01*
X244707Y712337D01*
X244600Y712369D01*
X244494Y712405D01*
X244389Y712444D01*
X244286Y712487D01*
X244184Y712533D01*
X244084Y712583D01*
X243985Y712636D01*
X243889Y712693D01*
X243794Y712752D01*
X243702Y712815D01*
X243612Y712881D01*
X243524Y712950D01*
X243438Y713022D01*
X243355Y713097D01*
X243275Y713175D01*
X243197Y713255D01*
X243122Y713338D01*
X243050Y713424D01*
X242981Y713512D01*
X242915Y713602D01*
X242852Y713694D01*
X242793Y713789D01*
X242736Y713885D01*
X242683Y713984D01*
X242633Y714084D01*
X242587Y714186D01*
X242544Y714289D01*
X242505Y714394D01*
X242469Y714500D01*
X242437Y714607D01*
X242409Y714715D01*
X242384Y714824D01*
X242364Y714934D01*
X242346Y715044D01*
X242333Y715155D01*
X242324Y715267D01*
X242318Y715378D01*
X242316Y715490D01*
X242316Y723674D01*
X242318Y723788D01*
X242324Y723902D01*
X242334Y724016D01*
X242348Y724130D01*
X242366Y724243D01*
X242388Y724355D01*
X242413Y724466D01*
X242443Y724576D01*
X242476Y724686D01*
X242513Y724794D01*
X242554Y724900D01*
X242599Y725006D01*
X242647Y725109D01*
X242699Y725211D01*
X242755Y725311D01*
X242813Y725409D01*
X242876Y725505D01*
X242941Y725598D01*
X243010Y725690D01*
X243082Y725778D01*
X243157Y725865D01*
X243235Y725948D01*
X243316Y726029D01*
X243399Y726107D01*
X243486Y726182D01*
X243574Y726254D01*
X243666Y726323D01*
X243759Y726388D01*
X243855Y726450D01*
X243953Y726509D01*
X244053Y726565D01*
X244155Y726617D01*
X244258Y726665D01*
X244364Y726710D01*
X244470Y726751D01*
X244578Y726788D01*
X244688Y726821D01*
X244798Y726851D01*
X244909Y726876D01*
X245021Y726898D01*
X245134Y726916D01*
X245248Y726930D01*
X245362Y726940D01*
X245476Y726946D01*
X245590Y726948D01*
X248864Y726948D01*
X255077Y722037D02*
X255077Y714671D01*
X255079Y714575D01*
X255085Y714478D01*
X255094Y714382D01*
X255107Y714287D01*
X255124Y714192D01*
X255145Y714098D01*
X255169Y714005D01*
X255197Y713912D01*
X255229Y713821D01*
X255264Y713732D01*
X255303Y713643D01*
X255345Y713556D01*
X255390Y713471D01*
X255439Y713388D01*
X255491Y713307D01*
X255546Y713228D01*
X255604Y713151D01*
X255665Y713077D01*
X255729Y713005D01*
X255796Y712935D01*
X255866Y712868D01*
X255938Y712804D01*
X256012Y712743D01*
X256089Y712685D01*
X256168Y712630D01*
X256249Y712578D01*
X256332Y712529D01*
X256417Y712484D01*
X256504Y712442D01*
X256593Y712403D01*
X256682Y712368D01*
X256773Y712336D01*
X256866Y712308D01*
X256959Y712284D01*
X257053Y712263D01*
X257148Y712246D01*
X257243Y712233D01*
X257339Y712224D01*
X257436Y712218D01*
X257532Y712216D01*
X261624Y712216D01*
X261624Y722037D01*
X268347Y714262D02*
X268347Y713444D01*
X268347Y714262D02*
X269166Y714262D01*
X269166Y713444D01*
X268347Y713444D01*
X268347Y719991D02*
X268347Y720810D01*
X269166Y720810D01*
X269166Y719991D01*
X268347Y719991D01*
X18627Y680466D02*
X13716Y695198D01*
X23537Y695198D02*
X18627Y680466D01*
X31683Y680466D02*
X35775Y680466D01*
X31683Y680466D02*
X31587Y680468D01*
X31490Y680474D01*
X31394Y680483D01*
X31299Y680496D01*
X31204Y680513D01*
X31110Y680534D01*
X31017Y680558D01*
X30924Y680586D01*
X30833Y680618D01*
X30744Y680653D01*
X30655Y680692D01*
X30568Y680734D01*
X30483Y680779D01*
X30400Y680828D01*
X30319Y680880D01*
X30240Y680935D01*
X30163Y680993D01*
X30089Y681054D01*
X30017Y681118D01*
X29947Y681185D01*
X29880Y681255D01*
X29816Y681327D01*
X29755Y681401D01*
X29697Y681478D01*
X29642Y681557D01*
X29590Y681638D01*
X29541Y681721D01*
X29496Y681806D01*
X29454Y681893D01*
X29415Y681982D01*
X29380Y682071D01*
X29348Y682162D01*
X29320Y682255D01*
X29296Y682348D01*
X29275Y682442D01*
X29258Y682537D01*
X29245Y682632D01*
X29236Y682728D01*
X29230Y682825D01*
X29228Y682921D01*
X29228Y687014D01*
X29227Y687014D02*
X29229Y687127D01*
X29235Y687240D01*
X29245Y687352D01*
X29258Y687465D01*
X29276Y687576D01*
X29297Y687687D01*
X29322Y687798D01*
X29351Y687907D01*
X29384Y688015D01*
X29420Y688122D01*
X29460Y688228D01*
X29504Y688332D01*
X29551Y688435D01*
X29602Y688536D01*
X29656Y688635D01*
X29714Y688732D01*
X29775Y688827D01*
X29839Y688920D01*
X29906Y689011D01*
X29977Y689099D01*
X30050Y689185D01*
X30127Y689268D01*
X30206Y689349D01*
X30288Y689427D01*
X30373Y689502D01*
X30460Y689574D01*
X30549Y689643D01*
X30641Y689708D01*
X30735Y689771D01*
X30831Y689830D01*
X30930Y689886D01*
X31030Y689939D01*
X31132Y689988D01*
X31235Y690033D01*
X31340Y690075D01*
X31446Y690113D01*
X31554Y690148D01*
X31663Y690179D01*
X31772Y690206D01*
X31883Y690229D01*
X31994Y690249D01*
X32106Y690264D01*
X32219Y690276D01*
X32332Y690284D01*
X32444Y690288D01*
X32558Y690288D01*
X32670Y690284D01*
X32783Y690276D01*
X32896Y690264D01*
X33008Y690249D01*
X33119Y690229D01*
X33230Y690206D01*
X33339Y690179D01*
X33448Y690148D01*
X33556Y690113D01*
X33662Y690075D01*
X33767Y690033D01*
X33870Y689988D01*
X33972Y689939D01*
X34072Y689886D01*
X34171Y689830D01*
X34267Y689771D01*
X34361Y689708D01*
X34453Y689643D01*
X34542Y689574D01*
X34629Y689502D01*
X34714Y689427D01*
X34796Y689349D01*
X34875Y689268D01*
X34952Y689185D01*
X35025Y689099D01*
X35096Y689011D01*
X35163Y688920D01*
X35227Y688827D01*
X35288Y688732D01*
X35346Y688635D01*
X35400Y688536D01*
X35451Y688435D01*
X35498Y688332D01*
X35542Y688228D01*
X35582Y688122D01*
X35618Y688015D01*
X35651Y687907D01*
X35680Y687798D01*
X35705Y687687D01*
X35726Y687576D01*
X35744Y687465D01*
X35757Y687352D01*
X35767Y687240D01*
X35773Y687127D01*
X35775Y687014D01*
X35775Y685377D01*
X29228Y685377D01*
X42711Y680466D02*
X42711Y690287D01*
X47621Y690287D01*
X47621Y688650D01*
X53745Y686195D02*
X57837Y684558D01*
X53745Y686195D02*
X53662Y686230D01*
X53580Y686269D01*
X53500Y686312D01*
X53422Y686357D01*
X53345Y686406D01*
X53271Y686459D01*
X53200Y686514D01*
X53130Y686573D01*
X53064Y686634D01*
X53000Y686698D01*
X52939Y686765D01*
X52880Y686834D01*
X52825Y686906D01*
X52773Y686980D01*
X52724Y687056D01*
X52678Y687134D01*
X52636Y687215D01*
X52597Y687296D01*
X52562Y687380D01*
X52530Y687465D01*
X52502Y687551D01*
X52477Y687638D01*
X52457Y687726D01*
X52440Y687815D01*
X52427Y687905D01*
X52418Y687995D01*
X52412Y688086D01*
X52411Y688176D01*
X52413Y688267D01*
X52420Y688357D01*
X52430Y688447D01*
X52444Y688537D01*
X52462Y688625D01*
X52483Y688713D01*
X52508Y688800D01*
X52537Y688886D01*
X52570Y688971D01*
X52606Y689054D01*
X52646Y689135D01*
X52689Y689215D01*
X52735Y689293D01*
X52785Y689368D01*
X52838Y689442D01*
X52894Y689513D01*
X52953Y689582D01*
X53015Y689648D01*
X53080Y689711D01*
X53147Y689772D01*
X53217Y689830D01*
X53289Y689884D01*
X53364Y689936D01*
X53441Y689984D01*
X53519Y690029D01*
X53600Y690071D01*
X53682Y690109D01*
X53766Y690143D01*
X53851Y690174D01*
X53937Y690202D01*
X54025Y690225D01*
X54113Y690245D01*
X54202Y690261D01*
X54292Y690273D01*
X54382Y690282D01*
X54473Y690286D01*
X54563Y690287D01*
X54564Y690287D02*
X54787Y690281D01*
X55010Y690270D01*
X55233Y690253D01*
X55456Y690231D01*
X55677Y690204D01*
X55898Y690171D01*
X56119Y690133D01*
X56338Y690090D01*
X56556Y690042D01*
X56773Y689988D01*
X56989Y689929D01*
X57203Y689865D01*
X57415Y689796D01*
X57626Y689722D01*
X57835Y689642D01*
X58042Y689558D01*
X58247Y689469D01*
X57837Y684558D02*
X57920Y684523D01*
X58002Y684484D01*
X58082Y684441D01*
X58160Y684396D01*
X58237Y684347D01*
X58311Y684294D01*
X58382Y684239D01*
X58452Y684180D01*
X58518Y684119D01*
X58582Y684055D01*
X58643Y683988D01*
X58702Y683919D01*
X58757Y683847D01*
X58809Y683773D01*
X58858Y683697D01*
X58904Y683619D01*
X58946Y683538D01*
X58985Y683457D01*
X59020Y683373D01*
X59052Y683288D01*
X59080Y683202D01*
X59105Y683115D01*
X59125Y683027D01*
X59142Y682938D01*
X59155Y682848D01*
X59164Y682758D01*
X59170Y682667D01*
X59171Y682577D01*
X59169Y682486D01*
X59162Y682396D01*
X59152Y682306D01*
X59138Y682216D01*
X59120Y682128D01*
X59099Y682040D01*
X59074Y681953D01*
X59045Y681867D01*
X59012Y681782D01*
X58976Y681699D01*
X58936Y681618D01*
X58893Y681538D01*
X58847Y681460D01*
X58797Y681385D01*
X58744Y681311D01*
X58688Y681240D01*
X58629Y681171D01*
X58567Y681105D01*
X58502Y681042D01*
X58435Y680981D01*
X58365Y680923D01*
X58293Y680869D01*
X58218Y680817D01*
X58141Y680769D01*
X58063Y680724D01*
X57982Y680682D01*
X57900Y680644D01*
X57816Y680610D01*
X57731Y680579D01*
X57645Y680551D01*
X57557Y680528D01*
X57469Y680508D01*
X57380Y680492D01*
X57290Y680480D01*
X57200Y680471D01*
X57109Y680467D01*
X57019Y680466D01*
X56691Y680475D01*
X56363Y680491D01*
X56035Y680515D01*
X55709Y680547D01*
X55383Y680587D01*
X55058Y680634D01*
X54734Y680689D01*
X54412Y680751D01*
X54091Y680822D01*
X53772Y680899D01*
X53455Y680985D01*
X53140Y681077D01*
X52828Y681177D01*
X52517Y681285D01*
X68175Y686195D02*
X71858Y686195D01*
X68175Y686196D02*
X68069Y686194D01*
X67963Y686188D01*
X67858Y686178D01*
X67753Y686165D01*
X67649Y686147D01*
X67545Y686126D01*
X67442Y686101D01*
X67340Y686072D01*
X67239Y686039D01*
X67140Y686003D01*
X67042Y685962D01*
X66946Y685919D01*
X66851Y685872D01*
X66758Y685821D01*
X66667Y685767D01*
X66578Y685709D01*
X66491Y685649D01*
X66406Y685585D01*
X66324Y685518D01*
X66245Y685448D01*
X66168Y685375D01*
X66094Y685300D01*
X66022Y685222D01*
X65954Y685141D01*
X65889Y685058D01*
X65826Y684972D01*
X65767Y684884D01*
X65712Y684794D01*
X65659Y684702D01*
X65610Y684608D01*
X65565Y684512D01*
X65523Y684415D01*
X65485Y684316D01*
X65450Y684216D01*
X65419Y684115D01*
X65392Y684013D01*
X65369Y683909D01*
X65350Y683805D01*
X65334Y683701D01*
X65322Y683595D01*
X65314Y683490D01*
X65310Y683384D01*
X65310Y683278D01*
X65314Y683172D01*
X65322Y683067D01*
X65334Y682961D01*
X65350Y682857D01*
X65369Y682753D01*
X65392Y682649D01*
X65419Y682547D01*
X65450Y682446D01*
X65485Y682346D01*
X65523Y682247D01*
X65565Y682150D01*
X65610Y682054D01*
X65659Y681960D01*
X65712Y681868D01*
X65767Y681778D01*
X65826Y681690D01*
X65889Y681604D01*
X65954Y681521D01*
X66022Y681440D01*
X66094Y681362D01*
X66168Y681287D01*
X66245Y681214D01*
X66324Y681144D01*
X66406Y681077D01*
X66491Y681013D01*
X66578Y680953D01*
X66667Y680895D01*
X66758Y680841D01*
X66851Y680790D01*
X66946Y680743D01*
X67042Y680700D01*
X67140Y680659D01*
X67239Y680623D01*
X67340Y680590D01*
X67442Y680561D01*
X67545Y680536D01*
X67649Y680515D01*
X67753Y680497D01*
X67858Y680484D01*
X67963Y680474D01*
X68069Y680468D01*
X68175Y680466D01*
X71858Y680466D01*
X71858Y687832D01*
X71856Y687928D01*
X71850Y688025D01*
X71841Y688121D01*
X71828Y688216D01*
X71811Y688311D01*
X71790Y688405D01*
X71766Y688498D01*
X71738Y688591D01*
X71706Y688682D01*
X71671Y688771D01*
X71632Y688860D01*
X71590Y688947D01*
X71545Y689032D01*
X71496Y689115D01*
X71444Y689196D01*
X71389Y689275D01*
X71331Y689352D01*
X71270Y689426D01*
X71206Y689498D01*
X71139Y689568D01*
X71069Y689635D01*
X70997Y689699D01*
X70923Y689760D01*
X70846Y689818D01*
X70767Y689873D01*
X70686Y689925D01*
X70603Y689974D01*
X70518Y690019D01*
X70431Y690061D01*
X70342Y690100D01*
X70253Y690135D01*
X70162Y690167D01*
X70069Y690195D01*
X69976Y690219D01*
X69882Y690240D01*
X69787Y690257D01*
X69692Y690270D01*
X69596Y690279D01*
X69499Y690285D01*
X69403Y690287D01*
X66129Y690287D01*
X78953Y688650D02*
X83863Y688650D01*
X83863Y688651D02*
X83975Y688649D01*
X84086Y688643D01*
X84198Y688634D01*
X84309Y688621D01*
X84419Y688603D01*
X84529Y688583D01*
X84638Y688558D01*
X84746Y688530D01*
X84853Y688498D01*
X84959Y688462D01*
X85064Y688423D01*
X85167Y688380D01*
X85269Y688334D01*
X85369Y688284D01*
X85468Y688231D01*
X85564Y688174D01*
X85659Y688115D01*
X85751Y688052D01*
X85841Y687986D01*
X85929Y687917D01*
X86015Y687845D01*
X86098Y687770D01*
X86178Y687692D01*
X86256Y687612D01*
X86331Y687529D01*
X86403Y687443D01*
X86472Y687355D01*
X86538Y687265D01*
X86601Y687173D01*
X86660Y687078D01*
X86717Y686982D01*
X86770Y686883D01*
X86820Y686783D01*
X86866Y686681D01*
X86909Y686578D01*
X86948Y686473D01*
X86984Y686367D01*
X87016Y686260D01*
X87044Y686152D01*
X87069Y686043D01*
X87089Y685933D01*
X87107Y685823D01*
X87120Y685712D01*
X87129Y685600D01*
X87135Y685489D01*
X87137Y685377D01*
X87137Y684558D01*
X87135Y684431D01*
X87129Y684304D01*
X87119Y684177D01*
X87105Y684050D01*
X87088Y683924D01*
X87066Y683799D01*
X87040Y683674D01*
X87011Y683550D01*
X86978Y683427D01*
X86941Y683306D01*
X86900Y683185D01*
X86855Y683066D01*
X86807Y682948D01*
X86755Y682832D01*
X86700Y682717D01*
X86641Y682605D01*
X86578Y682494D01*
X86512Y682385D01*
X86443Y682278D01*
X86370Y682173D01*
X86295Y682071D01*
X86216Y681971D01*
X86134Y681874D01*
X86049Y681779D01*
X85961Y681687D01*
X85870Y681598D01*
X85777Y681511D01*
X85681Y681428D01*
X85582Y681347D01*
X85481Y681270D01*
X85378Y681196D01*
X85272Y681125D01*
X85164Y681057D01*
X85054Y680993D01*
X84942Y680932D01*
X84829Y680875D01*
X84713Y680821D01*
X84596Y680771D01*
X84478Y680725D01*
X84358Y680682D01*
X84237Y680643D01*
X84114Y680608D01*
X83991Y680577D01*
X83867Y680549D01*
X83742Y680526D01*
X83616Y680506D01*
X83490Y680490D01*
X83363Y680478D01*
X83236Y680470D01*
X83109Y680466D01*
X82981Y680466D01*
X82854Y680470D01*
X82727Y680478D01*
X82600Y680490D01*
X82474Y680506D01*
X82348Y680526D01*
X82223Y680549D01*
X82099Y680577D01*
X81976Y680608D01*
X81853Y680643D01*
X81732Y680682D01*
X81612Y680725D01*
X81494Y680771D01*
X81377Y680821D01*
X81261Y680875D01*
X81148Y680932D01*
X81036Y680993D01*
X80926Y681057D01*
X80818Y681125D01*
X80712Y681196D01*
X80609Y681270D01*
X80508Y681347D01*
X80409Y681428D01*
X80313Y681511D01*
X80220Y681598D01*
X80129Y681687D01*
X80041Y681779D01*
X79956Y681874D01*
X79874Y681971D01*
X79795Y682071D01*
X79720Y682173D01*
X79647Y682278D01*
X79578Y682385D01*
X79512Y682494D01*
X79449Y682605D01*
X79390Y682717D01*
X79335Y682832D01*
X79283Y682948D01*
X79235Y683066D01*
X79190Y683185D01*
X79149Y683306D01*
X79112Y683427D01*
X79079Y683550D01*
X79050Y683674D01*
X79024Y683799D01*
X79002Y683924D01*
X78985Y684050D01*
X78971Y684177D01*
X78961Y684304D01*
X78955Y684431D01*
X78953Y684558D01*
X78953Y688650D01*
X78952Y688650D02*
X78954Y688811D01*
X78960Y688971D01*
X78970Y689132D01*
X78984Y689292D01*
X79001Y689452D01*
X79023Y689611D01*
X79048Y689769D01*
X79078Y689927D01*
X79111Y690085D01*
X79148Y690241D01*
X79189Y690396D01*
X79234Y690551D01*
X79282Y690704D01*
X79335Y690856D01*
X79391Y691007D01*
X79450Y691156D01*
X79514Y691304D01*
X79581Y691450D01*
X79651Y691594D01*
X79725Y691737D01*
X79803Y691877D01*
X79884Y692016D01*
X79968Y692153D01*
X80056Y692288D01*
X80146Y692420D01*
X80241Y692551D01*
X80338Y692679D01*
X80438Y692804D01*
X80542Y692927D01*
X80648Y693047D01*
X80758Y693165D01*
X80870Y693280D01*
X80985Y693392D01*
X81103Y693502D01*
X81223Y693608D01*
X81346Y693712D01*
X81471Y693812D01*
X81599Y693909D01*
X81730Y694004D01*
X81862Y694094D01*
X81997Y694182D01*
X82134Y694266D01*
X82272Y694347D01*
X82413Y694425D01*
X82556Y694499D01*
X82700Y694569D01*
X82846Y694636D01*
X82994Y694700D01*
X83143Y694759D01*
X83294Y694815D01*
X83446Y694868D01*
X83599Y694916D01*
X83754Y694961D01*
X83909Y695002D01*
X84065Y695039D01*
X84223Y695072D01*
X84381Y695102D01*
X84539Y695127D01*
X84698Y695149D01*
X84858Y695166D01*
X85018Y695180D01*
X85179Y695190D01*
X85339Y695196D01*
X85500Y695198D01*
X97092Y695198D02*
X93819Y683740D01*
X102003Y683740D01*
X99548Y687014D02*
X99548Y680466D01*
X111908Y680466D02*
X115182Y680466D01*
X111908Y680466D02*
X111796Y680468D01*
X111685Y680474D01*
X111573Y680483D01*
X111462Y680496D01*
X111352Y680514D01*
X111242Y680534D01*
X111133Y680559D01*
X111025Y680587D01*
X110918Y680619D01*
X110812Y680655D01*
X110707Y680694D01*
X110604Y680737D01*
X110502Y680783D01*
X110402Y680833D01*
X110303Y680886D01*
X110207Y680943D01*
X110112Y681002D01*
X110020Y681065D01*
X109930Y681131D01*
X109842Y681200D01*
X109756Y681272D01*
X109673Y681347D01*
X109593Y681425D01*
X109515Y681505D01*
X109440Y681588D01*
X109368Y681674D01*
X109299Y681762D01*
X109233Y681852D01*
X109170Y681944D01*
X109111Y682039D01*
X109054Y682135D01*
X109001Y682234D01*
X108951Y682334D01*
X108905Y682436D01*
X108862Y682539D01*
X108823Y682644D01*
X108787Y682750D01*
X108755Y682857D01*
X108727Y682965D01*
X108702Y683074D01*
X108682Y683184D01*
X108664Y683294D01*
X108651Y683405D01*
X108642Y683517D01*
X108636Y683628D01*
X108634Y683740D01*
X108635Y683740D02*
X108635Y691924D01*
X108634Y691924D02*
X108636Y692038D01*
X108642Y692152D01*
X108652Y692266D01*
X108666Y692380D01*
X108684Y692493D01*
X108706Y692605D01*
X108731Y692716D01*
X108761Y692826D01*
X108794Y692936D01*
X108831Y693044D01*
X108872Y693150D01*
X108917Y693256D01*
X108965Y693359D01*
X109017Y693461D01*
X109073Y693561D01*
X109131Y693659D01*
X109194Y693755D01*
X109259Y693848D01*
X109328Y693940D01*
X109400Y694028D01*
X109475Y694115D01*
X109553Y694198D01*
X109634Y694279D01*
X109717Y694357D01*
X109804Y694432D01*
X109892Y694504D01*
X109984Y694573D01*
X110077Y694638D01*
X110173Y694700D01*
X110271Y694759D01*
X110371Y694815D01*
X110473Y694867D01*
X110576Y694915D01*
X110682Y694960D01*
X110788Y695001D01*
X110896Y695038D01*
X111006Y695071D01*
X111116Y695101D01*
X111227Y695126D01*
X111339Y695148D01*
X111452Y695166D01*
X111566Y695180D01*
X111680Y695190D01*
X111794Y695196D01*
X111908Y695198D01*
X115182Y695198D01*
X123674Y686195D02*
X127357Y686195D01*
X123674Y686196D02*
X123568Y686194D01*
X123462Y686188D01*
X123357Y686178D01*
X123252Y686165D01*
X123148Y686147D01*
X123044Y686126D01*
X122941Y686101D01*
X122839Y686072D01*
X122738Y686039D01*
X122639Y686003D01*
X122541Y685962D01*
X122445Y685919D01*
X122350Y685872D01*
X122257Y685821D01*
X122166Y685767D01*
X122077Y685709D01*
X121990Y685649D01*
X121905Y685585D01*
X121823Y685518D01*
X121744Y685448D01*
X121667Y685375D01*
X121593Y685300D01*
X121521Y685222D01*
X121453Y685141D01*
X121388Y685058D01*
X121325Y684972D01*
X121266Y684884D01*
X121211Y684794D01*
X121158Y684702D01*
X121109Y684608D01*
X121064Y684512D01*
X121022Y684415D01*
X120984Y684316D01*
X120949Y684216D01*
X120918Y684115D01*
X120891Y684013D01*
X120868Y683909D01*
X120849Y683805D01*
X120833Y683701D01*
X120821Y683595D01*
X120813Y683490D01*
X120809Y683384D01*
X120809Y683278D01*
X120813Y683172D01*
X120821Y683067D01*
X120833Y682961D01*
X120849Y682857D01*
X120868Y682753D01*
X120891Y682649D01*
X120918Y682547D01*
X120949Y682446D01*
X120984Y682346D01*
X121022Y682247D01*
X121064Y682150D01*
X121109Y682054D01*
X121158Y681960D01*
X121211Y681868D01*
X121266Y681778D01*
X121325Y681690D01*
X121388Y681604D01*
X121453Y681521D01*
X121521Y681440D01*
X121593Y681362D01*
X121667Y681287D01*
X121744Y681214D01*
X121823Y681144D01*
X121905Y681077D01*
X121990Y681013D01*
X122077Y680953D01*
X122166Y680895D01*
X122257Y680841D01*
X122350Y680790D01*
X122445Y680743D01*
X122541Y680700D01*
X122639Y680659D01*
X122738Y680623D01*
X122839Y680590D01*
X122941Y680561D01*
X123044Y680536D01*
X123148Y680515D01*
X123252Y680497D01*
X123357Y680484D01*
X123462Y680474D01*
X123568Y680468D01*
X123674Y680466D01*
X127357Y680466D01*
X127357Y687832D01*
X127356Y687832D02*
X127354Y687928D01*
X127348Y688025D01*
X127339Y688121D01*
X127326Y688216D01*
X127309Y688311D01*
X127288Y688405D01*
X127264Y688498D01*
X127236Y688591D01*
X127204Y688682D01*
X127169Y688771D01*
X127130Y688860D01*
X127088Y688947D01*
X127043Y689032D01*
X126994Y689115D01*
X126942Y689196D01*
X126887Y689275D01*
X126829Y689352D01*
X126768Y689426D01*
X126704Y689498D01*
X126637Y689568D01*
X126567Y689635D01*
X126495Y689699D01*
X126421Y689760D01*
X126344Y689818D01*
X126265Y689873D01*
X126184Y689925D01*
X126101Y689974D01*
X126016Y690019D01*
X125929Y690061D01*
X125840Y690100D01*
X125751Y690135D01*
X125660Y690167D01*
X125567Y690195D01*
X125474Y690219D01*
X125380Y690240D01*
X125285Y690257D01*
X125190Y690270D01*
X125094Y690279D01*
X124997Y690285D01*
X124901Y690287D01*
X121628Y690287D01*
X134879Y690287D02*
X134879Y680466D01*
X134879Y690287D02*
X139789Y690287D01*
X139789Y688650D01*
X143378Y690287D02*
X148289Y690287D01*
X145015Y695198D02*
X145015Y682921D01*
X145017Y682825D01*
X145023Y682728D01*
X145032Y682632D01*
X145045Y682537D01*
X145062Y682442D01*
X145083Y682348D01*
X145107Y682255D01*
X145135Y682162D01*
X145167Y682071D01*
X145202Y681982D01*
X145241Y681893D01*
X145283Y681806D01*
X145328Y681721D01*
X145377Y681638D01*
X145429Y681557D01*
X145484Y681478D01*
X145542Y681401D01*
X145603Y681327D01*
X145667Y681255D01*
X145734Y681185D01*
X145804Y681118D01*
X145876Y681054D01*
X145950Y680993D01*
X146027Y680935D01*
X146106Y680880D01*
X146187Y680828D01*
X146270Y680779D01*
X146355Y680734D01*
X146442Y680691D01*
X146531Y680653D01*
X146620Y680618D01*
X146711Y680586D01*
X146804Y680558D01*
X146897Y680534D01*
X146991Y680513D01*
X147086Y680496D01*
X147181Y680483D01*
X147277Y680474D01*
X147374Y680468D01*
X147470Y680466D01*
X147471Y680466D02*
X148289Y680466D01*
X153605Y678829D02*
X160152Y678829D01*
X168771Y680466D02*
X165497Y690287D01*
X172045Y690287D02*
X168771Y680466D01*
X178058Y691924D02*
X182150Y695198D01*
X182150Y680466D01*
X178058Y680466D02*
X186242Y680466D01*
X192256Y678829D02*
X198803Y678829D01*
X204816Y680466D02*
X209727Y680466D01*
X209841Y680468D01*
X209955Y680474D01*
X210069Y680484D01*
X210183Y680498D01*
X210296Y680516D01*
X210408Y680538D01*
X210519Y680563D01*
X210629Y680593D01*
X210739Y680626D01*
X210847Y680663D01*
X210953Y680704D01*
X211059Y680749D01*
X211162Y680797D01*
X211264Y680849D01*
X211364Y680905D01*
X211462Y680963D01*
X211558Y681026D01*
X211651Y681091D01*
X211743Y681160D01*
X211831Y681232D01*
X211918Y681307D01*
X212001Y681385D01*
X212082Y681466D01*
X212160Y681549D01*
X212235Y681636D01*
X212307Y681724D01*
X212376Y681816D01*
X212441Y681909D01*
X212503Y682005D01*
X212562Y682103D01*
X212618Y682203D01*
X212670Y682305D01*
X212718Y682408D01*
X212763Y682514D01*
X212804Y682620D01*
X212841Y682728D01*
X212874Y682838D01*
X212904Y682948D01*
X212929Y683059D01*
X212951Y683171D01*
X212969Y683284D01*
X212983Y683398D01*
X212993Y683512D01*
X212999Y683626D01*
X213001Y683740D01*
X213001Y685377D01*
X212999Y685489D01*
X212993Y685600D01*
X212984Y685712D01*
X212971Y685823D01*
X212953Y685933D01*
X212933Y686043D01*
X212908Y686152D01*
X212880Y686260D01*
X212848Y686367D01*
X212812Y686473D01*
X212773Y686578D01*
X212730Y686681D01*
X212684Y686783D01*
X212634Y686883D01*
X212581Y686982D01*
X212524Y687078D01*
X212465Y687173D01*
X212402Y687265D01*
X212336Y687355D01*
X212267Y687443D01*
X212195Y687529D01*
X212120Y687612D01*
X212042Y687692D01*
X211962Y687770D01*
X211879Y687845D01*
X211793Y687917D01*
X211705Y687986D01*
X211615Y688052D01*
X211523Y688115D01*
X211428Y688174D01*
X211332Y688231D01*
X211233Y688284D01*
X211133Y688334D01*
X211031Y688380D01*
X210928Y688423D01*
X210823Y688462D01*
X210717Y688498D01*
X210610Y688530D01*
X210502Y688558D01*
X210393Y688583D01*
X210283Y688603D01*
X210173Y688621D01*
X210062Y688634D01*
X209950Y688643D01*
X209839Y688649D01*
X209727Y688651D01*
X209727Y688650D02*
X204816Y688650D01*
X204816Y695198D01*
X213001Y695198D01*
X14944Y661402D02*
X14820Y661140D01*
X14702Y660875D01*
X14591Y660607D01*
X14486Y660337D01*
X14388Y660064D01*
X14296Y659790D01*
X14211Y659513D01*
X14132Y659234D01*
X14060Y658953D01*
X13995Y658670D01*
X13937Y658387D01*
X13885Y658101D01*
X13840Y657815D01*
X13802Y657528D01*
X13771Y657240D01*
X13747Y656951D01*
X13730Y656661D01*
X13719Y656372D01*
X13716Y656082D01*
X14944Y661402D02*
X14980Y661503D01*
X15020Y661602D01*
X15064Y661700D01*
X15111Y661797D01*
X15162Y661892D01*
X15215Y661984D01*
X15273Y662075D01*
X15333Y662164D01*
X15396Y662251D01*
X15463Y662335D01*
X15532Y662417D01*
X15604Y662496D01*
X15679Y662573D01*
X15757Y662647D01*
X15837Y662719D01*
X15920Y662787D01*
X16005Y662852D01*
X16092Y662915D01*
X16181Y662974D01*
X16273Y663030D01*
X16366Y663083D01*
X16462Y663132D01*
X16559Y663178D01*
X16657Y663221D01*
X16757Y663260D01*
X16858Y663295D01*
X16961Y663327D01*
X17064Y663355D01*
X17169Y663380D01*
X17274Y663401D01*
X17380Y663418D01*
X17487Y663431D01*
X17594Y663440D01*
X17701Y663446D01*
X17808Y663448D01*
X17915Y663446D01*
X18022Y663440D01*
X18129Y663431D01*
X18236Y663418D01*
X18342Y663401D01*
X18447Y663380D01*
X18552Y663355D01*
X18655Y663327D01*
X18758Y663295D01*
X18859Y663260D01*
X18959Y663221D01*
X19057Y663178D01*
X19154Y663132D01*
X19250Y663083D01*
X19343Y663030D01*
X19435Y662974D01*
X19524Y662915D01*
X19611Y662852D01*
X19696Y662787D01*
X19779Y662719D01*
X19859Y662647D01*
X19937Y662573D01*
X20012Y662496D01*
X20084Y662417D01*
X20153Y662335D01*
X20220Y662251D01*
X20283Y662164D01*
X20343Y662075D01*
X20401Y661984D01*
X20454Y661892D01*
X20505Y661797D01*
X20552Y661700D01*
X20596Y661602D01*
X20636Y661503D01*
X20672Y661402D01*
X20796Y661140D01*
X20914Y660875D01*
X21025Y660607D01*
X21130Y660337D01*
X21228Y660065D01*
X21320Y659790D01*
X21405Y659513D01*
X21484Y659234D01*
X21556Y658953D01*
X21621Y658670D01*
X21679Y658387D01*
X21731Y658101D01*
X21776Y657815D01*
X21814Y657528D01*
X21845Y657240D01*
X21869Y656951D01*
X21886Y656661D01*
X21897Y656372D01*
X21900Y656082D01*
X13716Y656082D02*
X13719Y655792D01*
X13730Y655503D01*
X13747Y655213D01*
X13771Y654924D01*
X13802Y654636D01*
X13840Y654349D01*
X13885Y654063D01*
X13937Y653778D01*
X13995Y653494D01*
X14060Y653211D01*
X14132Y652930D01*
X14211Y652652D01*
X14296Y652375D01*
X14388Y652100D01*
X14486Y651827D01*
X14591Y651557D01*
X14702Y651289D01*
X14820Y651024D01*
X14944Y650762D01*
X14980Y650661D01*
X15020Y650562D01*
X15064Y650463D01*
X15111Y650367D01*
X15162Y650272D01*
X15215Y650180D01*
X15273Y650089D01*
X15333Y650000D01*
X15396Y649913D01*
X15463Y649829D01*
X15532Y649747D01*
X15604Y649668D01*
X15679Y649591D01*
X15757Y649517D01*
X15837Y649445D01*
X15920Y649377D01*
X16005Y649312D01*
X16092Y649249D01*
X16181Y649190D01*
X16273Y649134D01*
X16366Y649081D01*
X16462Y649032D01*
X16559Y648986D01*
X16657Y648943D01*
X16757Y648904D01*
X16858Y648869D01*
X16961Y648837D01*
X17064Y648809D01*
X17169Y648784D01*
X17274Y648763D01*
X17380Y648746D01*
X17487Y648733D01*
X17594Y648724D01*
X17701Y648718D01*
X17808Y648716D01*
X20672Y650762D02*
X20796Y651024D01*
X20914Y651289D01*
X21025Y651557D01*
X21130Y651827D01*
X21228Y652100D01*
X21320Y652374D01*
X21405Y652651D01*
X21484Y652930D01*
X21556Y653211D01*
X21621Y653494D01*
X21679Y653777D01*
X21731Y654063D01*
X21776Y654349D01*
X21814Y654636D01*
X21845Y654924D01*
X21869Y655213D01*
X21886Y655503D01*
X21897Y655792D01*
X21900Y656082D01*
X20672Y650762D02*
X20636Y650661D01*
X20596Y650562D01*
X20552Y650464D01*
X20505Y650367D01*
X20454Y650272D01*
X20401Y650180D01*
X20343Y650089D01*
X20283Y650000D01*
X20220Y649913D01*
X20153Y649829D01*
X20084Y649747D01*
X20012Y649668D01*
X19937Y649591D01*
X19859Y649517D01*
X19779Y649445D01*
X19696Y649377D01*
X19611Y649312D01*
X19524Y649249D01*
X19435Y649190D01*
X19343Y649134D01*
X19250Y649081D01*
X19154Y649032D01*
X19057Y648986D01*
X18959Y648943D01*
X18859Y648904D01*
X18758Y648869D01*
X18655Y648837D01*
X18552Y648809D01*
X18447Y648784D01*
X18342Y648763D01*
X18236Y648746D01*
X18129Y648733D01*
X18022Y648724D01*
X17915Y648718D01*
X17808Y648716D01*
X14534Y651990D02*
X21082Y660174D01*
X28582Y661811D02*
X28582Y663448D01*
X36766Y663448D01*
X32674Y648716D01*
X42671Y648716D02*
X42671Y649534D01*
X43489Y649534D01*
X43489Y648716D01*
X42671Y648716D01*
X49394Y656082D02*
X49397Y656372D01*
X49408Y656661D01*
X49425Y656951D01*
X49449Y657240D01*
X49480Y657528D01*
X49518Y657815D01*
X49563Y658101D01*
X49615Y658387D01*
X49673Y658670D01*
X49738Y658953D01*
X49810Y659234D01*
X49889Y659513D01*
X49974Y659790D01*
X50066Y660064D01*
X50164Y660337D01*
X50269Y660607D01*
X50380Y660875D01*
X50498Y661140D01*
X50622Y661402D01*
X50658Y661503D01*
X50698Y661602D01*
X50742Y661700D01*
X50789Y661797D01*
X50840Y661892D01*
X50893Y661984D01*
X50951Y662075D01*
X51011Y662164D01*
X51074Y662251D01*
X51141Y662335D01*
X51210Y662417D01*
X51282Y662496D01*
X51357Y662573D01*
X51435Y662647D01*
X51515Y662719D01*
X51598Y662787D01*
X51683Y662852D01*
X51770Y662915D01*
X51859Y662974D01*
X51951Y663030D01*
X52044Y663083D01*
X52140Y663132D01*
X52237Y663178D01*
X52335Y663221D01*
X52435Y663260D01*
X52536Y663295D01*
X52639Y663327D01*
X52742Y663355D01*
X52847Y663380D01*
X52952Y663401D01*
X53058Y663418D01*
X53165Y663431D01*
X53272Y663440D01*
X53379Y663446D01*
X53486Y663448D01*
X53593Y663446D01*
X53700Y663440D01*
X53807Y663431D01*
X53914Y663418D01*
X54020Y663401D01*
X54125Y663380D01*
X54230Y663355D01*
X54333Y663327D01*
X54436Y663295D01*
X54537Y663260D01*
X54637Y663221D01*
X54735Y663178D01*
X54832Y663132D01*
X54928Y663083D01*
X55021Y663030D01*
X55113Y662974D01*
X55202Y662915D01*
X55289Y662852D01*
X55374Y662787D01*
X55457Y662719D01*
X55537Y662647D01*
X55615Y662573D01*
X55690Y662496D01*
X55762Y662417D01*
X55831Y662335D01*
X55898Y662251D01*
X55961Y662164D01*
X56021Y662075D01*
X56079Y661984D01*
X56132Y661892D01*
X56183Y661797D01*
X56230Y661700D01*
X56274Y661602D01*
X56314Y661503D01*
X56350Y661402D01*
X56474Y661140D01*
X56592Y660875D01*
X56703Y660607D01*
X56808Y660337D01*
X56906Y660065D01*
X56998Y659790D01*
X57083Y659513D01*
X57162Y659234D01*
X57234Y658953D01*
X57299Y658670D01*
X57357Y658387D01*
X57409Y658101D01*
X57454Y657815D01*
X57492Y657528D01*
X57523Y657240D01*
X57547Y656951D01*
X57564Y656661D01*
X57575Y656372D01*
X57578Y656082D01*
X49394Y656082D02*
X49397Y655792D01*
X49408Y655503D01*
X49425Y655213D01*
X49449Y654924D01*
X49480Y654636D01*
X49518Y654349D01*
X49563Y654063D01*
X49615Y653778D01*
X49673Y653494D01*
X49738Y653211D01*
X49810Y652930D01*
X49889Y652652D01*
X49974Y652375D01*
X50066Y652100D01*
X50164Y651827D01*
X50269Y651557D01*
X50380Y651289D01*
X50498Y651024D01*
X50622Y650762D01*
X50658Y650661D01*
X50698Y650562D01*
X50742Y650463D01*
X50789Y650367D01*
X50840Y650272D01*
X50893Y650180D01*
X50951Y650089D01*
X51011Y650000D01*
X51074Y649913D01*
X51141Y649829D01*
X51210Y649747D01*
X51282Y649668D01*
X51357Y649591D01*
X51435Y649517D01*
X51515Y649445D01*
X51598Y649377D01*
X51683Y649312D01*
X51770Y649249D01*
X51859Y649190D01*
X51951Y649134D01*
X52044Y649081D01*
X52140Y649032D01*
X52237Y648986D01*
X52335Y648943D01*
X52435Y648904D01*
X52536Y648869D01*
X52639Y648837D01*
X52742Y648809D01*
X52847Y648784D01*
X52952Y648763D01*
X53058Y648746D01*
X53165Y648733D01*
X53272Y648724D01*
X53379Y648718D01*
X53486Y648716D01*
X56350Y650762D02*
X56474Y651024D01*
X56592Y651289D01*
X56703Y651557D01*
X56808Y651827D01*
X56906Y652100D01*
X56998Y652374D01*
X57083Y652651D01*
X57162Y652930D01*
X57234Y653211D01*
X57299Y653494D01*
X57357Y653777D01*
X57409Y654063D01*
X57454Y654349D01*
X57492Y654636D01*
X57523Y654924D01*
X57547Y655213D01*
X57564Y655503D01*
X57575Y655792D01*
X57578Y656082D01*
X56350Y650762D02*
X56314Y650661D01*
X56274Y650562D01*
X56230Y650464D01*
X56183Y650367D01*
X56132Y650272D01*
X56079Y650180D01*
X56021Y650089D01*
X55961Y650000D01*
X55898Y649913D01*
X55831Y649829D01*
X55762Y649747D01*
X55690Y649668D01*
X55615Y649591D01*
X55537Y649517D01*
X55457Y649445D01*
X55374Y649377D01*
X55289Y649312D01*
X55202Y649249D01*
X55113Y649190D01*
X55021Y649134D01*
X54928Y649081D01*
X54832Y649032D01*
X54735Y648986D01*
X54637Y648943D01*
X54537Y648904D01*
X54436Y648869D01*
X54333Y648837D01*
X54230Y648809D01*
X54125Y648784D01*
X54020Y648763D01*
X53914Y648746D01*
X53807Y648733D01*
X53700Y648724D01*
X53593Y648718D01*
X53486Y648716D01*
X50212Y651990D02*
X56760Y660174D01*
X64260Y648716D02*
X69170Y648716D01*
X69284Y648718D01*
X69398Y648724D01*
X69512Y648734D01*
X69626Y648748D01*
X69739Y648766D01*
X69851Y648788D01*
X69962Y648813D01*
X70072Y648843D01*
X70182Y648876D01*
X70290Y648913D01*
X70396Y648954D01*
X70502Y648999D01*
X70605Y649047D01*
X70707Y649099D01*
X70807Y649155D01*
X70905Y649213D01*
X71001Y649276D01*
X71094Y649341D01*
X71186Y649410D01*
X71274Y649482D01*
X71361Y649557D01*
X71444Y649635D01*
X71525Y649716D01*
X71603Y649799D01*
X71678Y649886D01*
X71750Y649974D01*
X71819Y650066D01*
X71884Y650159D01*
X71946Y650255D01*
X72005Y650353D01*
X72061Y650453D01*
X72113Y650555D01*
X72161Y650658D01*
X72206Y650764D01*
X72247Y650870D01*
X72284Y650978D01*
X72317Y651088D01*
X72347Y651198D01*
X72372Y651309D01*
X72394Y651421D01*
X72412Y651534D01*
X72426Y651648D01*
X72436Y651762D01*
X72442Y651876D01*
X72444Y651990D01*
X72444Y653627D01*
X72442Y653739D01*
X72436Y653850D01*
X72427Y653962D01*
X72414Y654073D01*
X72396Y654183D01*
X72376Y654293D01*
X72351Y654402D01*
X72323Y654510D01*
X72291Y654617D01*
X72255Y654723D01*
X72216Y654828D01*
X72173Y654931D01*
X72127Y655033D01*
X72077Y655133D01*
X72024Y655232D01*
X71967Y655328D01*
X71908Y655423D01*
X71845Y655515D01*
X71779Y655605D01*
X71710Y655693D01*
X71638Y655779D01*
X71563Y655862D01*
X71485Y655942D01*
X71405Y656020D01*
X71322Y656095D01*
X71236Y656167D01*
X71148Y656236D01*
X71058Y656302D01*
X70966Y656365D01*
X70871Y656424D01*
X70775Y656481D01*
X70676Y656534D01*
X70576Y656584D01*
X70474Y656630D01*
X70371Y656673D01*
X70266Y656712D01*
X70160Y656748D01*
X70053Y656780D01*
X69945Y656808D01*
X69836Y656833D01*
X69726Y656853D01*
X69616Y656871D01*
X69505Y656884D01*
X69393Y656893D01*
X69282Y656899D01*
X69170Y656901D01*
X69170Y656900D02*
X64260Y656900D01*
X64260Y663448D01*
X72444Y663448D01*
X78349Y649534D02*
X78349Y648716D01*
X78349Y649534D02*
X79167Y649534D01*
X79167Y648716D01*
X78349Y648716D01*
X89573Y663448D02*
X89694Y663446D01*
X89814Y663440D01*
X89934Y663430D01*
X90054Y663416D01*
X90173Y663399D01*
X90292Y663377D01*
X90409Y663352D01*
X90526Y663323D01*
X90642Y663289D01*
X90757Y663253D01*
X90870Y663212D01*
X90982Y663168D01*
X91093Y663120D01*
X91202Y663068D01*
X91309Y663013D01*
X91415Y662955D01*
X91518Y662893D01*
X91619Y662827D01*
X91718Y662759D01*
X91815Y662687D01*
X91909Y662612D01*
X92001Y662534D01*
X92091Y662453D01*
X92177Y662369D01*
X92261Y662283D01*
X92342Y662193D01*
X92420Y662101D01*
X92495Y662007D01*
X92567Y661910D01*
X92635Y661811D01*
X92701Y661710D01*
X92763Y661607D01*
X92821Y661501D01*
X92876Y661394D01*
X92928Y661285D01*
X92976Y661174D01*
X93020Y661062D01*
X93061Y660949D01*
X93097Y660834D01*
X93131Y660718D01*
X93160Y660601D01*
X93185Y660484D01*
X93207Y660365D01*
X93224Y660246D01*
X93238Y660126D01*
X93248Y660006D01*
X93254Y659886D01*
X93256Y659765D01*
X89573Y663448D02*
X89438Y663446D01*
X89303Y663440D01*
X89168Y663431D01*
X89033Y663417D01*
X88899Y663400D01*
X88765Y663379D01*
X88633Y663354D01*
X88500Y663325D01*
X88369Y663292D01*
X88239Y663256D01*
X88110Y663216D01*
X87982Y663172D01*
X87855Y663125D01*
X87730Y663074D01*
X87606Y663020D01*
X87484Y662962D01*
X87363Y662900D01*
X87245Y662835D01*
X87128Y662767D01*
X87013Y662696D01*
X86900Y662621D01*
X86790Y662543D01*
X86682Y662462D01*
X86576Y662378D01*
X86472Y662291D01*
X86371Y662200D01*
X86273Y662108D01*
X86178Y662012D01*
X86085Y661913D01*
X85995Y661812D01*
X85908Y661709D01*
X85824Y661603D01*
X85743Y661495D01*
X85665Y661384D01*
X85590Y661271D01*
X85519Y661156D01*
X85451Y661040D01*
X85386Y660921D01*
X85325Y660800D01*
X85267Y660678D01*
X85213Y660554D01*
X85162Y660429D01*
X85115Y660302D01*
X85071Y660174D01*
X92028Y656900D02*
X92116Y656987D01*
X92201Y657076D01*
X92284Y657167D01*
X92363Y657261D01*
X92440Y657358D01*
X92513Y657457D01*
X92583Y657558D01*
X92650Y657662D01*
X92714Y657767D01*
X92775Y657874D01*
X92832Y657983D01*
X92886Y658094D01*
X92936Y658207D01*
X92983Y658321D01*
X93026Y658436D01*
X93066Y658553D01*
X93102Y658671D01*
X93134Y658789D01*
X93162Y658909D01*
X93187Y659030D01*
X93208Y659151D01*
X93225Y659273D01*
X93239Y659396D01*
X93248Y659519D01*
X93254Y659642D01*
X93256Y659765D01*
X92028Y656900D02*
X85072Y648716D01*
X93256Y648716D01*
X99938Y656082D02*
X99941Y656372D01*
X99952Y656661D01*
X99969Y656951D01*
X99993Y657240D01*
X100024Y657528D01*
X100062Y657815D01*
X100107Y658101D01*
X100159Y658387D01*
X100217Y658670D01*
X100282Y658953D01*
X100354Y659234D01*
X100433Y659513D01*
X100518Y659790D01*
X100610Y660064D01*
X100708Y660337D01*
X100813Y660607D01*
X100924Y660875D01*
X101042Y661140D01*
X101166Y661402D01*
X101165Y661402D02*
X101201Y661503D01*
X101241Y661602D01*
X101285Y661700D01*
X101332Y661797D01*
X101383Y661892D01*
X101436Y661984D01*
X101494Y662075D01*
X101554Y662164D01*
X101617Y662251D01*
X101684Y662335D01*
X101753Y662417D01*
X101825Y662496D01*
X101900Y662573D01*
X101978Y662647D01*
X102058Y662719D01*
X102141Y662787D01*
X102226Y662852D01*
X102313Y662915D01*
X102402Y662974D01*
X102494Y663030D01*
X102587Y663083D01*
X102683Y663132D01*
X102780Y663178D01*
X102878Y663221D01*
X102978Y663260D01*
X103079Y663295D01*
X103182Y663327D01*
X103285Y663355D01*
X103390Y663380D01*
X103495Y663401D01*
X103601Y663418D01*
X103708Y663431D01*
X103815Y663440D01*
X103922Y663446D01*
X104029Y663448D01*
X104136Y663446D01*
X104243Y663440D01*
X104350Y663431D01*
X104457Y663418D01*
X104563Y663401D01*
X104668Y663380D01*
X104773Y663355D01*
X104876Y663327D01*
X104979Y663295D01*
X105080Y663260D01*
X105180Y663221D01*
X105278Y663178D01*
X105375Y663132D01*
X105471Y663083D01*
X105564Y663030D01*
X105656Y662974D01*
X105745Y662915D01*
X105832Y662852D01*
X105917Y662787D01*
X106000Y662719D01*
X106080Y662647D01*
X106158Y662573D01*
X106233Y662496D01*
X106305Y662417D01*
X106374Y662335D01*
X106441Y662251D01*
X106504Y662164D01*
X106564Y662075D01*
X106622Y661984D01*
X106675Y661892D01*
X106726Y661797D01*
X106773Y661700D01*
X106817Y661602D01*
X106857Y661503D01*
X106893Y661402D01*
X106894Y661402D02*
X107018Y661140D01*
X107136Y660875D01*
X107247Y660607D01*
X107352Y660337D01*
X107450Y660065D01*
X107542Y659790D01*
X107627Y659513D01*
X107706Y659234D01*
X107778Y658953D01*
X107843Y658670D01*
X107901Y658387D01*
X107953Y658101D01*
X107998Y657815D01*
X108036Y657528D01*
X108067Y657240D01*
X108091Y656951D01*
X108108Y656661D01*
X108119Y656372D01*
X108122Y656082D01*
X99938Y656082D02*
X99941Y655792D01*
X99952Y655503D01*
X99969Y655213D01*
X99993Y654924D01*
X100024Y654636D01*
X100062Y654349D01*
X100107Y654063D01*
X100159Y653778D01*
X100217Y653494D01*
X100282Y653211D01*
X100354Y652930D01*
X100433Y652652D01*
X100518Y652375D01*
X100610Y652100D01*
X100708Y651827D01*
X100813Y651557D01*
X100924Y651289D01*
X101042Y651024D01*
X101166Y650762D01*
X101165Y650762D02*
X101201Y650661D01*
X101241Y650562D01*
X101285Y650463D01*
X101332Y650367D01*
X101383Y650272D01*
X101436Y650180D01*
X101494Y650089D01*
X101554Y650000D01*
X101617Y649913D01*
X101684Y649829D01*
X101753Y649747D01*
X101825Y649668D01*
X101900Y649591D01*
X101978Y649517D01*
X102058Y649445D01*
X102141Y649377D01*
X102226Y649312D01*
X102313Y649249D01*
X102402Y649190D01*
X102494Y649134D01*
X102587Y649081D01*
X102683Y649032D01*
X102780Y648986D01*
X102878Y648943D01*
X102978Y648904D01*
X103079Y648869D01*
X103182Y648837D01*
X103285Y648809D01*
X103390Y648784D01*
X103495Y648763D01*
X103601Y648746D01*
X103708Y648733D01*
X103815Y648724D01*
X103922Y648718D01*
X104029Y648716D01*
X106893Y650762D02*
X107017Y651024D01*
X107135Y651289D01*
X107246Y651557D01*
X107351Y651827D01*
X107449Y652100D01*
X107541Y652374D01*
X107626Y652651D01*
X107705Y652930D01*
X107777Y653211D01*
X107842Y653494D01*
X107900Y653777D01*
X107952Y654063D01*
X107997Y654349D01*
X108035Y654636D01*
X108066Y654924D01*
X108090Y655213D01*
X108107Y655503D01*
X108118Y655792D01*
X108121Y656082D01*
X106893Y650762D02*
X106857Y650661D01*
X106817Y650562D01*
X106773Y650464D01*
X106726Y650367D01*
X106675Y650272D01*
X106622Y650180D01*
X106564Y650089D01*
X106504Y650000D01*
X106441Y649913D01*
X106374Y649829D01*
X106305Y649747D01*
X106233Y649668D01*
X106158Y649591D01*
X106080Y649517D01*
X106000Y649445D01*
X105917Y649377D01*
X105832Y649312D01*
X105745Y649249D01*
X105656Y649190D01*
X105564Y649134D01*
X105471Y649081D01*
X105375Y649032D01*
X105278Y648986D01*
X105180Y648943D01*
X105080Y648904D01*
X104979Y648869D01*
X104876Y648837D01*
X104773Y648809D01*
X104668Y648784D01*
X104563Y648763D01*
X104457Y648746D01*
X104350Y648733D01*
X104243Y648724D01*
X104136Y648718D01*
X104029Y648716D01*
X100756Y651990D02*
X107303Y660174D01*
X119304Y663448D02*
X119425Y663446D01*
X119545Y663440D01*
X119665Y663430D01*
X119785Y663416D01*
X119904Y663399D01*
X120023Y663377D01*
X120140Y663352D01*
X120257Y663323D01*
X120373Y663289D01*
X120488Y663253D01*
X120601Y663212D01*
X120713Y663168D01*
X120824Y663120D01*
X120933Y663068D01*
X121040Y663013D01*
X121146Y662955D01*
X121249Y662893D01*
X121350Y662827D01*
X121449Y662759D01*
X121546Y662687D01*
X121640Y662612D01*
X121732Y662534D01*
X121822Y662453D01*
X121908Y662369D01*
X121992Y662283D01*
X122073Y662193D01*
X122151Y662101D01*
X122226Y662007D01*
X122298Y661910D01*
X122366Y661811D01*
X122432Y661710D01*
X122494Y661607D01*
X122552Y661501D01*
X122607Y661394D01*
X122659Y661285D01*
X122707Y661174D01*
X122751Y661062D01*
X122792Y660949D01*
X122828Y660834D01*
X122862Y660718D01*
X122891Y660601D01*
X122916Y660484D01*
X122938Y660365D01*
X122955Y660246D01*
X122969Y660126D01*
X122979Y660006D01*
X122985Y659886D01*
X122987Y659765D01*
X119304Y663448D02*
X119169Y663446D01*
X119034Y663440D01*
X118899Y663431D01*
X118764Y663417D01*
X118630Y663400D01*
X118496Y663379D01*
X118364Y663354D01*
X118231Y663325D01*
X118100Y663292D01*
X117970Y663256D01*
X117841Y663216D01*
X117713Y663172D01*
X117586Y663125D01*
X117461Y663074D01*
X117337Y663020D01*
X117215Y662962D01*
X117094Y662900D01*
X116976Y662835D01*
X116859Y662767D01*
X116744Y662696D01*
X116631Y662621D01*
X116521Y662543D01*
X116413Y662462D01*
X116307Y662378D01*
X116203Y662291D01*
X116102Y662200D01*
X116004Y662108D01*
X115909Y662012D01*
X115816Y661913D01*
X115726Y661812D01*
X115639Y661709D01*
X115555Y661603D01*
X115474Y661495D01*
X115396Y661384D01*
X115321Y661271D01*
X115250Y661156D01*
X115182Y661040D01*
X115117Y660921D01*
X115056Y660800D01*
X114998Y660678D01*
X114944Y660554D01*
X114893Y660429D01*
X114846Y660302D01*
X114802Y660174D01*
X121760Y656900D02*
X121848Y656987D01*
X121933Y657076D01*
X122016Y657167D01*
X122095Y657261D01*
X122172Y657358D01*
X122245Y657457D01*
X122315Y657558D01*
X122382Y657662D01*
X122446Y657767D01*
X122507Y657874D01*
X122564Y657983D01*
X122618Y658094D01*
X122668Y658207D01*
X122715Y658321D01*
X122758Y658436D01*
X122798Y658553D01*
X122834Y658671D01*
X122866Y658789D01*
X122894Y658909D01*
X122919Y659030D01*
X122940Y659151D01*
X122957Y659273D01*
X122971Y659396D01*
X122980Y659519D01*
X122986Y659642D01*
X122988Y659765D01*
X121760Y656900D02*
X114803Y648716D01*
X122987Y648716D01*
X129669Y656082D02*
X129672Y656372D01*
X129683Y656661D01*
X129700Y656951D01*
X129724Y657240D01*
X129755Y657528D01*
X129793Y657815D01*
X129838Y658101D01*
X129890Y658387D01*
X129948Y658670D01*
X130013Y658953D01*
X130085Y659234D01*
X130164Y659513D01*
X130249Y659790D01*
X130341Y660064D01*
X130439Y660337D01*
X130544Y660607D01*
X130655Y660875D01*
X130773Y661140D01*
X130897Y661402D01*
X130933Y661503D01*
X130973Y661602D01*
X131017Y661700D01*
X131064Y661797D01*
X131115Y661892D01*
X131168Y661984D01*
X131226Y662075D01*
X131286Y662164D01*
X131349Y662251D01*
X131416Y662335D01*
X131485Y662417D01*
X131557Y662496D01*
X131632Y662573D01*
X131710Y662647D01*
X131790Y662719D01*
X131873Y662787D01*
X131958Y662852D01*
X132045Y662915D01*
X132134Y662974D01*
X132226Y663030D01*
X132319Y663083D01*
X132415Y663132D01*
X132512Y663178D01*
X132610Y663221D01*
X132710Y663260D01*
X132811Y663295D01*
X132914Y663327D01*
X133017Y663355D01*
X133122Y663380D01*
X133227Y663401D01*
X133333Y663418D01*
X133440Y663431D01*
X133547Y663440D01*
X133654Y663446D01*
X133761Y663448D01*
X133868Y663446D01*
X133975Y663440D01*
X134082Y663431D01*
X134189Y663418D01*
X134295Y663401D01*
X134400Y663380D01*
X134505Y663355D01*
X134608Y663327D01*
X134711Y663295D01*
X134812Y663260D01*
X134912Y663221D01*
X135010Y663178D01*
X135107Y663132D01*
X135203Y663083D01*
X135296Y663030D01*
X135388Y662974D01*
X135477Y662915D01*
X135564Y662852D01*
X135649Y662787D01*
X135732Y662719D01*
X135812Y662647D01*
X135890Y662573D01*
X135965Y662496D01*
X136037Y662417D01*
X136106Y662335D01*
X136173Y662251D01*
X136236Y662164D01*
X136296Y662075D01*
X136354Y661984D01*
X136407Y661892D01*
X136458Y661797D01*
X136505Y661700D01*
X136549Y661602D01*
X136589Y661503D01*
X136625Y661402D01*
X136749Y661140D01*
X136867Y660875D01*
X136978Y660607D01*
X137083Y660337D01*
X137181Y660065D01*
X137273Y659790D01*
X137358Y659513D01*
X137437Y659234D01*
X137509Y658953D01*
X137574Y658670D01*
X137632Y658387D01*
X137684Y658101D01*
X137729Y657815D01*
X137767Y657528D01*
X137798Y657240D01*
X137822Y656951D01*
X137839Y656661D01*
X137850Y656372D01*
X137853Y656082D01*
X129669Y656082D02*
X129672Y655792D01*
X129683Y655503D01*
X129700Y655213D01*
X129724Y654924D01*
X129755Y654636D01*
X129793Y654349D01*
X129838Y654063D01*
X129890Y653778D01*
X129948Y653494D01*
X130013Y653211D01*
X130085Y652930D01*
X130164Y652652D01*
X130249Y652375D01*
X130341Y652100D01*
X130439Y651827D01*
X130544Y651557D01*
X130655Y651289D01*
X130773Y651024D01*
X130897Y650762D01*
X130933Y650661D01*
X130973Y650562D01*
X131017Y650463D01*
X131064Y650367D01*
X131115Y650272D01*
X131168Y650180D01*
X131226Y650089D01*
X131286Y650000D01*
X131349Y649913D01*
X131416Y649829D01*
X131485Y649747D01*
X131557Y649668D01*
X131632Y649591D01*
X131710Y649517D01*
X131790Y649445D01*
X131873Y649377D01*
X131958Y649312D01*
X132045Y649249D01*
X132134Y649190D01*
X132226Y649134D01*
X132319Y649081D01*
X132415Y649032D01*
X132512Y648986D01*
X132610Y648943D01*
X132710Y648904D01*
X132811Y648869D01*
X132914Y648837D01*
X133017Y648809D01*
X133122Y648784D01*
X133227Y648763D01*
X133333Y648746D01*
X133440Y648733D01*
X133547Y648724D01*
X133654Y648718D01*
X133761Y648716D01*
X136625Y650762D02*
X136749Y651024D01*
X136867Y651289D01*
X136978Y651557D01*
X137083Y651827D01*
X137181Y652100D01*
X137273Y652374D01*
X137358Y652651D01*
X137437Y652930D01*
X137509Y653211D01*
X137574Y653494D01*
X137632Y653777D01*
X137684Y654063D01*
X137729Y654349D01*
X137767Y654636D01*
X137798Y654924D01*
X137822Y655213D01*
X137839Y655503D01*
X137850Y655792D01*
X137853Y656082D01*
X136625Y650762D02*
X136589Y650661D01*
X136549Y650562D01*
X136505Y650464D01*
X136458Y650367D01*
X136407Y650272D01*
X136354Y650180D01*
X136296Y650089D01*
X136236Y650000D01*
X136173Y649913D01*
X136106Y649829D01*
X136037Y649747D01*
X135965Y649668D01*
X135890Y649591D01*
X135812Y649517D01*
X135732Y649445D01*
X135649Y649377D01*
X135564Y649312D01*
X135477Y649249D01*
X135388Y649190D01*
X135296Y649134D01*
X135203Y649081D01*
X135107Y649032D01*
X135010Y648986D01*
X134912Y648943D01*
X134812Y648904D01*
X134711Y648869D01*
X134608Y648837D01*
X134505Y648809D01*
X134400Y648784D01*
X134295Y648763D01*
X134189Y648746D01*
X134082Y648733D01*
X133975Y648724D01*
X133868Y648718D01*
X133761Y648716D01*
X130487Y651990D02*
X137035Y660174D01*
X152463Y660174D02*
X156555Y663448D01*
X156555Y648716D01*
X152463Y648716D02*
X160647Y648716D01*
X167329Y648716D02*
X171421Y648716D01*
X171548Y648718D01*
X171675Y648724D01*
X171802Y648734D01*
X171929Y648748D01*
X172055Y648765D01*
X172180Y648787D01*
X172305Y648813D01*
X172429Y648842D01*
X172552Y648875D01*
X172673Y648912D01*
X172794Y648953D01*
X172913Y648998D01*
X173031Y649046D01*
X173147Y649098D01*
X173262Y649153D01*
X173374Y649212D01*
X173485Y649275D01*
X173594Y649341D01*
X173701Y649410D01*
X173806Y649483D01*
X173908Y649558D01*
X174008Y649637D01*
X174105Y649719D01*
X174200Y649804D01*
X174292Y649892D01*
X174381Y649983D01*
X174468Y650076D01*
X174551Y650172D01*
X174632Y650271D01*
X174709Y650372D01*
X174783Y650475D01*
X174854Y650581D01*
X174922Y650689D01*
X174986Y650799D01*
X175047Y650911D01*
X175104Y651024D01*
X175158Y651140D01*
X175208Y651257D01*
X175254Y651375D01*
X175297Y651495D01*
X175336Y651616D01*
X175371Y651739D01*
X175402Y651862D01*
X175430Y651986D01*
X175453Y652111D01*
X175473Y652237D01*
X175489Y652363D01*
X175501Y652490D01*
X175509Y652617D01*
X175513Y652744D01*
X175513Y652872D01*
X175509Y652999D01*
X175501Y653126D01*
X175489Y653253D01*
X175473Y653379D01*
X175453Y653505D01*
X175430Y653630D01*
X175402Y653754D01*
X175371Y653877D01*
X175336Y654000D01*
X175297Y654121D01*
X175254Y654241D01*
X175208Y654359D01*
X175158Y654476D01*
X175104Y654592D01*
X175047Y654705D01*
X174986Y654817D01*
X174922Y654927D01*
X174854Y655035D01*
X174783Y655141D01*
X174709Y655244D01*
X174632Y655345D01*
X174551Y655444D01*
X174468Y655540D01*
X174381Y655633D01*
X174292Y655724D01*
X174200Y655812D01*
X174105Y655897D01*
X174008Y655979D01*
X173908Y656058D01*
X173806Y656133D01*
X173701Y656206D01*
X173594Y656275D01*
X173485Y656341D01*
X173374Y656404D01*
X173262Y656463D01*
X173147Y656518D01*
X173031Y656570D01*
X172913Y656618D01*
X172794Y656663D01*
X172673Y656704D01*
X172552Y656741D01*
X172429Y656774D01*
X172305Y656803D01*
X172180Y656829D01*
X172055Y656851D01*
X171929Y656868D01*
X171802Y656882D01*
X171675Y656892D01*
X171548Y656898D01*
X171421Y656900D01*
X172239Y663448D02*
X167329Y663448D01*
X172239Y663448D02*
X172352Y663446D01*
X172465Y663440D01*
X172577Y663430D01*
X172690Y663417D01*
X172801Y663399D01*
X172912Y663378D01*
X173023Y663353D01*
X173132Y663324D01*
X173240Y663291D01*
X173347Y663255D01*
X173453Y663215D01*
X173557Y663171D01*
X173660Y663124D01*
X173761Y663073D01*
X173860Y663019D01*
X173957Y662961D01*
X174052Y662900D01*
X174145Y662836D01*
X174236Y662769D01*
X174324Y662698D01*
X174410Y662625D01*
X174493Y662548D01*
X174574Y662469D01*
X174652Y662387D01*
X174727Y662302D01*
X174799Y662215D01*
X174868Y662126D01*
X174933Y662034D01*
X174996Y661940D01*
X175055Y661844D01*
X175111Y661745D01*
X175164Y661645D01*
X175213Y661543D01*
X175258Y661440D01*
X175300Y661335D01*
X175338Y661229D01*
X175373Y661121D01*
X175404Y661012D01*
X175431Y660903D01*
X175454Y660792D01*
X175474Y660681D01*
X175489Y660569D01*
X175501Y660456D01*
X175509Y660343D01*
X175513Y660231D01*
X175513Y660117D01*
X175509Y660005D01*
X175501Y659892D01*
X175489Y659779D01*
X175474Y659667D01*
X175454Y659556D01*
X175431Y659445D01*
X175404Y659336D01*
X175373Y659227D01*
X175338Y659119D01*
X175300Y659013D01*
X175258Y658908D01*
X175213Y658805D01*
X175164Y658703D01*
X175111Y658603D01*
X175055Y658504D01*
X174996Y658408D01*
X174933Y658314D01*
X174868Y658222D01*
X174799Y658133D01*
X174727Y658046D01*
X174652Y657961D01*
X174574Y657879D01*
X174493Y657800D01*
X174410Y657723D01*
X174324Y657650D01*
X174236Y657579D01*
X174145Y657512D01*
X174052Y657448D01*
X173957Y657387D01*
X173860Y657329D01*
X173761Y657275D01*
X173660Y657224D01*
X173557Y657177D01*
X173453Y657133D01*
X173347Y657093D01*
X173240Y657057D01*
X173132Y657024D01*
X173023Y656995D01*
X172912Y656970D01*
X172801Y656949D01*
X172690Y656931D01*
X172577Y656918D01*
X172465Y656908D01*
X172352Y656902D01*
X172239Y656900D01*
X168966Y656900D01*
X181913Y650762D02*
X181913Y649944D01*
X181913Y650762D02*
X182732Y650762D01*
X182732Y649944D01*
X181913Y649944D01*
X181913Y656491D02*
X181913Y657310D01*
X182732Y657310D01*
X182732Y656491D01*
X181913Y656491D01*
X189132Y656082D02*
X189135Y656372D01*
X189146Y656661D01*
X189163Y656951D01*
X189187Y657240D01*
X189218Y657528D01*
X189256Y657815D01*
X189301Y658101D01*
X189353Y658387D01*
X189411Y658670D01*
X189476Y658953D01*
X189548Y659234D01*
X189627Y659513D01*
X189712Y659790D01*
X189804Y660064D01*
X189902Y660337D01*
X190007Y660607D01*
X190118Y660875D01*
X190236Y661140D01*
X190360Y661402D01*
X190396Y661503D01*
X190436Y661602D01*
X190480Y661700D01*
X190527Y661797D01*
X190578Y661892D01*
X190631Y661984D01*
X190689Y662075D01*
X190749Y662164D01*
X190812Y662251D01*
X190879Y662335D01*
X190948Y662417D01*
X191020Y662496D01*
X191095Y662573D01*
X191173Y662647D01*
X191253Y662719D01*
X191336Y662787D01*
X191421Y662852D01*
X191508Y662915D01*
X191597Y662974D01*
X191689Y663030D01*
X191782Y663083D01*
X191878Y663132D01*
X191975Y663178D01*
X192073Y663221D01*
X192173Y663260D01*
X192274Y663295D01*
X192377Y663327D01*
X192480Y663355D01*
X192585Y663380D01*
X192690Y663401D01*
X192796Y663418D01*
X192903Y663431D01*
X193010Y663440D01*
X193117Y663446D01*
X193224Y663448D01*
X193331Y663446D01*
X193438Y663440D01*
X193545Y663431D01*
X193652Y663418D01*
X193758Y663401D01*
X193863Y663380D01*
X193968Y663355D01*
X194071Y663327D01*
X194174Y663295D01*
X194275Y663260D01*
X194375Y663221D01*
X194473Y663178D01*
X194570Y663132D01*
X194666Y663083D01*
X194759Y663030D01*
X194851Y662974D01*
X194940Y662915D01*
X195027Y662852D01*
X195112Y662787D01*
X195195Y662719D01*
X195275Y662647D01*
X195353Y662573D01*
X195428Y662496D01*
X195500Y662417D01*
X195569Y662335D01*
X195636Y662251D01*
X195699Y662164D01*
X195759Y662075D01*
X195817Y661984D01*
X195870Y661892D01*
X195921Y661797D01*
X195968Y661700D01*
X196012Y661602D01*
X196052Y661503D01*
X196088Y661402D01*
X196212Y661140D01*
X196330Y660875D01*
X196441Y660607D01*
X196546Y660337D01*
X196644Y660065D01*
X196736Y659790D01*
X196821Y659513D01*
X196900Y659234D01*
X196972Y658953D01*
X197037Y658670D01*
X197095Y658387D01*
X197147Y658101D01*
X197192Y657815D01*
X197230Y657528D01*
X197261Y657240D01*
X197285Y656951D01*
X197302Y656661D01*
X197313Y656372D01*
X197316Y656082D01*
X189132Y656082D02*
X189135Y655792D01*
X189146Y655503D01*
X189163Y655213D01*
X189187Y654924D01*
X189218Y654636D01*
X189256Y654349D01*
X189301Y654063D01*
X189353Y653778D01*
X189411Y653494D01*
X189476Y653211D01*
X189548Y652930D01*
X189627Y652652D01*
X189712Y652375D01*
X189804Y652100D01*
X189902Y651827D01*
X190007Y651557D01*
X190118Y651289D01*
X190236Y651024D01*
X190360Y650762D01*
X190396Y650661D01*
X190436Y650562D01*
X190480Y650463D01*
X190527Y650367D01*
X190578Y650272D01*
X190631Y650180D01*
X190689Y650089D01*
X190749Y650000D01*
X190812Y649913D01*
X190879Y649829D01*
X190948Y649747D01*
X191020Y649668D01*
X191095Y649591D01*
X191173Y649517D01*
X191253Y649445D01*
X191336Y649377D01*
X191421Y649312D01*
X191508Y649249D01*
X191597Y649190D01*
X191689Y649134D01*
X191782Y649081D01*
X191878Y649032D01*
X191975Y648986D01*
X192073Y648943D01*
X192173Y648904D01*
X192274Y648869D01*
X192377Y648837D01*
X192480Y648809D01*
X192585Y648784D01*
X192690Y648763D01*
X192796Y648746D01*
X192903Y648733D01*
X193010Y648724D01*
X193117Y648718D01*
X193224Y648716D01*
X196088Y650762D02*
X196212Y651024D01*
X196330Y651289D01*
X196441Y651557D01*
X196546Y651827D01*
X196644Y652100D01*
X196736Y652374D01*
X196821Y652651D01*
X196900Y652930D01*
X196972Y653211D01*
X197037Y653494D01*
X197095Y653777D01*
X197147Y654063D01*
X197192Y654349D01*
X197230Y654636D01*
X197261Y654924D01*
X197285Y655213D01*
X197302Y655503D01*
X197313Y655792D01*
X197316Y656082D01*
X196088Y650762D02*
X196052Y650661D01*
X196012Y650562D01*
X195968Y650464D01*
X195921Y650367D01*
X195870Y650272D01*
X195817Y650180D01*
X195759Y650089D01*
X195699Y650000D01*
X195636Y649913D01*
X195569Y649829D01*
X195500Y649747D01*
X195428Y649668D01*
X195353Y649591D01*
X195275Y649517D01*
X195195Y649445D01*
X195112Y649377D01*
X195027Y649312D01*
X194940Y649249D01*
X194851Y649190D01*
X194759Y649134D01*
X194666Y649081D01*
X194570Y649032D01*
X194473Y648986D01*
X194375Y648943D01*
X194275Y648904D01*
X194174Y648869D01*
X194071Y648837D01*
X193968Y648809D01*
X193863Y648784D01*
X193758Y648763D01*
X193652Y648746D01*
X193545Y648733D01*
X193438Y648724D01*
X193331Y648718D01*
X193224Y648716D01*
X189950Y651990D02*
X196498Y660174D01*
X208499Y663448D02*
X208620Y663446D01*
X208740Y663440D01*
X208860Y663430D01*
X208980Y663416D01*
X209099Y663399D01*
X209218Y663377D01*
X209335Y663352D01*
X209452Y663323D01*
X209568Y663289D01*
X209683Y663253D01*
X209796Y663212D01*
X209908Y663168D01*
X210019Y663120D01*
X210128Y663068D01*
X210235Y663013D01*
X210341Y662955D01*
X210444Y662893D01*
X210545Y662827D01*
X210644Y662759D01*
X210741Y662687D01*
X210835Y662612D01*
X210927Y662534D01*
X211017Y662453D01*
X211103Y662369D01*
X211187Y662283D01*
X211268Y662193D01*
X211346Y662101D01*
X211421Y662007D01*
X211493Y661910D01*
X211561Y661811D01*
X211627Y661710D01*
X211689Y661607D01*
X211747Y661501D01*
X211802Y661394D01*
X211854Y661285D01*
X211902Y661174D01*
X211946Y661062D01*
X211987Y660949D01*
X212023Y660834D01*
X212057Y660718D01*
X212086Y660601D01*
X212111Y660484D01*
X212133Y660365D01*
X212150Y660246D01*
X212164Y660126D01*
X212174Y660006D01*
X212180Y659886D01*
X212182Y659765D01*
X208499Y663448D02*
X208364Y663446D01*
X208229Y663440D01*
X208094Y663431D01*
X207959Y663417D01*
X207825Y663400D01*
X207691Y663379D01*
X207559Y663354D01*
X207426Y663325D01*
X207295Y663292D01*
X207165Y663256D01*
X207036Y663216D01*
X206908Y663172D01*
X206781Y663125D01*
X206656Y663074D01*
X206532Y663020D01*
X206410Y662962D01*
X206289Y662900D01*
X206171Y662835D01*
X206054Y662767D01*
X205939Y662696D01*
X205826Y662621D01*
X205716Y662543D01*
X205608Y662462D01*
X205502Y662378D01*
X205398Y662291D01*
X205297Y662200D01*
X205199Y662108D01*
X205104Y662012D01*
X205011Y661913D01*
X204921Y661812D01*
X204834Y661709D01*
X204750Y661603D01*
X204669Y661495D01*
X204591Y661384D01*
X204516Y661271D01*
X204445Y661156D01*
X204377Y661040D01*
X204312Y660921D01*
X204251Y660800D01*
X204193Y660678D01*
X204139Y660554D01*
X204088Y660429D01*
X204041Y660302D01*
X203997Y660174D01*
X210954Y656900D02*
X211042Y656987D01*
X211127Y657076D01*
X211210Y657167D01*
X211289Y657261D01*
X211366Y657358D01*
X211439Y657457D01*
X211509Y657558D01*
X211576Y657662D01*
X211640Y657767D01*
X211701Y657874D01*
X211758Y657983D01*
X211812Y658094D01*
X211862Y658207D01*
X211909Y658321D01*
X211952Y658436D01*
X211992Y658553D01*
X212028Y658671D01*
X212060Y658789D01*
X212088Y658909D01*
X212113Y659030D01*
X212134Y659151D01*
X212151Y659273D01*
X212165Y659396D01*
X212174Y659519D01*
X212180Y659642D01*
X212182Y659765D01*
X210954Y656900D02*
X203997Y648716D01*
X212182Y648716D01*
M02*
